<svg width="24" height="26" viewBox="0 0 24 26" fill="none" xmlns="http://www.w3.org/2000/svg">
<path d="M22.4329 8.8632C22.2731 8.98116 19.4697 10.4809 19.4697 13.8172C19.4697 17.6759 23.0361 19.0408 23.1426 19.0744C23.1249 19.1586 22.5748 20.9448 21.2618 22.7646C20.0908 24.3655 18.8664 25.9662 17.0034 25.9662C15.1404 25.9662 14.6613 24.9383 12.5143 24.9383C10.4206 24.9383 9.67534 25.9999 7.97196 25.9999C6.26858 25.9999 5.07974 24.517 3.7136 22.6972C2.13443 20.5572 0.856934 17.2377 0.856934 14.0867C0.856934 9.03158 4.31695 6.35229 7.72354 6.35229C9.53344 6.35229 11.0415 7.4813 12.1771 7.4813C13.2594 7.4813 14.9451 6.2849 17.0032 6.2849C17.7841 6.28507 20.5876 6.35261 22.4329 8.8632Z" fill="black"/>
<path d="M16.0276 4.14522C16.8792 3.18474 17.4826 1.85358 17.4826 0.522415C17.4826 0.337073 17.4649 0.151732 17.4293 0C16.0453 0.0505773 14.3952 0.876293 13.4015 1.97154C12.6208 2.81406 11.8933 4.14522 11.8933 5.49335C11.8933 5.69549 11.9288 5.8978 11.9465 5.96519C12.0352 5.98199 12.1773 5.99896 12.3192 5.99896C13.5613 5.9988 15.1226 5.20685 16.0276 4.14522Z" fill="black"/>
</svg>
