<svg width="26" height="26" viewBox="0 0 26 26" fill="none" xmlns="http://www.w3.org/2000/svg">
<path d="M26 13.0794C26 5.85586 20.1797 -9.53674e-07 13 -9.53674e-07C5.82029 -9.53674e-07 0 5.85586 0 13.0794C0 19.6078 4.75391 25.0188 10.9687 26V16.8602H7.66796V13.0794H10.9687V10.1979C10.9687 6.91984 12.9095 5.10916 15.879 5.10916C17.3013 5.10916 18.789 5.36461 18.789 5.36461V8.58338H17.1498C15.5349 8.58338 15.0312 9.5916 15.0312 10.626V13.0794H18.6367L18.0603 16.8602H15.0312V26C21.2461 25.0188 26 19.6078 26 13.0794Z" fill="#1877F2"/>
</svg>
