<svg width="351" height="296" viewBox="0 0 351 296" fill="none" xmlns="http://www.w3.org/2000/svg">
<g clip-path="url(#clip0_7_41358)">
<rect width="351" height="296" rx="12.5" fill="#F7FAFC"/>
<path opacity="0.5" d="M70.8183 117.292H58.7383V122.396H70.8183V117.292Z" fill="#D9DFE6"/>
<path opacity="0.5" d="M64.08 123.729H52V128.833H64.08V123.729Z" fill="#D9DFE6"/>
<path opacity="0.5" d="M77.5561 123.729H65.4761V128.833H77.5561V123.729Z" fill="#D9DFE6"/>
<path opacity="0.5" d="M223.351 122.355H235.431V117.251H223.351V122.355Z" fill="#D9DFE6"/>
<path opacity="0.5" d="M244 42.6445H256.08V37.5397H244V42.6445Z" fill="#D9DFE6"/>
<path opacity="0.5" d="M250.738 36.2075H262.818V31.1027H250.738V36.2075Z" fill="#D9DFE6"/>
<path d="M72.091 -55H71.6348V67.26H72.091V-55Z" fill="url(#paint0_linear_7_41358)"/>
<path d="M88.897 83.6052L87.533 86.6024H56.3521L54.9927 83.6052L68.2679 74.4175H75.6218L88.897 83.6052Z" fill="#D9DFE6"/>
<path d="M76.5431 65.5674L75.6215 74.4175H68.2677L67.3462 65.5674H76.5431Z" fill="#C6CED9"/>
<path d="M88.8924 83.6099L87.5284 86.6071H56.3476L54.9927 83.6099H88.8924Z" fill="#C6CED9"/>
<path d="M122.437 -85H121.98V25.8551H122.437V-85Z" fill="url(#paint1_linear_7_41358)"/>
<path d="M139.297 43.9387L137.933 46.9359H106.753L105.393 43.9387L118.668 34.751H126.022L139.297 43.9387Z" fill="#D9DFE6"/>
<path d="M126.943 25.896L126.022 34.7507H118.668L117.747 25.896H126.943Z" fill="#C6CED9"/>
<path d="M139.297 43.9385L137.933 46.9357H106.753L105.393 43.9385H139.297Z" fill="#C6CED9"/>
<path opacity="0.5" d="M285.885 212.23C285.885 219.54 236.666 225.459 175.943 225.459C115.219 225.459 66 219.54 66 212.23C66 204.919 115.219 199 175.943 199C236.666 199 285.885 204.919 285.885 212.23Z" fill="#D9DFE6"/>
<path d="M248.695 145.726C249.028 148.032 248.909 150.381 248.344 152.641C248.079 153.689 247.725 154.711 247.285 155.698C246.733 156.966 246.159 158.198 246.3 159.585C246.432 159.671 245.976 159.658 245.958 159.525C242.258 157.418 237.514 157.03 234.667 153.595C233.384 151.916 232.573 149.926 232.318 147.829C231.966 145.575 231.861 143.084 232.45 140.867C232.938 139.006 234.037 137.181 235.821 136.269C237.605 135.356 240.027 135.402 241.943 135.995C246.054 137.268 248.111 141.743 248.695 145.726Z" fill="#96D3FF"/>
<path d="M250.593 173.111C250.091 171.429 249.581 169.749 249.064 168.07C248.052 164.781 246.998 161.505 245.825 158.266C245.126 156.329 244.388 154.408 243.613 152.504C243.704 151.305 243.856 150.112 244.069 148.928C244.379 147.495 244.826 146.109 245.246 144.708C245.273 144.621 245.132 144.576 245.095 144.658C244.265 146.592 243.179 149.065 243.157 151.355C242.244 149.202 241.274 147.08 240.246 144.991C240.119 143.224 240.164 141.448 240.383 139.69C240.383 139.675 240.377 139.661 240.368 139.65C240.358 139.638 240.345 139.631 240.331 139.628C240.316 139.625 240.301 139.628 240.288 139.635C240.275 139.642 240.265 139.653 240.26 139.667C239.944 141.205 239.821 142.775 239.895 144.343C239.101 142.774 238.26 141.224 237.372 139.695C237.29 139.558 237.103 139.695 237.171 139.836C238.563 142.514 239.849 145.246 241.063 148.015C239.359 146.538 237.39 145.398 235.26 144.658C235.169 144.621 235.1 144.758 235.192 144.795C237.516 145.793 239.642 147.2 241.469 148.951C242.336 150.976 243.164 153.02 243.955 155.082C241.638 152.801 238.481 151.318 235.406 150.52C235.301 150.493 235.274 150.652 235.374 150.68C238.923 151.747 241.674 153.759 244.375 156.154C244.685 156.989 244.995 157.824 245.287 158.658C246.428 161.828 247.515 165.021 248.549 168.239C249.048 169.759 249.537 171.298 250.018 172.855C250.533 174.516 250.93 176.268 251.615 177.873C251.678 178.024 251.952 177.992 251.916 177.805C251.555 176.219 251.114 174.652 250.593 173.111Z" fill="#39434F"/>
<path d="M244.457 142.487C243.801 143.497 243.349 144.625 243.125 145.808C243.125 145.84 243.166 145.858 243.18 145.808C243.592 144.693 244.073 143.605 244.621 142.551C244.681 142.459 244.521 142.391 244.457 142.487Z" fill="#39434F"/>
<path d="M237.856 150.196C236.827 149.626 235.704 149.247 234.539 149.079C234.508 149.079 234.489 149.12 234.539 149.133C235.073 149.352 235.634 149.507 236.173 149.717C236.711 149.927 237.245 150.173 237.792 150.37C237.813 150.371 237.834 150.366 237.852 150.355C237.869 150.344 237.883 150.327 237.89 150.307C237.897 150.288 237.898 150.266 237.892 150.246C237.886 150.226 237.873 150.209 237.856 150.196Z" fill="#39434F"/>
<path d="M235.999 140.926C235.665 140.672 235.308 140.45 234.931 140.265C234.919 140.26 234.905 140.26 234.893 140.264C234.88 140.268 234.869 140.277 234.862 140.288C234.855 140.299 234.851 140.312 234.852 140.325C234.853 140.338 234.859 140.351 234.868 140.361C235.197 140.62 235.55 140.847 235.921 141.04C235.99 141.081 236.067 140.967 235.999 140.926Z" fill="#39434F"/>
<path d="M261.167 158.294C258.503 159.083 255.825 159.813 253.161 160.597C252.928 160.666 248.426 152.035 250.054 147.587C250.829 145.572 252.045 143.756 253.611 142.272C255.178 140.787 257.057 139.671 259.11 139.006C261.012 138.358 263.348 137.815 265.36 138.258C267.148 138.654 268.407 140.114 269.009 141.798C269.798 144.079 269.534 146.816 269.105 149.138C268.763 151.328 267.86 153.391 266.482 155.128C265.049 156.797 263.243 157.678 261.167 158.294Z" fill="#96D3FF"/>
<path d="M265.017 150.087C263.333 150.912 261.584 151.6 259.789 152.144C258.594 152.467 257.428 152.89 256.304 153.408C257.431 150.899 258.663 148.445 259.976 146.009C261.696 145.511 263.507 144.736 264.803 143.518C264.81 143.511 264.817 143.504 264.821 143.495C264.826 143.486 264.828 143.477 264.829 143.467C264.83 143.457 264.829 143.448 264.826 143.438C264.823 143.429 264.818 143.42 264.812 143.413C264.806 143.405 264.798 143.399 264.789 143.395C264.781 143.39 264.771 143.387 264.761 143.387C264.752 143.386 264.742 143.387 264.733 143.39C264.723 143.393 264.715 143.397 264.707 143.404C263.288 144.407 261.719 145.009 260.145 145.685C260.501 145.028 260.857 144.375 261.222 143.723C261.322 143.541 261.076 143.363 260.953 143.536C259.552 145.57 258.287 147.695 257.166 149.895C256.879 147.968 256.787 146.016 256.893 144.07C256.893 144.02 256.824 144.015 256.815 144.07C256.484 146.188 256.506 148.346 256.879 150.456C255.966 152.322 255.095 154.234 254.329 156.168C254.028 155.005 253.631 153.86 253.366 152.687C252.963 151.01 252.834 149.278 252.983 147.56C252.983 147.509 252.915 147.505 252.905 147.56C252.448 150.749 252.849 154.002 254.069 156.985C253.612 158.148 253.197 159.316 252.81 160.488C250.8 166.462 249.61 172.68 249.27 178.973C249.27 179.003 249.282 179.032 249.303 179.054C249.324 179.075 249.353 179.087 249.384 179.087C249.414 179.087 249.443 179.075 249.464 179.054C249.486 179.032 249.498 179.003 249.498 178.973C250.196 172.771 251.525 166.657 253.467 160.725C254.237 158.403 255.127 156.163 256.103 153.933C257.677 153.476 259.246 152.838 260.793 152.304C262.339 151.838 263.799 151.121 265.113 150.183C265.126 150.17 265.133 150.153 265.133 150.135C265.133 150.117 265.126 150.1 265.113 150.087C265.1 150.074 265.083 150.067 265.065 150.067C265.047 150.067 265.03 150.074 265.017 150.087Z" fill="#39434F"/>
<path d="M267.513 147.582C265.884 148.162 264.319 148.974 262.714 149.562C262.636 149.59 262.682 149.708 262.755 149.695C264.479 149.339 266.185 148.805 267.577 147.674C267.627 147.633 267.572 147.56 267.513 147.582Z" fill="#39434F"/>
<path d="M254.206 144.065C254.229 143.978 254.101 143.928 254.074 144.019C253.617 145.52 253.321 147.117 253.754 148.65C253.754 148.709 253.868 148.713 253.868 148.65C253.946 147.094 253.859 145.589 254.206 144.065Z" fill="#39434F"/>
<path d="M260.939 140.598C260.42 141.344 260.171 142.245 260.232 143.153C260.232 143.207 260.328 143.239 260.342 143.175C260.542 142.313 260.875 141.533 261.14 140.698C261.147 140.673 261.146 140.645 261.135 140.621C261.124 140.596 261.105 140.576 261.082 140.564C261.058 140.552 261.03 140.549 261.004 140.555C260.978 140.561 260.955 140.576 260.939 140.598Z" fill="#39434F"/>
<path d="M229.475 162.098C230.256 164.58 232.112 168.006 235.05 168.029C236.957 168.029 238.873 167.819 240.785 167.792C242.828 167.76 244.89 167.764 246.92 167.888C247.089 167.888 246.674 161.761 241.761 158.764C240.392 157.924 238.7 157.66 237.135 157.322C235.342 156.897 233.502 156.706 231.661 156.752C230.529 156.798 229.59 157.035 229.188 158.193C228.787 159.352 229.097 160.903 229.475 162.098Z" fill="#96D3FF"/>
<path d="M231.587 158.996C232.783 159.302 233.987 159.658 235.187 160.036C234.874 159.697 234.544 159.374 234.197 159.069C233.681 158.645 233.116 158.303 232.564 157.924C232.518 157.897 232.564 157.806 232.605 157.828C233.768 158.311 234.771 159.111 235.502 160.137C236.998 160.616 238.476 161.149 239.899 161.733C240.884 162.138 241.828 162.634 242.719 163.216C242.432 162.596 242.09 162.004 241.697 161.446C241.044 160.597 240.164 160.128 239.311 159.53C239.296 159.518 239.287 159.502 239.283 159.484C239.28 159.465 239.283 159.446 239.293 159.43C239.302 159.414 239.317 159.402 239.334 159.396C239.352 159.39 239.371 159.391 239.388 159.398C240.281 159.786 241.083 160.356 241.743 161.071C242.403 161.787 242.906 162.632 243.22 163.554C244.243 164.289 245.178 165.138 246.008 166.085C249.26 169.781 251.824 174.698 251.833 179.712C251.833 179.831 251.642 179.867 251.619 179.739C250.782 174.823 248.639 170.223 245.415 166.418C245.182 166.145 244.959 165.889 244.698 165.638C243.808 165.517 242.91 165.45 242.012 165.438C240.967 165.438 239.927 165.593 238.887 165.675C237.171 165.816 235.274 165.835 233.722 164.972C233.654 164.936 233.722 164.817 233.777 164.845C237.231 166.099 240.848 164.507 244.306 165.255C242.829 163.846 241.099 162.73 239.206 161.966L238.887 161.838C236.674 162.103 234.325 162.682 232.181 161.961C232.174 161.96 232.168 161.957 232.162 161.952C232.157 161.948 232.152 161.943 232.149 161.937C232.146 161.931 232.143 161.925 232.143 161.918C232.142 161.911 232.142 161.904 232.144 161.898C232.146 161.891 232.149 161.885 232.153 161.879C232.157 161.874 232.162 161.869 232.168 161.866C232.174 161.863 232.181 161.861 232.188 161.86C232.194 161.859 232.201 161.859 232.208 161.861C234.293 162.381 236.291 161.724 238.348 161.619C236.108 160.748 233.823 160.055 231.578 159.188C231.387 159.115 231.382 158.941 231.587 158.996Z" fill="#39434F"/>
<path d="M230.612 161.177C231.682 161.316 232.758 161.398 233.837 161.423C233.86 161.423 233.869 161.46 233.837 161.464C232.752 161.666 231.635 161.595 230.584 161.259C230.534 161.245 230.561 161.168 230.612 161.177Z" fill="#39434F"/>
<path d="M237.892 159.051C238.489 159.318 239.03 159.694 239.489 160.16C239.544 160.21 239.489 160.31 239.407 160.264C239.138 160.068 238.86 159.881 238.577 159.703C238.31 159.552 238.051 159.388 237.801 159.211C237.787 159.196 237.778 159.177 237.775 159.156C237.773 159.135 237.777 159.115 237.787 159.097C237.797 159.079 237.813 159.064 237.832 159.056C237.851 159.048 237.872 159.046 237.892 159.051Z" fill="#39434F"/>
<path d="M255.251 167.035C255.214 167.112 255.333 167.19 255.378 167.103C255.387 167.116 255.399 167.127 255.412 167.136C255.425 167.145 255.44 167.15 255.456 167.153C257.434 167.625 259.439 167.976 261.459 168.202C263.083 168.348 264.958 168.435 266.382 167.495C268.311 166.213 269.575 162.797 268.535 160.625C267.303 158.048 263.585 159.448 261.719 160.365C258.851 161.766 256.563 164.125 255.251 167.035Z" fill="#96D3FF"/>
<path d="M253.809 168.225C254.891 167.174 256.095 166.255 257.395 165.488C258.333 164.006 259.577 162.741 261.044 161.779C261.117 161.729 261.176 161.843 261.113 161.893C259.95 162.823 258.919 163.907 258.047 165.114C259.494 164.323 260.997 163.64 262.545 163.07C263.099 162.045 263.939 161.203 264.963 160.647C264.963 160.647 265.008 160.647 264.99 160.679C264.144 161.318 263.407 162.088 262.805 162.96C263.717 162.623 264.63 162.303 265.565 161.998C265.647 161.97 265.679 162.098 265.601 162.126C263.959 162.769 262.28 163.444 260.652 164.224C262.637 164.541 264.661 164.541 266.646 164.224C266.701 164.224 266.724 164.292 266.646 164.306C264.575 164.919 262.375 164.952 260.287 164.402C259.25 164.906 258.243 165.469 257.271 166.09C258.089 166.023 258.912 166.091 259.707 166.291C261.112 166.617 262.549 166.78 263.991 166.774C264.046 166.774 264.06 166.865 263.991 166.875C261.505 167.299 259.155 166.172 256.692 166.464C255.777 167.087 254.92 167.789 254.128 168.562C252.591 170.097 251.326 171.882 250.387 173.841C249.347 175.953 248.786 178.188 247.947 180.369C247.941 180.389 247.928 180.406 247.91 180.416C247.892 180.426 247.871 180.429 247.851 180.423C247.831 180.418 247.814 180.405 247.804 180.387C247.793 180.369 247.791 180.348 247.796 180.328C248.535 176.03 250.675 171.29 253.809 168.225Z" fill="#39434F"/>
<path d="M261.304 162.326C261.47 162.034 261.687 161.773 261.943 161.555C262.15 161.327 262.4 161.141 262.677 161.008C262.7 161.008 262.714 161.008 262.7 161.049C262.495 161.277 262.212 161.45 261.993 161.669C261.774 161.888 261.587 162.153 261.363 162.372C261.357 162.38 261.348 162.385 261.339 162.386C261.329 162.387 261.319 162.385 261.311 162.379C261.303 162.373 261.298 162.364 261.297 162.354C261.295 162.344 261.298 162.334 261.304 162.326Z" fill="#39434F"/>
<path d="M265.405 163.663C265.775 163.572 266.162 163.576 266.536 163.499C266.909 163.41 267.276 163.3 267.636 163.17C267.646 163.168 267.657 163.169 267.667 163.174C267.677 163.178 267.684 163.186 267.689 163.196C267.693 163.206 267.694 163.217 267.691 163.227C267.688 163.237 267.681 163.246 267.672 163.252C266.99 163.673 266.189 163.857 265.391 163.777C265.346 163.768 265.35 163.677 265.405 163.663Z" fill="#39434F"/>
<path d="M243.567 175.031L243.891 178.736L245 191.244H254.799L256.181 178.736L256.587 175.031H243.567Z" fill="#606873"/>
<path d="M243.567 175.031L243.891 178.736H256.181L256.587 175.031H243.567Z" fill="#39434F"/>
<path d="M242.6 177.025H257.563V174.019H242.6V177.025Z" fill="#606873"/>
<path d="M42.5254 191.238L73.5504 191.127L104.569 191.086L166.613 191.012L228.657 191.086L259.676 191.127L290.695 191.238L259.676 191.353L228.657 191.395L166.613 191.468L104.569 191.395L73.5504 191.353L42.5254 191.238Z" fill="#39434F"/>
<path d="M179.329 151.479L180.705 159.744L190.044 210.167H191.548L184.759 159.744L183.754 151.479H179.329Z" fill="#D9DFE6"/>
<path d="M183.754 151.479H179.329L180.705 159.744H184.759L183.754 151.479Z" fill="#B3BECD"/>
<path d="M150.005 210.167H151.509L160.848 159.744L162.224 151.479H157.799L156.794 159.744L150.005 210.167Z" fill="#D9DFE6"/>
<path d="M157.799 151.479L156.794 159.744H160.848L162.225 151.479H157.799Z" fill="#B3BECD"/>
<path d="M122 210.167H123.504L132.843 159.744L134.22 151.479H129.794L128.789 159.744L122 210.167Z" fill="#D9DFE6"/>
<path d="M128.789 159.744H132.843L134.219 151.479H129.794L128.789 159.744Z" fill="#B3BECD"/>
<path d="M124.387 155.359H192.803V148.151H167.19L158.583 110.61H126.994L124.387 155.359Z" fill="#D9DFE6"/>
<path d="M124.387 155.359H128.115L130.549 110.61H126.994L124.387 155.359Z" fill="#B3BECD"/>
<path d="M154.616 207.385C155.778 208.494 190.991 216.712 192.28 216.55C193.569 216.387 193.203 212.711 192.088 211.369C190.574 210.003 188.98 208.729 187.314 207.553C183.545 204.719 179.154 201.746 179.154 201.746L181.315 197.065L159.001 191.628C157.311 195.839 155.923 199.463 155.72 200.474C155.72 200.45 154.477 207.263 154.616 207.385Z" fill="#ECEFF2"/>
<path d="M192.408 216.649C191.078 216.788 155.563 208.831 154.407 207.67C153.96 207.234 154.819 202.001 156.039 195.706C156.039 195.642 156.039 195.572 156.08 195.508L179.044 200.387L178.951 200.776C178.951 200.776 191.176 209.894 192.309 211.305C193.441 212.717 193.714 216.515 192.408 216.649Z" fill="#96D3FF"/>
<path d="M192.286 215.185C186.333 213.698 162.184 208.256 156.185 207.234C156.138 207.234 156.132 207.234 156.185 207.269C162.05 208.877 186.246 214.122 192.274 215.283C192.408 215.307 192.408 215.214 192.286 215.185Z" fill="#39434F"/>
<path d="M181.553 201.026C179.294 200.056 176.326 199.771 174.16 201.026C174.073 201.078 174.16 201.194 174.23 201.188C176.643 200.968 179.073 201.007 181.478 201.304C181.508 201.3 181.537 201.287 181.56 201.267C181.583 201.246 181.6 201.22 181.608 201.19C181.616 201.16 181.615 201.129 181.605 201.099C181.596 201.07 181.578 201.045 181.553 201.026Z" fill="#39434F"/>
<path d="M183.023 202.431C180.769 201.461 177.796 201.176 175.629 202.431C175.542 202.483 175.629 202.599 175.699 202.593C178.112 202.375 180.542 202.412 182.947 202.704C182.978 202.701 183.007 202.689 183.031 202.669C183.055 202.65 183.072 202.623 183.08 202.594C183.088 202.564 183.087 202.532 183.077 202.503C183.067 202.474 183.048 202.449 183.023 202.431Z" fill="#39434F"/>
<path d="M184.492 203.831C182.238 202.867 179.265 202.582 177.099 203.831C177.011 203.883 177.099 203.999 177.168 203.993C179.581 203.772 182.011 203.809 184.416 204.104C184.446 204.099 184.473 204.085 184.495 204.065C184.517 204.045 184.532 204.02 184.54 203.991C184.548 203.963 184.548 203.932 184.539 203.904C184.531 203.876 184.514 203.85 184.492 203.831Z" fill="#39434F"/>
<path d="M185.769 196.583C185.131 195.102 183.278 195.287 182.111 195.891C180.124 196.965 178.455 198.544 177.273 200.468C177.266 200.476 177.262 200.485 177.261 200.495C177.259 200.505 177.26 200.515 177.264 200.524C177.267 200.534 177.273 200.542 177.281 200.548C177.289 200.555 177.298 200.559 177.307 200.561C177.294 200.606 177.292 200.654 177.302 200.701C177.311 200.747 177.331 200.791 177.361 200.828C177.39 200.865 177.428 200.894 177.472 200.913C177.515 200.933 177.562 200.941 177.61 200.938C179.718 200.66 182.006 200.613 183.963 199.696C185.102 199.155 186.373 197.982 185.769 196.583ZM180.717 199.858C179.683 200.021 178.649 200.137 177.621 200.34C178.544 199.42 179.513 198.548 180.525 197.727C181.018 197.338 181.536 196.983 182.076 196.664C182.918 196.182 185.996 195.45 184.98 197.936C184.439 199.306 181.954 199.661 180.717 199.858Z" fill="#39434F"/>
<path d="M171.418 198.511C173.161 199.771 175.42 200.253 177.435 200.892C177.481 200.903 177.529 200.903 177.575 200.892C177.621 200.881 177.664 200.86 177.7 200.829C177.737 200.799 177.765 200.76 177.784 200.717C177.802 200.673 177.81 200.626 177.807 200.579C177.842 200.579 177.877 200.538 177.859 200.491C177.048 198.384 175.695 196.527 173.939 195.108C172.899 194.3 171.111 193.783 170.21 195.108C169.31 196.432 170.396 197.773 171.418 198.511ZM170.733 196.594C170.21 193.969 173.103 195.247 173.846 195.874C174.319 196.289 174.764 196.735 175.176 197.21C176.014 198.199 176.801 199.23 177.534 200.3C176.564 199.911 175.565 199.614 174.584 199.266C173.405 198.848 171.023 198.046 170.733 196.594Z" fill="#39434F"/>
<path opacity="0.2" d="M182.023 214.61C187.605 215.83 191.932 216.701 192.379 216.654C193.715 216.521 193.418 212.711 192.286 211.305C190.816 209.917 189.264 208.618 187.64 207.414L182.023 214.61Z" fill="#39434F"/>
<path d="M180.682 200.956L156.237 195.194C156.237 195.194 176.634 148.436 174.822 146.06C173.922 144.87 151.161 144.521 143.924 138.388C134.521 130.42 140.829 118.247 140.829 118.247L166.273 117.498C166.273 117.498 165.965 122.806 166.958 123.602C167.608 124.136 197.896 126.686 201.224 136.89C205.301 149.406 180.682 200.956 180.682 200.956Z" fill="#39434F"/>
<path d="M180.67 197.175C180.031 196.873 173.701 195.014 172.278 194.654C169.421 193.922 166.552 193.202 163.677 192.546C162.173 192.203 158.955 191.46 158.758 191.495C158.665 191.495 158.647 191.669 158.758 191.698C161.545 192.616 164.374 193.394 167.202 194.184C170.03 194.974 179.77 197.314 180.624 197.372C180.688 197.378 180.792 197.216 180.67 197.175Z" fill="#39434F"/>
<path d="M179.19 143.952C178.612 143.596 177.951 143.396 177.273 143.371L166.238 141.53C162.806 140.949 159.35 140.444 155.935 139.788C153.107 139.242 150.226 138.504 147.804 136.971C145.408 135.464 143.633 133.145 142.804 130.437C142.03 127.717 141.811 124.869 142.159 122.063C142.223 121.377 142.351 120.698 142.479 120.024C142.479 119.972 142.403 119.954 142.397 120.024C141.462 125.251 141.381 131.268 145.301 135.42C147.206 137.442 149.82 138.626 152.485 139.399C155.53 140.174 158.617 140.773 161.731 141.193L172.766 143.029C174.509 143.325 176.326 143.551 178.08 143.917C178.432 143.963 178.763 144.111 179.033 144.341C179.162 144.524 179.244 144.735 179.271 144.957C179.299 145.179 179.271 145.405 179.19 145.613C179.015 146.479 178.777 147.355 178.533 148.18C176.53 155.016 161.743 189.88 161.348 190.629C161.343 190.645 161.343 190.662 161.349 190.678C161.356 190.693 161.367 190.706 161.382 190.713C161.397 190.721 161.413 190.723 161.43 190.72C161.446 190.716 161.46 190.707 161.47 190.693C164.839 184.7 175.902 157.258 178.127 150.794C178.713 149.149 179.194 147.469 179.567 145.764C179.631 145.102 179.73 144.411 179.19 143.952Z" fill="#39434F"/>
<path d="M228.637 218.089C227.405 218.501 192.152 218.008 190.81 217.148C189.341 215.748 188.714 182.487 188.714 182.487L211.393 182.301L212.81 206.183C212.81 206.183 217.706 208.221 221.969 210.248C223.835 211.071 225.651 212.003 227.405 213.042C228.782 214.14 229.868 217.682 228.637 218.089Z" fill="#FFC4C0"/>
<path d="M189.33 202.164C189.666 209.639 190.148 216.533 190.805 217.148C192.146 218.008 227.394 218.507 228.637 218.089C229.88 217.671 228.782 214.146 227.417 213.054C225.661 212.014 223.844 211.081 221.975 210.26C217.712 208.233 212.816 206.195 212.816 206.195L212.578 202.176L189.33 202.164Z" fill="#ECEFF2"/>
<path d="M229.363 218.112C228.085 218.536 191.693 218.362 190.317 217.473C189.783 217.148 189.498 211.851 189.341 205.439V205.236L212.816 205.091V205.486C212.816 205.486 226.714 211.776 228.132 212.908C229.549 214.041 230.635 217.7 229.363 218.112Z" fill="#96D3FF"/>
<path d="M228.956 216.701C222.823 216.521 198.064 216.375 191.989 216.66C191.937 216.66 191.937 216.701 191.989 216.701C198.064 217.014 222.823 216.956 228.956 216.805C229.084 216.811 229.084 216.707 228.956 216.701Z" fill="#39434F"/>
<path d="M215.43 205.196C213.02 204.737 210.063 205.091 208.211 206.799C208.141 206.868 208.211 206.967 208.315 206.944C210.627 206.212 213.01 205.729 215.424 205.504C215.46 205.497 215.492 205.479 215.516 205.451C215.54 205.423 215.553 205.388 215.554 205.352C215.554 205.316 215.542 205.28 215.52 205.252C215.497 205.223 215.465 205.203 215.43 205.196Z" fill="#39434F"/>
<path d="M217.172 206.224C214.756 205.765 211.806 206.119 209.953 207.826C209.878 207.896 209.953 207.995 210.052 207.972C212.363 207.24 214.746 206.757 217.161 206.531C217.197 206.526 217.23 206.508 217.254 206.481C217.278 206.454 217.292 206.419 217.294 206.382C217.295 206.346 217.284 206.31 217.261 206.281C217.239 206.252 217.208 206.232 217.172 206.224Z" fill="#39434F"/>
<path d="M218.909 207.281C216.493 206.822 213.543 207.176 211.69 208.884C211.614 208.953 211.69 209.052 211.789 209.029C214.1 208.297 216.483 207.814 218.897 207.588C218.933 207.583 218.966 207.565 218.991 207.538C219.015 207.511 219.029 207.476 219.03 207.439C219.032 207.403 219.02 207.367 218.998 207.338C218.976 207.309 218.945 207.289 218.909 207.281Z" fill="#39434F"/>
<path d="M218.595 199.928C217.654 198.616 215.883 199.196 214.872 200.038C213.163 201.511 211.871 203.408 211.126 205.538C211.123 205.548 211.121 205.558 211.122 205.569C211.124 205.579 211.127 205.589 211.133 205.597C211.139 205.606 211.146 205.613 211.155 205.618C211.164 205.623 211.174 205.625 211.185 205.626C211.182 205.673 211.19 205.72 211.21 205.763C211.229 205.807 211.258 205.845 211.295 205.874C211.332 205.904 211.376 205.924 211.422 205.933C211.469 205.943 211.517 205.941 211.562 205.928C213.56 205.202 215.784 204.673 217.498 203.355C218.497 202.582 219.49 201.165 218.595 199.928ZM214.367 204.208C213.391 204.592 212.404 204.923 211.463 205.341C212.16 204.247 212.914 203.19 213.723 202.176C214.118 201.688 214.547 201.228 215.006 200.799C215.726 200.149 218.578 198.772 218.142 201.415C217.881 202.873 215.523 203.755 214.367 204.208Z" fill="#39434F"/>
<path d="M204.999 204.882C206.979 205.736 209.268 205.707 211.388 205.922C211.608 205.922 211.719 205.712 211.684 205.532C211.691 205.526 211.697 205.519 211.701 205.51C211.705 205.502 211.707 205.492 211.707 205.483C211.707 205.474 211.705 205.464 211.701 205.456C211.697 205.447 211.691 205.44 211.684 205.434C210.439 203.551 208.72 202.029 206.701 201.02C205.51 200.439 203.657 200.329 203.065 201.827C202.473 203.325 203.837 204.382 204.999 204.882ZM203.913 203.14C202.838 200.683 205.94 201.316 206.817 201.769C207.367 202.072 207.897 202.412 208.402 202.785C209.434 203.573 210.424 204.412 211.37 205.3C210.336 205.132 209.303 205.056 208.263 204.923C207.008 204.783 204.505 204.51 203.913 203.157V203.14Z" fill="#39434F"/>
<path d="M214.071 205.364H188.517C188.517 205.364 188.836 159.209 186.832 156.654C184.161 153.239 146.758 153.314 138.738 142.187C131.536 132.186 137.617 118.038 137.617 118.038L165.942 117.196C165.302 120.23 164.424 123.209 163.316 126.105C163.316 126.105 197.431 132.395 206.991 142.843C213.415 149.905 214.071 205.364 214.071 205.364Z" fill="#39434F"/>
<path d="M168.27 124.171C167.449 124.353 166.646 124.61 165.872 124.938C165.059 125.251 164.257 125.6 163.473 125.983C161.936 126.746 160.441 127.592 158.995 128.515C158.949 128.515 158.995 128.602 159.042 128.579C160.569 127.784 162.155 127.069 163.74 126.39L166.029 125.402C166.821 125.104 167.596 124.763 168.352 124.38C168.372 124.365 168.387 124.344 168.394 124.319C168.402 124.294 168.4 124.268 168.391 124.244C168.382 124.221 168.365 124.201 168.343 124.187C168.321 124.174 168.296 124.168 168.27 124.171Z" fill="#39434F"/>
<path d="M166.575 117.19C166.25 118.479 165.994 119.78 165.593 121.064C165.425 121.645 165.256 122.226 165.012 122.806C164.827 123.283 164.542 123.834 163.984 123.939C163.427 124.043 163.16 123.515 163.212 122.986C163.264 122.458 163.421 121.825 163.537 121.244C163.671 120.576 163.81 119.902 163.932 119.234C163.99 118.898 164.054 118.561 164.112 118.224C164.112 118.137 164.188 117.492 164.234 117.306C164.234 117.306 164.234 117.341 164.269 117.335C164.269 117.335 164.31 117.335 164.31 117.3C164.31 117.266 164.31 117.237 164.275 117.202C164.24 117.167 164.24 117.202 164.217 117.202C164.095 117.271 164.089 117.44 164.048 117.562C163.944 117.887 163.839 118.218 163.741 118.543C163.561 119.159 163.386 119.78 163.229 120.402C163.073 121.023 162.922 121.645 162.771 122.266C162.608 122.726 162.564 123.219 162.643 123.701C162.701 123.93 162.831 124.134 163.014 124.283C163.197 124.433 163.423 124.52 163.659 124.531L163.59 124.653C163.531 124.781 163.491 124.915 163.444 125.048C163.398 125.182 163.351 125.315 163.311 125.449C163.294 125.516 163.282 125.584 163.276 125.652C163.276 125.728 163.276 125.797 163.276 125.873C163.276 125.948 163.421 126.059 163.479 125.948C163.516 125.884 163.557 125.822 163.601 125.762C163.639 125.694 163.67 125.622 163.694 125.548C163.735 125.42 163.775 125.292 163.804 125.158C163.833 125.025 163.88 124.897 163.903 124.764C163.909 124.684 163.909 124.605 163.903 124.525C164.175 124.503 164.434 124.404 164.652 124.241C165.015 123.935 165.283 123.532 165.425 123.079C165.616 122.545 165.767 121.987 165.918 121.436C166.317 120.077 166.593 118.685 166.743 117.277C166.819 117.091 166.61 117.039 166.575 117.19Z" fill="#39434F"/>
<path d="M149.732 120.35C149.616 120.988 149.54 121.639 149.389 122.272C149.238 122.905 149.076 123.515 148.872 124.119C148.689 124.709 148.423 125.27 148.083 125.786C147.728 126.27 147.306 126.7 146.828 127.063C145.914 127.787 144.888 128.356 143.791 128.748C143.24 128.947 142.678 129.112 142.106 129.241C141.81 129.311 141.526 129.363 141.206 129.404C140.956 129.41 140.709 129.465 140.48 129.567C140.459 129.58 140.441 129.599 140.428 129.621C140.416 129.644 140.41 129.669 140.41 129.694C140.41 129.72 140.416 129.745 140.428 129.767C140.441 129.79 140.459 129.808 140.48 129.822C140.917 129.949 141.378 129.963 141.822 129.863C142.305 129.812 142.784 129.729 143.256 129.613C144.211 129.356 145.124 128.965 145.969 128.451C146.836 127.978 147.614 127.357 148.268 126.616C148.872 125.837 149.288 124.929 149.482 123.962C149.782 122.786 149.915 121.574 149.877 120.361C149.848 120.291 149.744 120.28 149.732 120.35Z" fill="#39434F"/>
<path d="M192.17 173.351C191.918 169.332 191.585 165.323 191.171 161.323C191.066 160.336 190.967 159.343 190.845 158.361C190.775 157.592 190.607 156.835 190.346 156.108C189.765 154.604 188.505 153.843 186.989 153.466C185.2 153.013 183.348 152.74 181.53 152.449C179.712 152.159 177.801 151.868 175.931 151.619C172.15 151.09 168.381 150.602 164.6 149.969C160.844 149.373 157.129 148.539 153.478 147.472C150.133 146.461 146.7 145.213 144.023 142.895C138.256 137.906 138.047 129.537 138.75 122.568C138.848 121.581 138.97 120.599 139.092 119.612C139.092 119.56 139.017 119.542 139.011 119.612C138.558 123.55 138.024 127.516 138.43 131.483C138.682 134.767 139.765 137.933 141.578 140.683C143.529 143.476 146.422 145.282 149.54 146.543C152.981 147.869 156.532 148.889 160.151 149.592C167.626 151.16 175.252 151.822 182.773 153.105C183.702 153.262 184.625 153.431 185.549 153.611C186.408 153.741 187.249 153.967 188.058 154.284C189.765 155.045 190.236 156.706 190.445 158.425C190.938 162.41 191.269 166.417 191.56 170.424C192.141 178.491 192.448 186.605 192.437 194.695C192.437 195.694 192.437 199.057 192.437 200.056C192.437 200.143 192.57 200.131 192.57 200.056C192.785 191.902 192.681 181.442 192.17 173.351Z" fill="#39434F"/>
<path d="M212.874 201.351C207.066 200.956 190.421 201.118 190.224 201.2C190.137 201.24 190.16 201.397 190.253 201.403C193.157 201.612 212.003 201.711 212.845 201.56C212.938 201.542 212.973 201.357 212.874 201.351Z" fill="#39434F"/>
<path d="M163.468 126.21C168.696 126.836 173.863 127.895 178.917 129.375C184.011 130.806 188.994 132.61 193.825 134.77C196.537 135.984 199.162 137.343 201.759 138.772C201.811 138.801 201.759 138.876 201.712 138.853C197.017 136.427 192.167 134.314 187.193 132.529C182.263 130.733 177.218 129.27 172.092 128.149C169.188 127.522 166.285 127.034 163.381 126.552C163.218 126.488 163.27 126.157 163.468 126.21Z" fill="#39434F"/>
<path d="M188.383 166.975C188.203 164.198 187.913 161.422 187.46 158.669C187.274 157.56 187.227 156.126 186.06 155.574C185.52 155.312 174.683 153.431 173.126 153.46C173.11 153.461 173.095 153.467 173.083 153.477C173.07 153.487 173.062 153.501 173.058 153.517C173.054 153.532 173.055 153.549 173.061 153.563C173.067 153.578 173.078 153.591 173.091 153.599C173.236 153.663 183.545 155.609 184.846 155.922C185.126 155.943 185.399 156.02 185.647 156.15C185.896 156.28 186.116 156.459 186.292 156.677C186.54 157.242 186.688 157.845 186.728 158.46C187.597 163.857 188.078 169.309 188.168 174.774C188.211 176.292 188.236 177.804 188.244 179.31C188.244 180.867 188.191 182.441 188.308 183.986C188.308 184.019 188.321 184.052 188.345 184.076C188.369 184.1 188.402 184.113 188.435 184.113C188.469 184.113 188.502 184.1 188.526 184.076C188.55 184.052 188.563 184.019 188.563 183.986C188.679 182.58 188.639 181.146 188.644 179.734C188.65 178.323 188.644 176.9 188.644 175.477C188.639 172.637 188.575 169.803 188.383 166.975Z" fill="#39434F"/>
<path d="M164.623 91.6706C171.947 101.41 189.341 115.105 193.424 111.917C198.442 108.002 197.49 93.5988 197.617 91.7461C197.728 89.7656 181.274 90.2651 181.936 92.2862C182.325 93.4826 182.517 94.7661 182.198 94.6442C181.228 94.2608 179.073 92.321 169.728 87.094C164.53 84.1727 159.774 85.2239 164.623 91.6706Z" fill="#FFC4C0"/>
<path d="M179.631 92.2281L175.78 96.0089L170.948 100.748C170.948 100.748 165.448 95.4165 163.067 91.02C161.325 87.7851 161.267 85.0554 162.997 84.463C163.86 84.2465 164.77 84.3326 165.576 84.707C171.808 87.0359 179.631 92.2281 179.631 92.2281Z" fill="#96D3FF"/>
<path d="M177.383 91.2407C175.844 92.6462 170.269 97.8557 169.833 98.7908C169.833 98.7908 169.874 98.8605 169.897 98.8547C170.803 98.4133 176.065 92.8901 177.476 91.3626C177.499 91.3046 177.412 91.2174 177.383 91.2407Z" fill="#39434F"/>
<path d="M175.78 96.0088L170.948 100.748C170.948 100.748 165.448 95.4164 163.067 91.0199C161.325 87.785 161.267 85.0553 162.997 84.4629L175.78 96.0088Z" fill="#39434F"/>
<path d="M197.635 82.9357C198.564 86.0893 197.943 93.2852 197.13 94.9637C196.317 96.6421 184.039 95.9974 182.947 94.4177C181.855 92.838 179.544 81.9774 180.816 78.8703C182.088 75.7631 196.659 79.6659 197.635 82.9357Z" fill="#FFC4C0"/>
<path d="M183.551 71.8021C183.022 70.3734 180.444 66.2789 179.201 66.7551C177.958 67.2313 179.067 70.4721 179.555 71.773C180.571 74.4504 180.537 78.4055 180.49 80.3221C180.444 82.2387 184.921 80.3221 184.921 80.3221C184.921 80.3221 184.933 75.5133 183.551 71.8021Z" fill="#FFC4C0"/>
<path d="M181.745 83.0285C181.745 83.0285 181.571 86.4028 183.365 87.0939C185.16 87.7851 185.787 85.0844 185.839 84.8986C185.839 85.0728 185.752 88.18 187.634 88.6969C189.516 89.2138 189.818 86.4318 189.829 86.2518C189.876 86.4202 190.52 88.6736 192.03 88.7433C194.638 88.8595 193.151 83.0575 194.301 81.2861C194.301 81.2861 197.525 82.8949 197.623 82.9239C197.623 82.9239 196.322 77.3717 193.854 75.9546C193.498 75.7419 193.079 75.6576 192.668 75.7157C192.257 75.7738 191.878 75.9708 191.595 76.274C191.595 76.274 191.374 74.4387 189.905 73.9857C189.156 73.7534 188.116 74.7524 188.116 74.7524C188.044 74.3397 187.859 73.9548 187.583 73.6402C187.306 73.3257 186.948 73.0935 186.548 72.9694C185.491 72.708 184.469 73.7302 184.225 74.1832C182.198 77.6737 181.745 83.0285 181.745 83.0285Z" fill="#FFC4C0"/>
<path d="M188.116 74.7118C188.116 74.6827 188.075 74.6537 188.052 74.7118C186.073 77.7524 185.249 81.4014 185.729 84.9974C185.729 85.1251 185.897 85.2123 185.88 85.0671C185.665 82.5929 186.855 77.4646 188.116 74.7118Z" fill="#39434F"/>
<path d="M189.957 86.5018C189.527 82.9823 190.265 79.6776 191.513 76.3962C191.513 76.3497 191.467 76.3323 191.444 76.3614C190.398 77.8075 189.818 79.9796 189.516 81.7162C189.198 83.3174 189.308 84.974 189.835 86.5192C189.858 86.5773 189.969 86.5773 189.957 86.5018Z" fill="#39434F"/>
<path d="M181.745 83.0288C181.771 83.6779 181.857 84.3233 182 84.957C182.116 85.5797 182.395 86.1607 182.808 86.6412C183.008 86.85 183.279 86.9764 183.568 86.9955C183.861 87.0141 184.153 86.956 184.416 86.8271C184.668 86.6791 184.886 86.4794 185.055 86.2412C185.224 86.0029 185.341 85.7315 185.398 85.4448L185.74 84.051L185.903 85.4739C185.969 86.1076 186.139 86.7259 186.408 87.3033C186.517 87.5768 186.682 87.8245 186.892 88.0306C187.102 88.2367 187.353 88.3965 187.628 88.4997C187.886 88.5909 188.167 88.5911 188.425 88.5002C188.683 88.4093 188.902 88.2329 189.045 88.0003C189.357 87.4716 189.529 86.8718 189.545 86.2579L189.649 84.5678L190.102 86.1882C190.229 86.641 190.413 87.0762 190.648 87.4834C190.857 87.876 191.179 88.1975 191.572 88.4068C191.751 88.4956 191.952 88.5319 192.152 88.5113C192.351 88.4908 192.54 88.4143 192.698 88.2906C193.011 87.9708 193.225 87.5675 193.314 87.1291C193.523 86.1732 193.655 85.2022 193.709 84.2252C193.755 83.7315 193.802 83.2379 193.871 82.7442C193.911 82.2445 194.057 81.7592 194.301 81.3213C194.11 81.7776 194.009 82.2668 194.005 82.7616C193.976 83.2495 193.97 83.7431 193.964 84.2426C193.973 85.2452 193.889 86.2464 193.715 87.2336C193.627 87.7711 193.385 88.2715 193.018 88.674C192.793 88.8698 192.517 88.9961 192.222 89.0374C191.927 89.0786 191.626 89.0331 191.357 88.9063C190.867 88.6562 190.462 88.266 190.195 87.7854C189.924 87.3388 189.713 86.8584 189.568 86.3566L190.149 86.2928C190.137 87.0187 189.937 87.7291 189.568 88.3545C189.353 88.6961 189.027 88.9527 188.644 89.0805C188.266 89.198 187.861 89.198 187.483 89.0805C187.132 88.9529 186.813 88.7522 186.545 88.4919C186.278 88.2316 186.069 87.9176 185.932 87.5705C185.652 86.9287 185.476 86.2465 185.409 85.5494L185.915 85.5842C185.831 85.9374 185.672 86.2681 185.447 86.5531C185.222 86.8381 184.938 87.0703 184.614 87.2336C184.278 87.3743 183.913 87.4282 183.551 87.3904C183.184 87.3444 182.845 87.167 182.598 86.891C182.18 86.3512 181.921 85.7056 181.849 85.0267C181.739 84.3667 181.704 83.6965 181.745 83.0288Z" fill="#39434F"/>
<path d="M182.215 92.6404C182.215 92.6404 173.317 81.8843 179.224 80.444C180.966 80.02 188.69 80.3859 188.65 81.9366C188.592 83.9345 185.345 84.3875 183.26 84.341C183.26 84.341 186.803 87.576 185.287 90.7296C184.999 91.2988 184.56 91.778 184.018 92.115C183.477 92.4519 182.853 92.6336 182.215 92.6404Z" fill="#FFC4C0"/>
<path d="M178.742 80.6123C179.41 80.3659 180.111 80.2191 180.821 80.1767C181.532 80.1148 182.246 80.0992 182.959 80.1303C184.388 80.1769 185.81 80.3479 187.21 80.6413C187.582 80.7165 187.94 80.8477 188.273 81.0305C188.467 81.1331 188.636 81.278 188.766 81.4544C188.837 81.5519 188.892 81.6596 188.929 81.7739C188.959 81.8875 188.973 82.0048 188.97 82.1223C188.952 82.5545 188.781 82.9664 188.488 83.2839C188.213 83.5645 187.893 83.7963 187.541 83.9692C186.871 84.2823 186.152 84.4787 185.415 84.55C184.7 84.6291 183.98 84.6563 183.261 84.6313L183.423 84.1957C183.815 84.5792 184.169 84.9993 184.48 85.4502C184.791 85.8953 185.058 86.37 185.276 86.8673C185.486 87.3679 185.623 87.896 185.683 88.4354C185.74 88.9714 185.695 89.5136 185.549 90.0326C185.625 89.5116 185.613 88.9816 185.514 88.4644C185.409 87.9545 185.233 87.4619 184.991 87.0009C184.757 86.5363 184.477 86.0966 184.155 85.6883C183.836 85.2845 183.482 84.9094 183.098 84.5674L182.616 84.1551H183.266C183.96 84.1536 184.653 84.105 185.34 84.0099C186.011 83.9317 186.666 83.7474 187.28 83.4639C187.86 83.1735 188.372 82.6973 188.377 82.1514C188.383 81.6054 187.709 81.3847 187.071 81.2163C186.395 81.0465 185.71 80.9128 185.02 80.8156C184.329 80.7052 183.632 80.6007 182.935 80.5368C181.542 80.344 180.128 80.3695 178.742 80.6123Z" fill="#39434F"/>
<path d="M182.198 94.644L182.68 96.0205L183.144 97.4027L184.085 100.15C184.399 101.067 184.718 101.979 185.055 102.885C185.224 103.338 185.392 103.791 185.578 104.239C185.764 104.686 185.955 105.133 186.159 105.586C185.625 104.768 185.157 103.91 184.759 103.019C184.352 102.13 184.01 101.213 183.685 100.295C183.359 99.3774 183.104 98.4423 182.842 97.5015C182.581 96.5606 182.349 95.6081 182.198 94.644Z" fill="#39434F"/>
<path d="M169.723 124.943C168.851 125.64 134.359 126.029 134.214 125.786C133.819 125.123 143.175 93.6568 157.88 83.8765C160.471 82.1341 164.42 83.3479 166.128 84.6837C166.987 85.3574 169.479 90.4509 169.821 94.6151C170.164 98.7793 170.274 124.496 169.723 124.943Z" fill="#96D3FF"/>
<path d="M170.106 112.015V112.271C169.943 112.172 169.775 112.062 169.618 111.946C168.368 110.969 167.289 109.791 166.424 108.461C165.518 107.177 164.682 105.836 163.88 104.512C162.764 102.621 161.477 100.836 160.035 99.1801L159.855 98.9884C159.283 98.3892 158.662 97.8393 157.997 97.3448C156.749 96.4301 155.307 95.8163 153.782 95.5513C152.258 95.2864 150.693 95.3774 149.21 95.8174C147.916 96.2425 146.727 96.9395 145.725 97.8617L146.149 97.1532C147.035 96.4459 148.04 95.903 149.117 95.5502C150.641 95.0919 152.252 94.9925 153.821 95.2598C155.392 95.5477 156.872 96.2023 158.142 97.1706C158.871 97.7148 159.547 98.3253 160.163 98.9943C160.227 99.0639 160.291 99.1278 160.349 99.1975C161.743 100.827 162.991 102.576 164.078 104.425C164.902 105.755 165.71 107.09 166.604 108.368C167.455 109.667 168.512 110.819 169.734 111.777C169.868 111.859 169.984 111.94 170.106 112.015ZM166.854 113.502C165.213 113.447 163.601 113.051 162.12 112.341C159.129 110.918 156.725 108.566 154.326 106.295C153.455 105.47 152.584 104.645 151.672 103.867L151.527 103.739C151.225 103.484 150.946 103.234 150.598 102.99C149.302 101.92 147.787 101.147 146.161 100.725C145.527 100.58 144.876 100.521 144.227 100.551L144.093 100.783C144.771 100.738 145.452 100.793 146.114 100.946C147.705 101.367 149.186 102.13 150.453 103.182C150.755 103.414 151.033 103.652 151.335 103.896C151.388 103.935 151.439 103.978 151.486 104.024C152.404 104.802 153.281 105.644 154.158 106.475C156.545 108.751 158.961 111.121 161.998 112.585C163.512 113.323 165.165 113.735 166.848 113.793C167.944 113.821 169.04 113.706 170.106 113.45C170.106 113.351 170.106 113.258 170.106 113.159C169.042 113.415 167.948 113.531 166.854 113.502ZM170.083 105.371C169.729 104.79 169.363 104.21 168.974 103.629C168.101 102.308 166.995 101.157 165.71 100.231C164.381 99.3411 162.808 98.8864 161.209 98.9304C160.866 98.9304 160.529 98.9304 160.186 98.9884L159.861 99.0291C159.523 99.0737 159.188 99.1357 158.856 99.2149C158.093 99.4163 157.351 99.6945 156.644 100.045C154.8 101.068 153.082 102.304 151.527 103.728C151.463 103.78 151.399 103.838 151.335 103.884C150.615 104.506 149.889 105.116 149.146 105.691C147.928 106.665 146.596 107.488 145.179 108.142C143.753 108.772 142.224 109.138 140.666 109.222C140.422 109.222 140.184 109.222 139.946 109.222C139.946 109.274 139.9 109.326 139.882 109.379L140.678 109.35C142.252 109.268 143.799 108.902 145.243 108.269C146.673 107.613 148.021 106.788 149.256 105.813C150.017 105.232 150.755 104.61 151.486 103.989L151.672 103.832C153.21 102.427 154.91 101.21 156.737 100.208C157.431 99.8648 158.159 99.5943 158.909 99.4008C159.291 99.3084 159.679 99.2405 160.07 99.1975H160.401C160.68 99.1685 160.982 99.1569 161.238 99.1511C162.792 99.1165 164.319 99.5627 165.611 100.429C166.87 101.34 167.953 102.474 168.805 103.774C169.27 104.442 169.7 105.127 170.118 105.83C170.083 105.667 170.083 105.505 170.077 105.348L170.083 105.371Z" fill="white"/>
<path d="M165.889 90.66C163.868 90.5729 161.435 86.7513 160.813 84.0449C160.773 83.859 163.264 77.6157 163.63 76.3263C163.706 76.065 171.18 80.5893 171.18 80.5893C170.262 82.0678 169.528 83.6536 168.997 85.311C168.927 85.4968 167.847 90.7471 165.889 90.66Z" fill="#FFC4C0"/>
<path d="M163.885 76.396C163.705 78.5855 163.659 84.405 168.026 85.7582C168.29 85.8382 168.56 85.8964 168.834 85.9324C168.921 85.5781 168.973 85.3516 168.979 85.3052C169.511 83.6499 170.245 82.0661 171.163 80.5892C171.125 80.5591 171.084 80.5338 171.041 80.5137C170.988 80.4731 170.919 80.4382 170.837 80.386L170.75 80.3337C170.704 80.2988 170.646 80.2698 170.588 80.2349L170.379 80.1072L170.03 79.9039L169.902 79.8226L169.635 79.66L168.578 79.0327L168.177 78.7946C168.003 78.6959 167.829 78.5972 167.661 78.4868L167.144 78.1906L167.08 78.1558L166.203 77.6447L165.912 77.4762L165.332 77.1626L164.954 76.9535L164.211 76.5586L164.042 76.4773L163.885 76.396Z" fill="#39434F"/>
<path d="M166.232 66.6215C164.327 69.084 162.747 77.6563 164.054 80.2292C165.942 83.9171 170.553 85.9499 174.073 83.3364C177.488 80.8042 179.346 69.5603 177.749 67.0745C175.397 63.4853 169.049 62.9858 166.232 66.6215Z" fill="#FFC4C0"/>
<path d="M171.958 74.8569C171.958 74.8569 171.906 74.8569 171.906 74.8976C171.778 75.4784 171.534 76.1405 170.959 76.2043V76.2392C171.622 76.3089 171.935 75.4377 171.958 74.8569Z" fill="#39434F"/>
<path d="M171.592 74.1194C170.669 73.8174 170.129 75.6817 171.012 75.9663C171.894 76.2509 172.365 74.3749 171.592 74.1194Z" fill="#39434F"/>
<path d="M175.269 75.5537C175.269 75.5537 175.309 75.5944 175.269 75.6176C175.083 76.1984 174.961 76.8721 175.426 77.2205C175.426 77.2205 175.426 77.2612 175.426 77.2205C174.827 76.9708 174.984 76.0648 175.269 75.5537Z" fill="#39434F"/>
<path d="M175.966 75.101C176.913 75.3101 176.431 77.1918 175.554 77.0002C174.677 76.8085 175.17 74.9326 175.966 75.101Z" fill="#39434F"/>
<path d="M170.338 79.6077C170.431 79.7877 170.507 80.0142 170.704 80.1013C170.917 80.1716 171.144 80.1934 171.366 80.1652C171.366 80.1652 171.401 80.1943 171.366 80.2059C171.246 80.2898 171.106 80.3401 170.96 80.3513C170.814 80.3625 170.667 80.3344 170.536 80.2698C170.43 80.1999 170.347 80.1004 170.297 79.9837C170.248 79.8669 170.234 79.7382 170.257 79.6135C170.257 79.6081 170.257 79.6028 170.259 79.5977C170.261 79.5926 170.263 79.5879 170.267 79.5839C170.27 79.5798 170.275 79.5765 170.279 79.5741C170.284 79.5717 170.289 79.5703 170.295 79.5699C170.3 79.5695 170.305 79.5702 170.311 79.5719C170.316 79.5736 170.32 79.5763 170.324 79.5798C170.328 79.5833 170.332 79.5876 170.334 79.5923C170.337 79.5971 170.338 79.6023 170.338 79.6077Z" fill="#39434F"/>
<path d="M173.649 78.0047C173.649 78.0047 173.527 78.9049 173.417 79.3114C172.615 79.0985 171.789 78.9949 170.96 79.0036C170.762 79.0036 170.803 78.8642 171.041 78.8004C171.738 78.6061 172.476 78.6264 173.161 78.8584C173.225 78.7539 173.324 77.4704 173.388 77.4878C173.698 77.6025 173.991 77.7588 174.259 77.9524C174.561 76.0881 174.567 74.1832 174.898 72.3305C174.901 72.3188 174.909 72.3087 174.919 72.3016C174.929 72.2944 174.94 72.2905 174.953 72.2905C174.965 72.2905 174.977 72.2944 174.987 72.3016C174.997 72.3087 175.004 72.3188 175.008 72.3305C175.069 74.3667 174.925 76.4039 174.578 78.4112C174.549 78.661 173.823 78.1208 173.649 78.0047Z" fill="#39434F"/>
<path d="M170.919 72.5687C171.186 72.5281 171.436 72.5281 171.703 72.5106C171.978 72.4551 172.263 72.4898 172.516 72.6094C172.588 72.663 172.64 72.7387 172.664 72.8248C172.688 72.9109 172.683 73.0026 172.65 73.0856C172.559 73.2391 172.428 73.3656 172.272 73.4523C172.116 73.539 171.94 73.5828 171.761 73.5793C171.398 73.628 171.03 73.5412 170.728 73.3354C170.66 73.2845 170.61 73.215 170.582 73.1357C170.554 73.0563 170.55 72.9705 170.57 72.8888C170.591 72.8072 170.635 72.7333 170.697 72.6764C170.759 72.6195 170.836 72.5821 170.919 72.5687Z" fill="#39434F"/>
<path d="M177.598 73.068C177.4 72.8941 177.192 72.7312 176.976 72.5801C176.784 72.3786 176.531 72.2459 176.256 72.2026C176.167 72.2047 176.081 72.2368 176.013 72.2937C175.944 72.3506 175.897 72.4291 175.879 72.5163C175.866 72.6949 175.901 72.8738 175.98 73.0342C176.06 73.1946 176.181 73.3307 176.332 73.4281C176.604 73.6739 176.958 73.8086 177.325 73.8056C177.408 73.8005 177.488 73.7714 177.555 73.7217C177.622 73.672 177.673 73.6039 177.702 73.5258C177.731 73.4476 177.736 73.3627 177.718 73.2814C177.699 73.2002 177.658 73.126 177.598 73.068Z" fill="#39434F"/>
<path d="M168.224 73.9392C168.938 74.2122 169.072 72.7196 169.107 72.1969C169.194 71.6596 169.328 71.1309 169.508 70.6172C169.297 71.1201 169.041 71.6023 168.741 72.0575C168.41 72.4583 167.51 73.6547 168.224 73.9392Z" fill="white"/>
<path d="M163.41 74.8686C163.41 74.8686 162.045 68.8169 163.299 66.0001C163.88 64.7282 165.954 64.4436 165.954 64.4436C165.995 63.8609 166.199 63.3016 166.542 62.8285C166.885 62.3555 167.353 61.9875 167.893 61.7662C169.938 60.8195 173.597 62.4109 173.597 62.4109C173.597 62.4109 177.215 59.6986 180.2 62.2483C183.185 64.7979 179.619 67.9689 179.619 67.9689C179.619 67.9689 180.287 70.1875 176.715 70.5592C173.231 70.9251 167.527 67.5159 167.527 67.5159C167.106 69.7333 166.354 71.875 165.297 73.8697C165.105 74.1935 164.827 74.4581 164.494 74.6343C164.161 74.8105 163.786 74.8916 163.41 74.8686Z" fill="#39434F"/>
<path d="M174.177 62.6548C173.51 62.0844 172.733 61.6573 171.894 61.4003C171.149 61.1364 170.362 61.0047 169.571 61.0112C168.875 60.9761 168.183 61.1317 167.569 61.4613C166.955 61.7909 166.442 62.2819 166.087 62.8813C165.924 63.1991 165.826 63.5462 165.799 63.9022C165.772 64.2582 165.817 64.616 165.93 64.9547C165.93 64.9837 165.982 64.9547 165.97 64.9547C165.506 63.6944 166.441 62.3005 167.539 61.7488C168.833 61.2123 170.279 61.1668 171.604 61.621C172.465 61.892 173.29 62.2664 174.061 62.7361C174.066 62.7437 174.073 62.7502 174.081 62.7552C174.088 62.7602 174.097 62.7637 174.106 62.7653C174.116 62.7669 174.125 62.7667 174.134 62.7647C174.143 62.7627 174.152 62.7589 174.159 62.7535C174.167 62.7482 174.174 62.7414 174.179 62.7336C174.184 62.7257 174.187 62.7169 174.189 62.7078C174.19 62.6986 174.19 62.6892 174.188 62.6801C174.186 62.671 174.182 62.6624 174.177 62.6548Z" fill="#39434F"/>
<path d="M182.116 64.7458C182.109 64.2337 181.975 63.7314 181.728 63.2828C181.481 62.8343 181.128 62.4532 180.699 62.1729C179.735 61.4876 178.57 61.1442 177.389 61.1972C176.2 61.2539 175.049 61.629 174.055 62.2833C174.055 62.2833 174.055 62.3356 174.055 62.3239C174.945 61.7529 175.973 61.4327 177.03 61.3969C178.087 61.3611 179.134 61.6112 180.06 62.1207C180.5 62.3176 180.883 62.6206 181.176 63.0025C181.469 63.3843 181.662 63.8329 181.739 64.3081C181.815 64.7832 181.773 65.2699 181.615 65.7245C181.456 66.179 181.188 66.5871 180.833 66.9121C180.002 67.6738 178.973 68.1869 177.865 68.3931C177.865 68.3931 177.865 68.4396 177.865 68.4337C178.897 68.2957 179.877 67.8958 180.711 67.2722C181.112 66.9762 181.446 66.5975 181.688 66.1616C181.93 65.7258 182.077 65.243 182.116 64.7458Z" fill="#39434F"/>
<path d="M177.424 70.9772C175.86 71.0708 174.294 70.8313 172.83 70.2745C171.3 69.7167 169.836 68.9943 168.463 68.1198C167.661 67.6203 166.877 67.086 166.105 66.54C166.105 66.54 166.058 66.54 166.105 66.5807C167.393 67.7275 168.799 68.7358 170.298 69.5891C171.699 70.366 173.237 70.863 174.828 71.0527C175.701 71.1495 176.583 71.1359 177.453 71.012C177.453 71.012 177.447 70.9714 177.424 70.9772Z" fill="#39434F"/>
<path d="M165.471 73.829C165.471 73.829 164.571 70.5534 163.148 70.7857C161.725 71.018 161.748 75.3042 162.962 76.3206C163.106 76.4598 163.276 76.5689 163.463 76.6415C163.65 76.714 163.849 76.7486 164.049 76.7432C164.249 76.7378 164.446 76.6925 164.628 76.61C164.811 76.5274 164.975 76.4093 165.111 76.2625L165.471 73.829Z" fill="#FFC4C0"/>
<path d="M163.183 72.0112V72.0461C164.02 72.7953 164.211 73.8813 164.24 74.95C164.218 74.8311 164.17 74.7185 164.1 74.62C164.03 74.5214 163.939 74.4392 163.834 74.379C163.73 74.3188 163.613 74.2821 163.492 74.2714C163.372 74.2607 163.251 74.2762 163.137 74.3169C163.137 74.3169 163.137 74.375 163.137 74.375C163.329 74.3826 163.513 74.4492 163.666 74.5655C163.819 74.6819 163.932 74.8425 163.99 75.0255C164.085 75.3318 164.147 75.6472 164.176 75.9663C164.176 76.0709 164.362 76.0825 164.368 75.9663C164.827 74.7061 164.478 72.6152 163.183 72.0112Z" fill="#39434F"/>
<path d="M154.959 90.0094C153.257 99.511 154.28 119.432 158.606 122.771C163.619 126.633 185.56 127.417 190.439 125.989C192.385 125.408 187.756 112.555 185.595 112.573C176.518 112.637 168.875 111.591 168.096 110.517C166.9 108.873 163.77 97.2866 161.632 90.0268C158.955 80.9086 155.72 85.7465 154.959 90.0094Z" fill="#FFC4C0"/>
<path d="M209.97 99.2266L196.032 108.333C195.945 108.378 195.871 108.444 195.817 108.525C195.762 108.606 195.729 108.7 195.721 108.797C195.712 108.894 195.728 108.992 195.767 109.082C195.806 109.171 195.867 109.249 195.945 109.309L202.426 114.176C202.635 114.309 202.878 114.379 203.126 114.379C203.374 114.379 203.617 114.309 203.826 114.176L217.765 105.069C217.852 105.025 217.928 104.958 217.983 104.877C218.038 104.795 218.072 104.701 218.08 104.603C218.089 104.505 218.073 104.406 218.033 104.316C217.993 104.226 217.93 104.147 217.852 104.088L211.37 99.2266C211.161 99.0939 210.918 99.0234 210.67 99.0234C210.422 99.0234 210.18 99.0939 209.97 99.2266Z" fill="#39434F"/>
<path d="M209.372 98.8199L195.434 107.927C195.347 107.971 195.273 108.038 195.219 108.119C195.164 108.2 195.131 108.293 195.122 108.39C195.114 108.488 195.13 108.586 195.169 108.675C195.208 108.765 195.269 108.843 195.346 108.902L201.828 113.769C202.037 113.902 202.28 113.972 202.528 113.972C202.776 113.972 203.018 113.902 203.228 113.769L217.166 104.663C217.254 104.618 217.329 104.552 217.385 104.47C217.44 104.388 217.473 104.294 217.482 104.196C217.491 104.098 217.474 103.999 217.434 103.909C217.394 103.819 217.332 103.74 217.253 103.681L210.772 98.8199C210.563 98.6872 210.32 98.6167 210.072 98.6167C209.824 98.6167 209.582 98.6872 209.372 98.8199Z" fill="#39434F"/>
<path d="M209.082 99.5809L196.305 107.932C195.91 108.188 195.858 108.595 196.183 108.838L201.991 113.189C202.186 113.309 202.411 113.373 202.641 113.373C202.871 113.373 203.096 113.309 203.291 113.189L216.069 104.831C216.87 104.314 216.783 104.001 216.458 103.757L215.296 102.886C215.246 102.862 215.19 102.853 215.134 102.859C215.079 102.865 215.027 102.886 214.983 102.92H214.936C214.861 102.983 214.764 103.013 214.667 103.006C214.569 102.998 214.478 102.953 214.413 102.88L211.724 100.864C211.573 100.748 211.457 100.655 211.724 100.493L211.765 100.464C211.875 100.394 211.904 100.301 211.835 100.249L210.673 99.3776C210.319 99.1453 209.831 99.1046 209.082 99.5809Z" fill="white"/>
<path d="M213.002 101.404L213.734 101.985C213.749 101.994 213.766 101.998 213.783 101.998C213.801 101.998 213.818 101.994 213.833 101.985C213.838 101.981 213.842 101.975 213.844 101.969C213.847 101.963 213.849 101.957 213.849 101.95C213.849 101.944 213.847 101.937 213.844 101.931C213.842 101.925 213.838 101.92 213.833 101.915L213.095 101.37C213.082 101.359 213.066 101.354 213.049 101.354C213.032 101.354 213.016 101.359 213.002 101.37C212.979 101.358 212.979 101.387 213.002 101.404Z" fill="white"/>
<path d="M202.565 105.272L207.49 108.966L212.985 105.389L208.054 101.689L202.565 105.272Z" fill="#96D3FF"/>
<path d="M203.716 107.398L206.591 109.559L206.916 109.344L204.041 107.189L203.716 107.398Z" fill="#B3BECD"/>
<path d="M202.659 107.346L206.062 109.901L206.225 109.797L202.816 107.241L202.659 107.346Z" fill="#B3BECD"/>
<path d="M202.362 107.538L205.766 110.093L205.928 109.989L202.519 107.433L202.362 107.538Z" fill="#B3BECD"/>
<path d="M202.066 107.735L205.47 110.284L205.632 110.18L202.229 107.625L202.066 107.735Z" fill="#B3BECD"/>
<path d="M214.042 103.838L214.658 104.297L214.785 104.21L214.176 103.751L214.042 103.838Z" fill="#B3BECD"/>
<path d="M213.798 103.995L214.408 104.454L214.541 104.367L213.931 103.908L213.798 103.995Z" fill="#B3BECD"/>
<path d="M213.554 104.152L214.17 104.616L214.298 104.529L213.688 104.064L213.554 104.152Z" fill="#B3BECD"/>
<path d="M201.811 105.842C201.792 105.916 201.792 105.994 201.811 106.068C201.921 106.085 202.032 106.085 202.142 106.068C202.357 106.068 202.52 105.929 202.403 105.836C202.287 105.743 202.13 105.836 202.13 105.836C202.13 105.836 202.264 105.726 202.165 105.656C202.067 105.586 201.852 105.691 201.811 105.842Z" fill="#96D3FF"/>
<path d="M198.349 108.687L202.322 111.673L203.594 110.848L199.615 107.863L198.349 108.687Z" fill="#96D3FF"/>
<path d="M189.742 126.029C190.811 126.029 199.801 123.799 202.519 122.272C205.431 120.718 208.071 118.702 210.336 116.301C213.891 112.491 215.987 109.518 216.057 107.874C216.133 105.963 216.057 105.627 208.873 111.487C204.807 114.797 202.194 114.39 200.103 113.601C191.508 110.325 183.226 112.561 183.226 112.561C183.226 112.561 185.63 126.018 189.742 126.029Z" fill="#FFC4C0"/>
<path d="M201.166 113.943C198.976 113.194 207.653 111.324 208.652 108.879C209.651 106.434 206.927 106.347 204.546 107.044C196.183 109.524 191.275 107.491 186.252 110.929C185.717 111.289 184.143 112.091 184.114 112.346C183.876 114.751 201.166 113.943 201.166 113.943Z" fill="#FFC4C0"/>
<path d="M195.666 108.548C194.118 108.395 192.556 108.44 191.02 108.682C189.61 108.989 188.274 109.565 187.082 110.377C187.03 110.406 187.082 110.494 187.128 110.465C189.707 108.914 192.744 108.763 195.666 108.618C195.675 108.618 195.684 108.614 195.69 108.607C195.697 108.601 195.701 108.592 195.701 108.583C195.701 108.574 195.697 108.565 195.69 108.558C195.684 108.552 195.675 108.548 195.666 108.548Z" fill="#39434F"/>
<path d="M153.223 102.746L158.508 101.753L165.163 100.504C165.163 100.504 163.601 93.0936 161.679 88.4706C159.716 83.7198 156.452 82.1691 154.657 88.6971C152.915 95.1147 153.223 102.746 153.223 102.746Z" fill="#96D3FF"/>
<path d="M153.693 100.348C155.726 99.8887 163.189 98.2974 164.182 98.4542C164.182 98.4542 164.217 98.5297 164.182 98.5413C163.305 99.035 155.761 100.191 153.699 100.469C153.676 100.475 153.652 100.359 153.693 100.348Z" fill="#39434F"/>
<path d="M154.181 102.566C153.867 102.659 153.554 102.74 153.24 102.821H153.153V102.723C153.072 101.892 153.06 101.056 153.06 100.225C153.06 99.3949 153.101 98.5585 153.159 97.728C153.217 96.8975 153.292 96.067 153.409 95.2423C153.525 94.4176 153.647 93.5987 153.821 92.7798C153.821 93.6161 153.763 94.4408 153.722 95.2713C153.681 96.1018 153.629 96.9265 153.583 97.7571C153.496 99.4065 153.379 101.062 153.31 102.717L153.217 102.647C153.53 102.63 153.856 102.589 154.181 102.566Z" fill="#39434F"/>
<path d="M152.787 94.644C152.952 95.1481 153.077 95.6647 153.159 96.1889C153.199 96.4503 153.24 96.7116 153.263 96.973C153.291 97.2392 153.305 97.5067 153.304 97.7744C153.095 97.2819 152.951 96.7647 152.874 96.2354C152.781 95.7104 152.752 95.1761 152.787 94.644Z" fill="#39434F"/>
<path d="M164.722 100.586L165.152 100.458L165.117 100.516C164.89 99.8248 164.71 99.1279 164.507 98.4368L163.967 96.346C163.618 94.9521 163.293 93.5582 162.991 92.1411C163.295 92.7976 163.557 93.4726 163.775 94.1622C164.013 94.8476 164.199 95.5445 164.356 96.2414C164.513 96.9384 164.693 97.6469 164.832 98.3555C164.972 99.064 165.094 99.7726 165.181 100.493V100.545H165.134C165.024 100.568 164.873 100.574 164.722 100.586Z" fill="#39434F"/>
<path d="M164.077 93.5405C164.206 93.9304 164.273 94.338 164.275 94.7486C164.279 94.9545 164.265 95.1605 164.234 95.3642C164.209 95.5641 164.156 95.7596 164.077 95.945C164.018 95.545 163.987 95.1413 163.984 94.7369C163.974 94.336 164.005 93.935 164.077 93.5405Z" fill="#39434F"/>
<path d="M195.521 44.7634C195.587 45.5404 195.422 46.3197 195.046 47.0028C194.67 47.6859 194.099 48.242 193.407 48.6009C192.714 48.9597 191.931 49.1052 191.156 49.0188C190.381 48.9324 189.649 48.618 189.053 48.1155C188.456 47.613 188.022 46.9449 187.806 46.1957C187.589 45.4465 187.599 44.6499 187.836 43.9067C188.072 43.1634 188.523 42.5069 189.132 42.0202C189.742 41.5335 190.482 41.2385 191.259 41.1724C191.775 41.1277 192.294 41.1852 192.788 41.3416C193.281 41.498 193.739 41.7502 194.135 42.0837C194.531 42.4173 194.857 42.8257 195.095 43.2855C195.332 43.7453 195.477 44.2475 195.521 44.7634Z" fill="white"/>
<path d="M195.521 44.7633C195.61 45.8186 195.289 46.8676 194.623 47.6914C193.958 48.5153 193 49.0503 191.949 49.1849C191.408 49.2414 190.86 49.1894 190.339 49.032C189.817 48.8746 189.332 48.615 188.912 48.2682C188.492 47.9214 188.146 47.4945 187.892 47.0122C187.639 46.53 187.484 46.0022 187.437 45.4596C187.39 44.9169 187.452 44.3703 187.618 43.8517C187.784 43.3331 188.052 42.8528 188.406 42.4388C188.76 42.0249 189.193 41.6856 189.68 41.4407C190.166 41.1958 190.697 41.0503 191.24 41.0126C192.3 40.9641 193.337 41.3275 194.135 42.0266C194.933 42.7257 195.43 43.7063 195.521 44.7633ZM195.521 44.7633C195.479 44.2546 195.334 43.7597 195.095 43.3087C194.856 42.8576 194.528 42.4597 194.13 42.139C193.733 41.8183 193.275 41.5814 192.784 41.4427C192.293 41.304 191.778 41.2664 191.272 41.3321C190.309 41.4688 189.433 41.9667 188.824 42.7249C188.214 43.4831 187.915 44.4448 187.988 45.415C188.072 46.3872 188.529 47.2892 189.262 47.9332C189.995 48.5771 190.949 48.9134 191.924 48.8718C192.434 48.8497 192.934 48.7244 193.394 48.5035C193.854 48.2826 194.265 47.9708 194.601 47.5867C194.937 47.2027 195.192 46.7545 195.35 46.2693C195.508 45.784 195.567 45.2717 195.521 44.7633Z" fill="#39434F"/>
<path d="M187.023 52.0284C187.059 52.46 186.966 52.8926 186.757 53.2716C186.547 53.6506 186.23 53.9591 185.846 54.1581C185.461 54.3571 185.026 54.4377 184.596 54.3898C184.165 54.3418 183.759 54.1674 183.428 53.8886C183.096 53.6098 182.855 53.2391 182.734 52.8232C182.613 52.4074 182.618 51.9651 182.749 51.5521C182.879 51.1391 183.129 50.774 183.466 50.5029C183.804 50.2317 184.214 50.0666 184.646 50.0285C185.226 49.9789 185.802 50.1617 186.248 50.5367C186.694 50.9116 186.972 51.4482 187.023 52.0284Z" fill="white"/>
<path d="M187.023 52.0286C187.077 52.6271 186.902 53.224 186.533 53.6985C186.164 54.173 185.629 54.4897 185.035 54.5844C184.569 54.6565 184.091 54.5868 183.665 54.3844C183.238 54.182 182.882 53.8563 182.643 53.4493C182.404 53.0424 182.292 52.573 182.323 52.1019C182.353 51.6308 182.525 51.1797 182.814 50.8071C183.104 50.4344 183.499 50.1572 183.948 50.0116C184.397 49.8659 184.88 49.8583 185.333 49.9899C185.786 50.1215 186.19 50.3862 186.491 50.7497C186.792 51.1131 186.977 51.5587 187.023 52.0286ZM187.023 52.0286C186.995 51.7435 186.91 51.4671 186.771 51.2165C186.633 50.9659 186.444 50.7464 186.217 50.5717C185.903 50.3359 185.526 50.1962 185.134 50.1695C184.741 50.1428 184.35 50.2303 184.006 50.4213C183.662 50.6124 183.381 50.8988 183.196 51.2462C183.011 51.5935 182.931 51.9868 182.965 52.3788C182.999 52.7707 183.145 53.1444 183.387 53.4549C183.628 53.7653 183.955 53.9992 184.326 54.1284C184.698 54.2576 185.099 54.2764 185.481 54.1827C185.863 54.089 186.21 53.8868 186.479 53.6004C186.673 53.3895 186.821 53.1412 186.914 52.8709C187.008 52.6005 187.044 52.3138 187.023 52.0286Z" fill="#39434F"/>
<path d="M225.003 26.4318C225.249 28.4345 224.963 30.4667 224.175 32.3242C223.388 34.1817 222.125 35.7993 220.514 37.0145C218.903 38.2297 217.001 38.9997 214.999 39.2473C212.996 39.4949 210.964 39.2114 209.106 38.4251C208.202 39.6011 207.039 40.5531 205.708 41.2072C204.377 41.8613 202.913 42.1999 201.43 42.1968C199.947 42.1937 198.485 41.849 197.156 41.1894C195.828 40.5297 194.669 39.5729 193.771 38.3932C193.354 38.521 192.926 38.6108 192.493 38.6615C190.988 38.8493 189.462 38.5967 188.098 37.9341C186.735 37.2716 185.593 36.2276 184.811 34.9289C184.029 33.6302 183.641 32.1325 183.693 30.6174C183.746 29.1024 184.236 27.6351 185.106 26.3935C183.389 24.2383 182.503 21.5381 182.609 18.7845C182.715 16.0308 183.806 13.4067 185.683 11.3897C187.561 9.37275 190.1 8.09698 192.839 7.7946C195.578 7.49222 198.335 8.18333 200.607 9.74215C201.673 8.41092 203.071 7.38552 204.662 6.77023C206.252 6.15494 207.976 5.97171 209.66 6.23915C211.344 6.5066 212.927 7.21519 214.248 8.29287C215.569 9.37055 216.582 10.7789 217.182 12.3747C217.584 12.2382 218 12.144 218.422 12.0935C219.702 11.9361 221 12.1748 222.141 12.7774C223.282 13.38 224.21 14.3176 224.802 15.4641C225.394 16.6105 225.62 17.9107 225.45 19.1896C225.28 20.4685 224.723 21.6647 223.853 22.6172C224.46 23.8101 224.85 25.1019 225.003 26.4318Z" fill="white"/>
<path d="M225.002 26.4316C225.241 28.4336 224.957 30.4631 224.178 32.3228C223.782 33.2484 223.273 34.1218 222.664 34.9234C222.042 35.7116 221.323 36.4179 220.523 37.0256C218.909 38.251 217.003 39.0331 214.993 39.2942C212.983 39.5554 210.94 39.2865 209.067 38.5143H209.175C208.261 39.7148 207.083 40.6887 205.732 41.3605C204.381 42.0324 202.894 42.3841 201.385 42.3884C199.876 42.3927 198.386 42.0495 197.031 41.3855C195.677 40.7214 194.493 39.7543 193.572 38.5591L193.802 38.6358C193.007 38.8759 192.179 38.9902 191.348 38.9744C190.516 38.9732 189.689 38.8351 188.901 38.5655C187.307 38.0318 185.918 37.0158 184.927 35.6582C184.445 34.9753 184.064 34.2264 183.796 33.4346C183.539 32.6392 183.401 31.8103 183.387 30.9746C183.371 29.2867 183.883 27.636 184.85 26.2527V26.5849C183.106 24.3746 182.211 21.6124 182.328 18.799C182.445 15.9856 183.567 13.3074 185.489 11.2499C187.416 9.20243 190.006 7.90316 192.799 7.58223C195.586 7.28347 198.387 7.99298 200.696 9.58218L200.415 9.62691C201.51 8.27754 202.943 7.24337 204.569 6.63035C206.195 6.01732 207.954 5.84746 209.667 6.13818C211.366 6.42068 212.961 7.1467 214.289 8.24285C215.617 9.339 216.633 10.7664 217.233 12.3808L217.15 12.3425C218.49 11.9086 219.935 11.9266 221.265 12.3936C222.252 12.7439 223.138 13.3334 223.842 14.1095C224.547 14.8856 225.048 15.824 225.301 16.8411C225.554 17.8581 225.551 18.922 225.293 19.9377C225.035 20.9534 224.529 21.8893 223.82 22.6617C224.434 23.8386 224.834 25.115 225.002 26.4316ZM225.002 26.4316C224.845 25.0941 224.449 23.7956 223.833 22.5978C224.532 21.8283 225.029 20.8975 225.279 19.8888C225.529 18.88 225.526 17.8249 225.268 16.818C225.01 15.8111 224.507 14.8839 223.802 14.1195C223.098 13.3551 222.215 12.7775 221.233 12.4383C219.924 11.988 218.503 11.988 217.194 12.4383H217.13V12.3744C216.521 10.8015 215.507 9.41736 214.191 8.36177C212.883 7.30088 211.314 6.61024 209.648 6.36181C207.993 6.10614 206.299 6.29505 204.741 6.90919C203.182 7.52334 201.815 8.54064 200.779 9.85693L200.664 10.0103L200.498 9.89527C198.265 8.40853 195.576 7.76444 192.912 8.07816C190.248 8.39187 187.782 9.64293 185.956 11.6077C184.149 13.576 183.099 16.1203 182.99 18.7895C182.881 21.4586 183.721 24.0801 185.361 26.1888L185.495 26.3613L185.368 26.5466C184.464 27.824 183.984 29.3525 183.994 30.9171C183.999 31.6957 184.122 32.469 184.358 33.211C184.603 33.9501 184.953 34.6497 185.4 35.2876C186.32 36.5591 187.606 37.5198 189.086 38.0415C189.825 38.3042 190.602 38.4445 191.387 38.4568C192.17 38.4859 192.953 38.3888 193.706 38.1693L193.847 38.1246L193.943 38.246C194.819 39.4047 195.946 40.3505 197.24 41.0127C199.211 42.0093 201.468 42.2891 203.624 41.8041C205.779 41.3192 207.699 40.0997 209.054 38.3546L209.099 38.2971H209.163C211.005 39.0937 213.026 39.3869 215.018 39.1466C217.011 38.9064 218.904 38.1413 220.504 36.9297C221.304 36.3272 222.025 35.6275 222.651 34.8467C223.26 34.06 223.771 33.2017 224.172 32.2909C224.949 30.4419 225.235 28.4236 225.002 26.4316Z" fill="#39434F"/>
<path d="M210.115 26.1185L209.751 27.8629C209.723 28.0394 209.659 28.2084 209.563 28.3587C209.466 28.509 209.339 28.6374 209.189 28.7355C209.04 28.8337 208.872 28.8994 208.696 28.9285C208.519 28.9576 208.339 28.9493 208.166 28.9044C207.993 28.8686 207.829 28.7991 207.683 28.6997C207.536 28.6003 207.411 28.473 207.315 28.3252C207.218 28.1774 207.151 28.0119 207.119 27.8382C207.086 27.6646 207.088 27.4862 207.124 27.3133L207.706 24.5211C207.706 24.5211 207.706 24.5211 207.744 24.4764C207.783 24.4316 207.744 24.4764 207.744 24.4125C207.827 24.0692 208.038 23.7705 208.333 23.578C208.629 23.3854 208.988 23.3136 209.335 23.3773C210.133 23.5468 210.966 23.3923 211.65 22.9477C212.335 22.5031 212.814 21.805 212.984 21.0068C213.153 20.2086 212.999 19.3758 212.554 18.6916C212.109 18.0074 211.411 17.5278 210.613 17.3583C210.091 17.2502 209.55 17.2806 209.043 17.4465C208.536 17.6124 208.082 17.908 207.725 18.304C207.61 18.447 207.468 18.5651 207.306 18.6512C207.144 18.7372 206.967 18.7894 206.784 18.8045C206.602 18.8196 206.418 18.7974 206.244 18.7391C206.07 18.6808 205.91 18.5877 205.774 18.4656C205.637 18.3434 205.527 18.1946 205.45 18.0284C205.373 17.8622 205.33 17.6821 205.325 17.4989C205.32 17.3158 205.352 17.1335 205.42 16.9632C205.488 16.7929 205.589 16.6382 205.719 16.5085C206.354 15.7989 207.156 15.2582 208.052 14.9349C208.948 14.6117 209.91 14.5161 210.852 14.6568C211.794 14.7974 212.686 15.1698 213.449 15.7406C214.212 16.3113 214.82 17.0626 215.221 17.9268C215.621 18.7911 215.801 19.7413 215.743 20.692C215.686 21.6428 215.393 22.5644 214.891 23.374C214.389 24.1836 213.694 24.8559 212.868 25.3304C212.042 25.805 211.112 26.067 210.159 26.0929L210.115 26.1185ZM208.894 31.9969L208.792 32.4825C208.76 32.6572 208.692 32.8235 208.594 32.9714C208.495 33.1193 208.368 33.2457 208.219 33.343C208.07 33.4403 207.903 33.5065 207.729 33.5377C207.554 33.5688 207.374 33.5641 207.201 33.5241C206.853 33.4488 206.549 33.2397 206.354 32.942C206.159 32.6443 206.089 32.2819 206.16 31.933L206.262 31.4474C206.341 31.1029 206.552 30.8028 206.849 30.6108C207.146 30.4187 207.506 30.3499 207.853 30.4187C208.2 30.491 208.504 30.6975 208.699 30.9932C208.894 31.2888 208.964 31.6497 208.894 31.9969Z" fill="#96D3FF"/>
<path d="M196.154 22.5721L195.968 20.8342C195.936 20.6575 195.942 20.476 195.985 20.3017C196.028 20.1273 196.107 19.964 196.218 19.8223C196.328 19.6806 196.467 19.5638 196.625 19.4794C196.784 19.395 196.958 19.345 197.138 19.3326C197.491 19.291 197.846 19.3906 198.126 19.6096C198.406 19.8285 198.588 20.1493 198.633 20.5019L198.984 23.3325C198.984 23.3325 198.984 23.3325 198.984 23.39C198.984 23.4475 198.984 23.39 199.016 23.4411C199.051 23.7929 198.949 24.1446 198.731 24.4231C198.513 24.7016 198.197 24.8854 197.847 24.9363C197.435 24.9711 197.034 25.0887 196.668 25.2821C196.302 25.4755 195.979 25.7408 195.719 26.062C195.458 26.3832 195.265 26.7537 195.151 27.1513C195.037 27.549 195.004 27.9656 195.055 28.3761C195.106 28.7867 195.239 29.1827 195.446 29.5406C195.654 29.8985 195.931 30.2108 196.263 30.4588C196.594 30.7068 196.971 30.8854 197.373 30.9839C197.775 31.0824 198.192 31.0987 198.601 31.032C199.13 30.9708 199.633 30.7706 200.059 30.4519C200.486 30.1331 200.82 29.7072 201.029 29.2173C201.098 29.0516 201.199 28.9013 201.327 28.7751C201.454 28.6488 201.606 28.5492 201.772 28.4821C201.939 28.4149 202.117 28.3814 202.296 28.3837C202.476 28.386 202.653 28.4239 202.818 28.4953C202.979 28.5654 203.125 28.6667 203.247 28.7934C203.37 28.9201 203.465 29.0697 203.53 29.2336C203.594 29.3975 203.625 29.5724 203.621 29.7484C203.617 29.9243 203.579 30.0978 203.508 30.2588C203.13 31.1303 202.543 31.8947 201.798 32.4838C201.053 33.0729 200.174 33.4683 199.239 33.6347C198.304 33.8012 197.342 33.7334 196.44 33.4376C195.537 33.1417 194.722 32.627 194.067 31.9393C193.412 31.2516 192.938 30.4124 192.686 29.4966C192.434 28.5809 192.413 27.617 192.625 26.6912C192.837 25.7654 193.275 24.9064 193.899 24.191C194.524 23.4756 195.316 22.926 196.205 22.5913L196.154 22.5721ZM195.419 16.617L195.355 16.125C195.324 15.9488 195.33 15.768 195.374 15.5944C195.417 15.4209 195.497 15.2583 195.607 15.1174C195.717 14.9764 195.856 14.8602 196.014 14.7762C196.172 14.6923 196.346 14.6424 196.524 14.6299C196.699 14.6075 196.877 14.6202 197.047 14.667C197.217 14.7138 197.377 14.7939 197.516 14.9026C197.655 15.0114 197.771 15.1466 197.857 15.3005C197.944 15.4543 197.999 15.6238 198.019 15.7992L198.083 16.2848C198.122 16.6379 198.021 16.9921 197.803 17.2724C197.584 17.5526 197.266 17.7369 196.914 17.7863C196.739 17.8095 196.561 17.7975 196.39 17.7511C196.22 17.7046 196.06 17.6246 195.921 17.5157C195.782 17.4068 195.665 17.2712 195.579 17.1169C195.493 16.9626 195.438 16.7927 195.419 16.617Z" fill="#96D3FF"/>
</g>
<defs>
<linearGradient id="paint0_linear_7_41358" x1="71.8629" y1="-8.5" x2="71.8629" y2="67.26" gradientUnits="userSpaceOnUse">
<stop stop-color="#A0AEC0" stop-opacity="0"/>
<stop offset="1" stop-color="#A0AEC0"/>
</linearGradient>
<linearGradient id="paint1_linear_7_41358" x1="122.209" y1="-4" x2="122.209" y2="25.8551" gradientUnits="userSpaceOnUse">
<stop stop-color="#A0AEC0" stop-opacity="0"/>
<stop offset="1" stop-color="#A0AEC0"/>
</linearGradient>
<clipPath id="clip0_7_41358">
<rect width="351" height="296" rx="12.5" fill="white"/>
</clipPath>
</defs>
</svg>
