<svg width="101" height="34" viewBox="0 0 101 34" fill="none" xmlns="http://www.w3.org/2000/svg">
<path d="M17 1.24219C25.7031 1.24219 32.7578 8.2969 32.7578 17C32.7578 25.7031 25.7031 32.7578 17 32.7578C8.2969 32.7578 1.24219 25.7031 1.24219 17C1.24219 8.2969 8.2969 1.24219 17 1.24219Z" fill="#1B85F3" stroke="#D1E6FF" stroke-width="1.51589"/>
<path fill-rule="evenodd" clip-rule="evenodd" d="M10.6654 22.0297C10.2169 21.7552 9.94238 21.2677 9.94238 20.7427V17.8117C9.94238 17.4637 10.2259 17.1817 10.5739 17.1832C10.6849 17.1832 10.7944 17.2132 10.8904 17.2687L17.5039 21.1252C17.8909 21.3502 18.1294 21.7642 18.1294 22.2127V25.2487C18.1309 25.6657 17.7934 26.0047 17.3764 26.0047C17.2369 26.0047 17.0989 25.9657 16.9804 25.8937L10.6654 22.0297ZM20.5234 16.4662C20.9104 16.6912 21.1474 17.1067 21.1489 17.5537V23.7157C21.1489 23.8972 21.0514 24.0652 20.8924 24.1537L19.4449 24.9682C19.4269 24.9787 19.4074 24.9862 19.3864 24.9922V21.5707C19.3864 21.1282 19.1539 20.7172 18.7729 20.4892L12.9649 17.0152V13.1527C12.9649 12.8047 13.2484 12.5227 13.5964 12.5242C13.7074 12.5242 13.8169 12.5542 13.9129 12.6097L20.5234 16.4662ZM23.4184 11.9152C23.8069 12.1402 24.0454 12.5557 24.0454 13.0042V22.0042C24.0439 22.1887 23.9419 22.3582 23.7799 22.4467L22.4074 23.1877V16.9222C22.4074 16.4797 22.1749 16.0702 21.7969 15.8422L15.8599 12.2812V8.61816C15.8599 8.50716 15.8899 8.39766 15.9439 8.30166C16.1194 8.00166 16.5049 7.89966 16.8049 8.07366L23.4184 11.9152Z" fill="white"/>
<path d="M41.0799 23.66C40.7599 23.66 40.4999 23.5867 40.2999 23.44C40.1132 23.2933 39.9999 23.1 39.9599 22.86C39.9199 22.6067 39.9666 22.3267 40.0999 22.02L45.3799 10.32C45.5532 9.93333 45.7599 9.66 45.9999 9.5C46.2532 9.32667 46.5399 9.24 46.8599 9.24C47.1666 9.24 47.4399 9.32667 47.6799 9.5C47.9332 9.66 48.1466 9.93333 48.3199 10.32L53.6199 22.02C53.7666 22.3267 53.8199 22.6067 53.7799 22.86C53.7399 23.1133 53.6266 23.3133 53.4399 23.46C53.2532 23.5933 53.0066 23.66 52.6999 23.66C52.3266 23.66 52.0332 23.5733 51.8199 23.4C51.6199 23.2133 51.4399 22.9333 51.2799 22.56L49.9799 19.54L51.0599 20.24H42.6199L43.6999 19.54L42.4199 22.56C42.2466 22.9467 42.0666 23.2267 41.8799 23.4C41.6932 23.5733 41.4266 23.66 41.0799 23.66ZM46.8199 12.18L44.0199 18.84L43.4999 18.2H50.1799L49.6799 18.84L46.8599 12.18H46.8199ZM56.8227 27.26C56.4227 27.26 56.116 27.1533 55.9027 26.94C55.6894 26.7267 55.5827 26.4133 55.5827 26V14.82C55.5827 14.4067 55.6894 14.0933 55.9027 13.88C56.116 13.6667 56.416 13.56 56.8027 13.56C57.2027 13.56 57.5094 13.6667 57.7227 13.88C57.936 14.0933 58.0427 14.4067 58.0427 14.82V16.38L57.8227 15.78C58.0227 15.1 58.4294 14.5533 59.0427 14.14C59.6694 13.7267 60.396 13.52 61.2227 13.52C62.076 13.52 62.8227 13.7267 63.4627 14.14C64.116 14.5533 64.6227 15.14 64.9827 15.9C65.3427 16.6467 65.5227 17.5467 65.5227 18.6C65.5227 19.64 65.3427 20.5467 64.9827 21.32C64.6227 22.08 64.1227 22.6667 63.4827 23.08C62.8427 23.4933 62.0894 23.7 61.2227 23.7C60.4094 23.7 59.696 23.5 59.0827 23.1C58.4694 22.6867 58.056 22.1533 57.8427 21.5H58.0827V26C58.0827 26.4133 57.9694 26.7267 57.7427 26.94C57.5294 27.1533 57.2227 27.26 56.8227 27.26ZM60.5227 21.8C61.016 21.8 61.4494 21.68 61.8227 21.44C62.196 21.2 62.4827 20.8467 62.6827 20.38C62.896 19.9 63.0027 19.3067 63.0027 18.6C63.0027 17.5333 62.776 16.74 62.3227 16.22C61.8694 15.6867 61.2694 15.42 60.5227 15.42C60.0294 15.42 59.596 15.54 59.2227 15.78C58.8494 16.0067 58.556 16.36 58.3427 16.84C58.1427 17.3067 58.0427 17.8933 58.0427 18.6C58.0427 19.6533 58.2694 20.4533 58.7227 21C59.176 21.5333 59.776 21.8 60.5227 21.8ZM68.8149 27.26C68.4149 27.26 68.1082 27.1533 67.8949 26.94C67.6816 26.7267 67.5749 26.4133 67.5749 26V14.82C67.5749 14.4067 67.6816 14.0933 67.8949 13.88C68.1082 13.6667 68.4082 13.56 68.7949 13.56C69.1949 13.56 69.5016 13.6667 69.7149 13.88C69.9282 14.0933 70.0349 14.4067 70.0349 14.82V16.38L69.8149 15.78C70.0149 15.1 70.4216 14.5533 71.0349 14.14C71.6616 13.7267 72.3882 13.52 73.2149 13.52C74.0682 13.52 74.8149 13.7267 75.4549 14.14C76.1082 14.5533 76.6149 15.14 76.9749 15.9C77.3349 16.6467 77.5149 17.5467 77.5149 18.6C77.5149 19.64 77.3349 20.5467 76.9749 21.32C76.6149 22.08 76.1149 22.6667 75.4749 23.08C74.8349 23.4933 74.0816 23.7 73.2149 23.7C72.4016 23.7 71.6882 23.5 71.0749 23.1C70.4616 22.6867 70.0482 22.1533 69.8349 21.5H70.0749V26C70.0749 26.4133 69.9616 26.7267 69.7349 26.94C69.5216 27.1533 69.2149 27.26 68.8149 27.26ZM72.5149 21.8C73.0082 21.8 73.4416 21.68 73.8149 21.44C74.1882 21.2 74.4749 20.8467 74.6749 20.38C74.8882 19.9 74.9949 19.3067 74.9949 18.6C74.9949 17.5333 74.7682 16.74 74.3149 16.22C73.8616 15.6867 73.2616 15.42 72.5149 15.42C72.0216 15.42 71.5882 15.54 71.2149 15.78C70.8416 16.0067 70.5482 16.36 70.3349 16.84C70.1349 17.3067 70.0349 17.8933 70.0349 18.6C70.0349 19.6533 70.2616 20.4533 70.7149 21C71.1682 21.5333 71.7682 21.8 72.5149 21.8ZM83.1471 23.7C82.5738 23.7 81.9671 23.64 81.3271 23.52C80.6871 23.4 80.1138 23.1933 79.6071 22.9C79.3938 22.7667 79.2404 22.6133 79.1471 22.44C79.0671 22.2533 79.0338 22.0733 79.0471 21.9C79.0738 21.7133 79.1404 21.5533 79.2471 21.42C79.3671 21.2867 79.5138 21.2 79.6871 21.16C79.8738 21.12 80.0738 21.1533 80.2871 21.26C80.8204 21.5133 81.3204 21.6933 81.7871 21.8C82.2538 21.8933 82.7138 21.94 83.1671 21.94C83.8071 21.94 84.2804 21.8333 84.5871 21.62C84.9071 21.3933 85.0671 21.1 85.0671 20.74C85.0671 20.4333 84.9604 20.2 84.7471 20.04C84.5471 19.8667 84.2404 19.74 83.8271 19.66L81.8271 19.28C81.0004 19.12 80.3671 18.82 79.9271 18.38C79.5004 17.9267 79.2871 17.3467 79.2871 16.64C79.2871 16 79.4604 15.4467 79.8071 14.98C80.1671 14.5133 80.6604 14.1533 81.2871 13.9C81.9138 13.6467 82.6338 13.52 83.4471 13.52C84.0338 13.52 84.5804 13.5867 85.0871 13.72C85.6071 13.84 86.1071 14.0333 86.5871 14.3C86.7871 14.4067 86.9204 14.5467 86.9871 14.72C87.0671 14.8933 87.0871 15.0733 87.0471 15.26C87.0071 15.4333 86.9271 15.5933 86.8071 15.74C86.6871 15.8733 86.5338 15.96 86.3471 16C86.1738 16.0267 85.9738 15.9867 85.7471 15.88C85.3338 15.6667 84.9338 15.5133 84.5471 15.42C84.1738 15.3267 83.8138 15.28 83.4671 15.28C82.8138 15.28 82.3271 15.3933 82.0071 15.62C81.7004 15.8467 81.5471 16.1467 81.5471 16.52C81.5471 16.8 81.6404 17.0333 81.8271 17.22C82.0138 17.4067 82.3004 17.5333 82.6871 17.6L84.6871 17.98C85.5538 18.14 86.2071 18.4333 86.6471 18.86C87.1004 19.2867 87.3271 19.86 87.3271 20.58C87.3271 21.5533 86.9471 22.32 86.1871 22.88C85.4271 23.4267 84.4138 23.7 83.1471 23.7ZM93.7927 23.7C92.7794 23.7 91.8994 23.4933 91.1527 23.08C90.406 22.6667 89.826 22.08 89.4127 21.32C88.9994 20.5467 88.7927 19.64 88.7927 18.6C88.7927 17.8133 88.906 17.1133 89.1327 16.5C89.3727 15.8733 89.7127 15.34 90.1527 14.9C90.5927 14.4467 91.1194 14.1067 91.7327 13.88C92.346 13.64 93.0327 13.52 93.7927 13.52C94.806 13.52 95.686 13.7267 96.4327 14.14C97.1794 14.5533 97.7594 15.14 98.1727 15.9C98.586 16.66 98.7927 17.56 98.7927 18.6C98.7927 19.3867 98.6727 20.0933 98.4327 20.72C98.206 21.3467 97.8727 21.8867 97.4327 22.34C96.9927 22.78 96.466 23.12 95.8527 23.36C95.2394 23.5867 94.5527 23.7 93.7927 23.7ZM93.7927 21.8C94.286 21.8 94.7194 21.68 95.0927 21.44C95.466 21.2 95.7527 20.8467 95.9527 20.38C96.166 19.9 96.2727 19.3067 96.2727 18.6C96.2727 17.5333 96.046 16.74 95.5927 16.22C95.1394 15.6867 94.5394 15.42 93.7927 15.42C93.2994 15.42 92.866 15.54 92.4927 15.78C92.1194 16.0067 91.826 16.36 91.6127 16.84C91.4127 17.3067 91.3127 17.8933 91.3127 18.6C91.3127 19.6533 91.5394 20.4533 91.9927 21C92.446 21.5333 93.046 21.8 93.7927 21.8Z" fill="#1B85F3"/>
</svg>
