<svg width="375" height="240" viewBox="0 0 375 240" fill="none" xmlns="http://www.w3.org/2000/svg">
<rect x="12" width="351" height="230" rx="12.5" fill="#F7FAFC"/>
<g clip-path="url(#clip0_7_41525)">
<path d="M130.428 104.943H114.455V110.026H130.428V104.943Z" fill="#D9DFE6"/>
<path d="M164.473 5.90576H148.5V10.9894H164.473V5.90576Z" fill="#D9DFE6"/>
<path d="M121.519 116.437L113.587 116.573L109.575 116.628H105.546H105.341V116.419V111.335V111.135H105.568L113.555 111.167L117.548 111.208L121.542 111.258H121.651V111.362L121.519 116.437ZM121.519 116.437L121.41 111.353L121.519 111.462L117.526 111.512L113.532 111.553L105.546 111.59L105.773 111.362V116.446L105.564 116.242H109.521L113.496 116.296L121.519 116.437Z" fill="#D9DFE6"/>
<path d="M156.5 18.0219L148.568 18.1582L144.556 18.2127H140.527H140.322V18.0037V12.9201V12.7202H140.549L148.536 12.752L152.529 12.7929L156.523 12.8429H156.632V12.9474L156.5 18.0219ZM156.5 18.0219L156.391 12.9383L156.5 13.0473L152.507 13.0973L148.513 13.1382L140.527 13.1745L140.754 12.9474V18.031L140.545 17.8265H144.502L148.477 17.881L156.5 18.0219Z" fill="#D9DFE6"/>
<path d="M302.647 140.26L294.715 140.392L290.704 140.447H286.674H286.465V140.242V135.158V134.927H286.692L294.679 134.954L298.672 134.995L302.666 135.045H302.775V135.154L302.647 140.26ZM302.647 140.26L302.538 135.177L302.647 135.281L298.654 135.331L294.661 135.372L286.674 135.399L286.901 135.177L286.879 140.26L286.674 140.051H290.631L294.606 140.106L302.647 140.26Z" fill="#D9DFE6"/>
<path d="M293.734 146.666L285.807 146.802L281.791 146.857H277.766H277.557V146.648V141.569V141.337H277.788L285.775 141.364L289.764 141.405L293.757 141.455H293.871V141.591L293.734 146.666ZM293.734 146.666L293.612 141.591L293.716 141.696L289.723 141.746L285.734 141.787L277.747 141.814L277.975 141.591L277.952 146.67L277.747 146.466H281.704L285.675 146.52L293.734 146.666Z" fill="#D9DFE6"/>
<path d="M284.862 135.177H268.889V140.26H284.862V135.177Z" fill="#D9DFE6"/>
<path d="M305.746 186.48H289.773V191.564H305.746V186.48Z" fill="#D9DFE6"/>
<path d="M296.837 29.4976H280.864V34.5812H296.837V29.4976Z" fill="#D9DFE6"/>
<path d="M305.746 40.9915L297.814 41.1278L293.803 41.1823H289.773H289.569V40.9734L289.546 35.8897V35.6626H289.773L297.76 35.6944L301.753 35.7353L305.746 35.7853H305.855V35.8897L305.746 40.9915ZM305.746 40.9915L305.637 35.8897L305.746 35.9988L301.753 36.0488L297.76 36.0851L289.773 36.1169L290 35.8897V40.9734L289.791 40.7689H293.748L297.723 40.8234L305.746 40.9915Z" fill="#D9DFE6"/>
<path d="M45 215.088L80.2517 214.974L115.503 214.938L186 214.861L256.497 214.938L291.748 214.974L327 215.088L291.748 215.197L256.497 215.238L186 215.315L115.503 215.238L80.2517 215.197L45 215.088Z" fill="#39434F"/>
<path d="M213.982 108.042C213.863 107.408 213.807 106.764 213.814 106.12C213.805 105.475 213.861 104.831 213.982 104.198C214.105 104.831 214.163 105.475 214.155 106.12C214.16 106.765 214.103 107.408 213.982 108.042Z" fill="#39434F"/>
<path d="M211.252 109.255C210.721 108.892 210.226 108.478 209.775 108.019C209.314 107.568 208.898 107.072 208.535 106.538C209.598 107.278 210.521 108.201 211.261 109.264L211.252 109.255Z" fill="#39434F"/>
<path d="M210.18 112.044C209.548 112.163 208.906 112.219 208.262 112.212C207.618 112.222 206.974 112.165 206.341 112.044C207.611 111.82 208.91 111.82 210.18 112.044Z" fill="#39434F"/>
<path d="M211.397 114.774C210.654 115.835 209.732 116.757 208.671 117.5C209.032 116.966 209.446 116.469 209.907 116.019C210.362 115.557 210.861 115.14 211.397 114.774Z" fill="#39434F"/>
<path d="M214.182 115.847C214.412 117.116 214.412 118.416 214.182 119.686C213.958 118.416 213.958 117.116 214.182 115.847Z" fill="#39434F"/>
<path d="M216.912 114.633C217.977 115.371 218.9 116.294 219.638 117.359C219.105 116.999 218.61 116.585 218.161 116.123C217.697 115.669 217.279 115.17 216.912 114.633Z" fill="#39434F"/>
<path d="M218.007 111.844C219.278 111.614 220.58 111.614 221.851 111.844C220.579 112.068 219.279 112.068 218.007 111.844Z" fill="#39434F"/>
<path d="M216.771 109.114C217.134 108.581 217.548 108.085 218.007 107.633C218.458 107.173 218.955 106.759 219.488 106.397C218.745 107.457 217.822 108.38 216.762 109.123L216.771 109.114Z" fill="#39434F"/>
<path d="M237.61 23H152.847C151.709 23.0072 150.584 23.2388 149.535 23.6815C148.486 24.1241 147.536 24.7692 146.737 25.5798C145.938 26.3904 145.306 27.3506 144.879 28.4054C144.451 29.4602 144.236 30.589 144.245 31.7271V206.269C144.225 208.565 145.118 210.776 146.727 212.414C148.337 214.053 150.531 214.985 152.827 215.006H237.59C238.729 214.998 239.856 214.766 240.905 214.323C241.955 213.879 242.907 213.233 243.706 212.422C244.506 211.61 245.138 210.649 245.566 209.594C245.995 208.538 246.211 207.408 246.202 206.269V31.7271C246.218 29.4311 245.322 27.2225 243.711 25.5863C242.101 23.95 239.906 23.0199 237.61 23ZM240.835 200.887C240.835 205.482 237.395 209.198 233.156 209.198H157.301C153.043 209.198 149.607 205.482 149.607 200.887V38.3527C149.607 28.9936 153.043 28.5372 157.301 28.5372H172.493C173.376 28.5372 174.098 29.5403 174.098 30.7842V31.3208C174.098 34.2349 175.693 34.2349 177.669 34.2349H212.778C214.784 34.2349 216.334 34.2349 216.334 31.3108V30.7842C216.334 29.5403 217.046 28.5372 217.949 28.5372H233.146C237.385 28.5372 240.825 29.7811 240.825 38.3527L240.835 200.887Z" fill="#39434F"/>
<path d="M200.014 30.6036H190.429C190.272 30.6036 190.121 30.5412 190.01 30.4302C189.899 30.3193 189.837 30.1687 189.837 30.0118C189.837 29.8548 189.899 29.7043 190.01 29.5933C190.121 29.4823 190.272 29.4199 190.429 29.4199H200.014C200.17 29.4199 200.321 29.4823 200.432 29.5933C200.543 29.7043 200.605 29.8548 200.605 30.0118C200.605 30.1687 200.543 30.3193 200.432 30.4302C200.321 30.5412 200.17 30.6036 200.014 30.6036Z" fill="white"/>
<path d="M240.866 38.3526V200.887C240.866 205.481 237.425 209.198 233.182 209.198H157.301C153.048 209.198 149.607 205.481 149.607 200.887V38.3526C149.607 28.9935 153.048 28.5371 157.301 28.5371H172.493C173.376 28.5371 174.098 29.5402 174.098 30.7841V31.3208C174.098 34.2348 175.693 34.2348 177.67 34.2348H212.779C214.755 34.2348 216.335 34.2348 216.335 31.3107V30.7841C216.335 29.5402 217.047 28.5371 217.945 28.5371H233.142C237.4 28.5371 240.866 29.781 240.866 38.3526Z" fill="white"/>
<path d="M158.841 49.2016L156.143 46.6787L158.841 44.1509L159.257 44.5973L157.04 46.6787L159.257 48.7552L158.841 49.2016Z" fill="#D9DFE6"/>
<path d="M233.773 45.1035C233.773 45.2086 233.742 45.3114 233.684 45.3988C233.625 45.4862 233.542 45.5544 233.445 45.5946C233.348 45.6349 233.241 45.6454 233.138 45.6249C233.035 45.6044 232.94 45.5537 232.866 45.4794C232.791 45.405 232.741 45.3103 232.72 45.2072C232.7 45.104 232.71 44.9971 232.75 44.9C232.791 44.8029 232.859 44.7198 232.946 44.6614C233.034 44.603 233.136 44.5718 233.242 44.5718C233.312 44.5711 233.381 44.5844 233.446 44.6109C233.511 44.6374 233.57 44.6765 233.619 44.726C233.669 44.7755 233.708 44.8344 233.734 44.8992C233.761 44.964 233.774 45.0334 233.773 45.1035Z" fill="#D9DFE6"/>
<path d="M233.773 46.9897C233.773 47.0948 233.742 47.1976 233.684 47.2851C233.625 47.3725 233.542 47.4406 233.445 47.4809C233.348 47.5211 233.241 47.5316 233.138 47.5111C233.035 47.4906 232.94 47.44 232.866 47.3656C232.791 47.2913 232.741 47.1965 232.72 47.0934C232.7 46.9903 232.71 46.8834 232.75 46.7862C232.791 46.6891 232.859 46.606 232.946 46.5476C233.034 46.4892 233.136 46.458 233.242 46.458C233.312 46.4574 233.381 46.4707 233.446 46.4971C233.511 46.5236 233.57 46.5628 233.619 46.6123C233.669 46.6618 233.708 46.7206 233.734 46.7854C233.761 46.8502 233.774 46.9197 233.773 46.9897Z" fill="#D9DFE6"/>
<path d="M233.773 48.8754C233.773 48.9806 233.742 49.0834 233.684 49.1708C233.625 49.2582 233.542 49.3264 233.445 49.3666C233.348 49.4068 233.241 49.4174 233.138 49.3969C233.035 49.3763 232.94 49.3257 232.866 49.2514C232.791 49.177 232.741 49.0823 232.72 48.9791C232.7 48.876 232.71 48.7691 232.75 48.672C232.791 48.5748 232.859 48.4918 232.946 48.4334C233.034 48.375 233.136 48.3438 233.242 48.3438C233.312 48.3431 233.381 48.3564 233.446 48.3829C233.511 48.4094 233.57 48.4485 233.619 48.498C233.669 48.5475 233.708 48.6064 233.734 48.6712C233.761 48.736 233.774 48.8054 233.773 48.8754Z" fill="#D9DFE6"/>
<path d="M169.87 32.1887L169.725 32.3341L169.639 32.4144C169.264 32.0407 168.755 31.831 168.225 31.831C167.695 31.831 167.187 32.0407 166.811 32.4144L166.73 32.3291L166.585 32.1837L166.771 32.0182C166.905 31.9139 167.05 31.8232 167.202 31.7473C167.382 31.6563 167.575 31.5921 167.774 31.5567C167.864 31.5567 167.959 31.5567 168.055 31.5166H168.305H168.501C168.672 31.5402 168.84 31.5822 169.002 31.642C169.124 31.6879 169.241 31.7432 169.354 31.8075C169.473 31.8757 169.585 31.9546 169.69 32.0432L169.845 32.1837L169.87 32.1887Z" fill="#D9DFE6"/>
<path d="M167.277 32.8757L167.042 32.645C167.356 32.3325 167.782 32.1572 168.225 32.1572C168.669 32.1572 169.094 32.3325 169.409 32.645L169.173 32.8757C168.921 32.6251 168.58 32.4845 168.225 32.4845C167.87 32.4845 167.529 32.6251 167.277 32.8757Z" fill="#D9DFE6"/>
<path d="M168.942 33.1114L168.712 33.3421C168.648 33.2769 168.573 33.225 168.489 33.1896C168.406 33.1542 168.316 33.1359 168.225 33.1359C168.134 33.1359 168.044 33.1542 167.961 33.1896C167.877 33.225 167.802 33.2769 167.739 33.3421C167.663 33.2619 167.583 33.1866 167.508 33.1114C167.601 33.0158 167.713 32.9399 167.836 32.8881C167.959 32.8363 168.091 32.8096 168.225 32.8096C168.359 32.8096 168.491 32.8363 168.614 32.8881C168.737 32.9399 168.849 33.0158 168.942 33.1114Z" fill="#D9DFE6"/>
<path d="M168.436 33.548C168.436 33.6039 168.414 33.6574 168.374 33.6969C168.335 33.7364 168.281 33.7586 168.225 33.7586C168.198 33.7586 168.171 33.7532 168.145 33.7425C168.12 33.7319 168.097 33.7163 168.078 33.6966C168.059 33.677 168.044 33.6537 168.034 33.6282C168.024 33.6027 168.019 33.5754 168.02 33.548C168.02 33.4934 168.041 33.4411 168.08 33.4026C168.118 33.364 168.171 33.3423 168.225 33.3423C168.253 33.3417 168.28 33.3465 168.305 33.3565C168.331 33.3666 168.354 33.3816 168.374 33.4008C168.394 33.4199 168.409 33.4428 168.42 33.4681C168.43 33.4934 168.436 33.5206 168.436 33.548Z" fill="#D9DFE6"/>
<path d="M155.556 32.6298C155.556 32.5096 155.591 32.392 155.658 32.2921C155.725 32.1922 155.82 32.1144 155.931 32.0687C156.043 32.0229 156.165 32.0112 156.283 32.035C156.401 32.0588 156.509 32.1171 156.593 32.2025C156.678 32.2879 156.736 32.3965 156.758 32.5145C156.781 32.6326 156.769 32.7548 156.722 32.8656C156.675 32.9764 156.597 33.0708 156.496 33.1369C156.396 33.2029 156.278 33.2377 156.158 33.2367C156.078 33.2367 155.999 33.221 155.926 33.1904C155.853 33.1598 155.786 33.1151 155.73 33.0586C155.674 33.0022 155.63 32.9353 155.6 32.8617C155.57 32.7881 155.555 32.7093 155.556 32.6298Z" fill="#D9DFE6"/>
<path d="M157.457 32.63C157.456 32.5097 157.49 32.3919 157.556 32.2914C157.622 32.191 157.717 32.1124 157.828 32.0657C157.939 32.019 158.061 32.0063 158.179 32.0291C158.297 32.052 158.405 32.1094 158.491 32.194C158.576 32.2787 158.634 32.3868 158.658 32.5047C158.682 32.6226 158.67 32.7448 158.625 32.856C158.579 32.9672 158.501 33.0623 158.401 33.1292C158.301 33.1961 158.184 33.2318 158.063 33.2318C157.903 33.2318 157.75 33.1686 157.636 33.0559C157.522 32.9431 157.458 32.7901 157.457 32.63Z" fill="#D9DFE6"/>
<path d="M159.362 32.63C159.361 32.5097 159.396 32.3919 159.462 32.2914C159.528 32.191 159.623 32.1124 159.733 32.0657C159.844 32.019 159.966 32.0063 160.084 32.0291C160.203 32.052 160.311 32.1094 160.397 32.194C160.482 32.2787 160.54 32.3868 160.564 32.5047C160.588 32.6226 160.576 32.7448 160.53 32.856C160.485 32.9672 160.407 33.0623 160.307 33.1292C160.207 33.1961 160.089 33.2318 159.969 33.2318C159.809 33.2318 159.656 33.1686 159.542 33.0559C159.428 32.9431 159.364 32.7901 159.362 32.63Z" fill="#D9DFE6"/>
<path d="M161.268 32.6299C161.267 32.5095 161.302 32.3915 161.368 32.2909C161.435 32.1903 161.529 32.1118 161.64 32.0652C161.751 32.0187 161.874 32.0062 161.992 32.0295C162.11 32.0527 162.219 32.1106 162.304 32.1958C162.389 32.281 162.447 32.3896 162.47 32.5078C162.494 32.626 162.481 32.7484 162.435 32.8595C162.388 32.9706 162.31 33.0653 162.209 33.1316C162.108 33.1979 161.99 33.2328 161.87 33.2318C161.791 33.2318 161.713 33.2162 161.64 33.186C161.567 33.1558 161.5 33.1114 161.444 33.0555C161.388 32.9996 161.344 32.9333 161.314 32.8603C161.284 32.7872 161.268 32.709 161.268 32.6299Z" fill="#D9DFE6"/>
<path d="M163.174 32.6299C163.173 32.5095 163.208 32.3915 163.275 32.2909C163.341 32.1903 163.436 32.1118 163.547 32.0652C163.658 32.0187 163.78 32.0062 163.898 32.0295C164.017 32.0527 164.125 32.1106 164.21 32.1958C164.296 32.281 164.353 32.3896 164.377 32.5078C164.4 32.626 164.387 32.7484 164.341 32.8595C164.294 32.9706 164.216 33.0653 164.115 33.1316C164.015 33.1979 163.897 33.2328 163.776 33.2318C163.697 33.2318 163.619 33.2162 163.546 33.186C163.473 33.1558 163.407 33.1114 163.351 33.0555C163.295 32.9996 163.25 32.9333 163.22 32.8603C163.19 32.7872 163.174 32.709 163.174 32.6299Z" fill="#D9DFE6"/>
<path d="M233.999 33.9541H229.069V31.667H233.999V33.9541ZM229.33 33.6983H233.743V31.9228H229.33V33.6983Z" fill="#D9DFE6"/>
<path d="M232.655 32.0581H229.48V33.5628H232.655V32.0581Z" fill="#D9DFE6"/>
<path d="M234.435 32.1987H233.999V33.4175H234.435V32.1987Z" fill="#D9DFE6"/>
<path d="M233.443 198.334H228.583V199.027H233.443V198.334Z" fill="#ECEFF2"/>
<path d="M233.443 200.05H228.583V200.747H233.443V200.05Z" fill="#ECEFF2"/>
<path d="M233.443 201.77H228.583V202.467H233.443V201.77Z" fill="#ECEFF2"/>
<path d="M225.608 97.1353H164.839V104.353H225.608V97.1353Z" fill="#ECEFF2"/>
<path d="M225.608 114.434H164.839V121.651H225.608V114.434Z" fill="#ECEFF2"/>
<path d="M225.608 131.732H164.839V138.95H225.608V131.732Z" fill="#ECEFF2"/>
<path d="M222.308 100.109C222.308 100.254 222.265 100.396 222.184 100.516C222.104 100.636 221.99 100.73 221.856 100.786C221.722 100.841 221.575 100.856 221.433 100.827C221.291 100.799 221.16 100.729 221.058 100.627C220.955 100.525 220.886 100.394 220.857 100.252C220.829 100.11 220.844 99.9628 220.899 99.829C220.954 99.6952 221.048 99.5808 221.169 99.5004C221.289 99.4199 221.431 99.377 221.576 99.377C221.672 99.3763 221.767 99.3948 221.857 99.4314C221.946 99.4679 222.027 99.5218 222.095 99.59C222.163 99.6581 222.217 99.7391 222.253 99.8282C222.29 99.9174 222.308 100.013 222.308 100.109Z" fill="#C6CED9"/>
<path d="M222.84 102.115H220.302C220.322 101.793 220.464 101.491 220.7 101.27C220.935 101.049 221.245 100.926 221.568 100.926C221.891 100.926 222.202 101.049 222.437 101.27C222.672 101.491 222.814 101.793 222.835 102.115H222.84Z" fill="#C6CED9"/>
<path d="M209.744 158.365H180.708V167.122H209.744V158.365Z" fill="#9EEACC"/>
<path d="M186.045 163.446C186.065 163.422 186.089 163.403 186.115 163.389C186.142 163.375 186.172 163.366 186.202 163.363C186.232 163.36 186.263 163.363 186.292 163.373C186.321 163.382 186.348 163.396 186.371 163.416C186.613 163.62 186.913 163.742 187.229 163.762C187.429 163.767 187.625 163.709 187.791 163.596C187.847 163.562 187.895 163.514 187.929 163.458C187.963 163.401 187.983 163.337 187.986 163.27C187.986 163.221 187.972 163.172 187.946 163.13C187.91 163.077 187.864 163.031 187.811 162.995C187.62 162.888 187.411 162.816 187.194 162.784C186.995 162.75 186.801 162.691 186.617 162.608C186.447 162.533 186.301 162.411 186.196 162.257C186.129 162.145 186.095 162.017 186.095 161.886C186.1 161.757 186.134 161.631 186.196 161.518C186.258 161.404 186.345 161.307 186.452 161.234C186.679 161.074 186.951 160.989 187.229 160.993C187.593 161.007 187.943 161.133 188.232 161.354C188.281 161.389 188.315 161.441 188.326 161.5C188.338 161.559 188.325 161.62 188.292 161.67C188.276 161.696 188.256 161.718 188.231 161.736C188.206 161.753 188.179 161.766 188.149 161.772C188.12 161.779 188.089 161.779 188.06 161.774C188.03 161.769 188.002 161.757 187.976 161.741C187.769 161.573 187.515 161.473 187.249 161.455C187.07 161.451 186.895 161.504 186.747 161.605C186.699 161.635 186.658 161.676 186.628 161.725C186.599 161.774 186.581 161.829 186.577 161.886C186.575 161.93 186.585 161.973 186.607 162.011C186.639 162.059 186.68 162.1 186.727 162.132C186.901 162.231 187.091 162.298 187.289 162.327C187.503 162.365 187.712 162.429 187.911 162.518C188.093 162.595 188.249 162.724 188.357 162.889C188.429 163.003 188.468 163.135 188.468 163.27C188.464 163.409 188.427 163.545 188.36 163.666C188.293 163.788 188.197 163.891 188.082 163.968C187.838 164.138 187.547 164.228 187.249 164.223C186.828 164.203 186.425 164.047 186.1 163.777C186.075 163.759 186.053 163.736 186.037 163.71C186.02 163.683 186.009 163.654 186.004 163.623C185.999 163.592 186 163.561 186.007 163.53C186.014 163.5 186.027 163.471 186.045 163.446Z" fill="white"/>
<path d="M189.17 161.329C189.169 161.297 189.175 161.265 189.187 161.234C189.199 161.204 189.217 161.177 189.24 161.154C189.263 161.131 189.291 161.113 189.321 161.101C189.351 161.089 189.383 161.083 189.416 161.084C189.481 161.084 189.544 161.109 189.591 161.155C189.638 161.201 189.665 161.264 189.667 161.329V163.983C189.667 164.015 189.66 164.048 189.647 164.078C189.635 164.108 189.616 164.135 189.593 164.158C189.569 164.181 189.542 164.199 189.511 164.211C189.481 164.223 189.448 164.229 189.416 164.228C189.383 164.229 189.351 164.223 189.321 164.211C189.291 164.199 189.263 164.181 189.24 164.158C189.217 164.135 189.199 164.108 189.187 164.077C189.175 164.047 189.169 164.015 189.17 163.983V161.329Z" fill="white"/>
<path d="M190.369 162.633C190.376 162.326 190.469 162.027 190.637 161.77C190.804 161.512 191.04 161.307 191.317 161.175C191.595 161.043 191.904 160.992 192.209 161.025C192.514 161.058 192.804 161.176 193.047 161.364C193.074 161.385 193.096 161.41 193.113 161.439C193.13 161.468 193.141 161.501 193.145 161.534C193.149 161.567 193.147 161.601 193.139 161.633C193.13 161.666 193.115 161.696 193.095 161.723C193.074 161.75 193.049 161.772 193.02 161.789C192.991 161.806 192.958 161.817 192.925 161.821C192.892 161.826 192.858 161.823 192.826 161.815C192.793 161.806 192.763 161.791 192.736 161.771C192.532 161.612 192.282 161.526 192.024 161.525C191.874 161.522 191.725 161.55 191.586 161.607C191.447 161.664 191.321 161.749 191.216 161.856C191.11 161.956 191.026 162.076 190.968 162.21C190.91 162.344 190.881 162.488 190.881 162.633C190.881 162.779 190.91 162.923 190.968 163.057C191.026 163.19 191.11 163.311 191.216 163.411C191.322 163.517 191.448 163.6 191.587 163.656C191.726 163.712 191.874 163.739 192.024 163.737C192.241 163.736 192.454 163.677 192.641 163.566V162.949H191.999C191.931 162.949 191.866 162.922 191.818 162.874C191.77 162.826 191.743 162.761 191.743 162.694C191.743 162.66 191.75 162.627 191.762 162.596C191.775 162.566 191.794 162.538 191.818 162.514C191.842 162.491 191.87 162.473 191.901 162.46C191.932 162.448 191.965 162.442 191.999 162.443H192.891C192.925 162.441 192.959 162.447 192.991 162.459C193.022 162.471 193.051 162.489 193.075 162.513C193.1 162.536 193.119 162.564 193.132 162.595C193.146 162.626 193.152 162.66 193.152 162.694V163.697C193.155 163.722 193.155 163.747 193.152 163.772C193.15 163.78 193.15 163.789 193.152 163.797C193.134 163.841 193.103 163.878 193.062 163.902C192.776 164.127 192.423 164.251 192.059 164.253C191.841 164.261 191.623 164.226 191.419 164.148C191.215 164.07 191.028 163.952 190.871 163.801C190.713 163.65 190.587 163.469 190.501 163.268C190.415 163.068 190.37 162.852 190.369 162.633Z" fill="white"/>
<path d="M194.657 163.983C194.656 164.048 194.629 164.109 194.584 164.155C194.538 164.201 194.476 164.227 194.411 164.228C194.379 164.229 194.347 164.223 194.316 164.211C194.286 164.199 194.259 164.181 194.236 164.158C194.213 164.135 194.195 164.108 194.183 164.078C194.171 164.047 194.165 164.015 194.165 163.983V161.37C194.163 161.329 194.171 161.288 194.188 161.251C194.206 161.214 194.233 161.183 194.266 161.159C194.319 161.123 194.384 161.108 194.447 161.118C194.511 161.129 194.568 161.163 194.607 161.214L196.056 163.22V161.37C196.058 161.306 196.083 161.246 196.128 161.201C196.173 161.156 196.234 161.13 196.297 161.129C196.362 161.129 196.424 161.154 196.471 161.199C196.518 161.244 196.545 161.305 196.548 161.37V163.983C196.547 164.048 196.52 164.111 196.473 164.157C196.426 164.203 196.363 164.229 196.297 164.228C196.262 164.228 196.228 164.219 196.197 164.204C196.165 164.188 196.138 164.166 196.117 164.138L196.091 164.113L194.657 162.107V163.983Z" fill="white"/>
<path d="M200.27 164.228C200.099 164.228 199.931 164.195 199.773 164.129C199.616 164.064 199.473 163.968 199.353 163.848C199.233 163.727 199.137 163.584 199.073 163.426C199.008 163.268 198.975 163.1 198.976 162.929V161.329C198.975 161.297 198.981 161.265 198.993 161.234C199.005 161.204 199.023 161.177 199.046 161.154C199.069 161.131 199.096 161.113 199.127 161.101C199.157 161.089 199.189 161.083 199.221 161.084C199.287 161.084 199.35 161.109 199.397 161.155C199.444 161.201 199.471 161.264 199.472 161.329V162.929C199.463 163.04 199.478 163.151 199.514 163.255C199.55 163.36 199.608 163.456 199.683 163.537C199.758 163.619 199.849 163.683 199.95 163.728C200.052 163.772 200.161 163.795 200.272 163.795C200.383 163.795 200.492 163.772 200.594 163.728C200.695 163.683 200.786 163.619 200.862 163.537C200.937 163.456 200.994 163.36 201.03 163.255C201.067 163.151 201.081 163.04 201.072 162.929V161.329C201.072 161.297 201.079 161.264 201.091 161.234C201.104 161.204 201.123 161.177 201.146 161.154C201.169 161.131 201.197 161.113 201.227 161.101C201.258 161.089 201.29 161.083 201.323 161.084C201.355 161.083 201.388 161.089 201.418 161.101C201.448 161.113 201.475 161.131 201.498 161.154C201.521 161.177 201.539 161.204 201.551 161.234C201.563 161.265 201.569 161.297 201.569 161.329V162.929C201.569 163.1 201.536 163.269 201.471 163.427C201.406 163.585 201.31 163.729 201.19 163.849C201.069 163.97 200.925 164.066 200.768 164.131C200.61 164.196 200.44 164.229 200.27 164.228Z" fill="white"/>
<path d="M203.675 163.005H203.123V163.983C203.123 164.049 203.097 164.113 203.05 164.16C203.003 164.207 202.939 164.233 202.872 164.233C202.806 164.233 202.742 164.207 202.695 164.16C202.648 164.113 202.622 164.049 202.622 163.983V161.329C202.623 161.265 202.649 161.203 202.695 161.157C202.741 161.111 202.803 161.085 202.867 161.084H203.675C203.807 161.074 203.939 161.092 204.064 161.136C204.189 161.18 204.303 161.249 204.4 161.339C204.497 161.429 204.574 161.538 204.627 161.66C204.68 161.781 204.707 161.912 204.707 162.044C204.707 162.176 204.68 162.307 204.627 162.429C204.574 162.55 204.497 162.659 204.4 162.749C204.303 162.839 204.189 162.908 204.064 162.952C203.939 162.996 203.807 163.014 203.675 163.005ZM203.123 162.503H203.675C203.735 162.503 203.795 162.491 203.851 162.468C203.907 162.445 203.958 162.411 204.001 162.368C204.044 162.325 204.078 162.274 204.101 162.218C204.124 162.162 204.136 162.102 204.136 162.042C204.136 161.981 204.124 161.921 204.101 161.865C204.078 161.809 204.044 161.758 204.001 161.715C203.958 161.672 203.907 161.638 203.851 161.615C203.795 161.592 203.735 161.58 203.675 161.58H203.123V162.503Z" fill="white"/>
<path d="M208.154 65.7429C211.345 65.7429 213.932 63.156 213.932 59.965C213.932 56.7739 211.345 54.187 208.154 54.187C204.963 54.187 202.376 56.7739 202.376 59.965C202.376 63.156 204.963 65.7429 208.154 65.7429Z" fill="#39434F"/>
<path d="M181.431 85.4235C183.669 85.4235 185.484 83.6091 185.484 81.3709C185.484 79.1328 183.669 77.3184 181.431 77.3184C179.193 77.3184 177.378 79.1328 177.378 81.3709C177.378 83.6091 179.193 85.4235 181.431 85.4235Z" fill="#ECEFF2"/>
<path d="M203.46 83.6784C202.065 84.5435 200.541 85.1802 198.946 85.5643C195.123 86.4942 191.091 85.9488 187.653 84.037C184.214 82.1251 181.623 78.9874 180.397 75.2497C179.17 71.5121 179.397 67.4492 181.033 63.8717C182.669 60.2942 185.594 57.465 189.224 55.9485C192.854 54.432 196.922 54.3398 200.617 55.6901C204.311 57.0405 207.361 59.7341 209.158 63.2338C210.955 66.7335 211.366 70.7818 210.31 74.5713C209.254 78.3607 206.807 81.6127 203.46 83.6784Z" fill="#9EEACC"/>
<path d="M199.994 68.5865C199.994 69.5274 199.715 70.4473 199.192 71.2298C198.67 72.0123 197.927 72.6224 197.058 72.983C196.189 73.3435 195.232 73.4383 194.309 73.2555C193.386 73.0727 192.538 72.6203 191.872 71.9557C191.206 71.291 190.752 70.4438 190.567 69.5212C190.382 68.5985 190.475 67.6418 190.834 66.7719C191.192 65.902 191.801 65.1579 192.582 64.6337C193.364 64.1095 194.283 63.8287 195.224 63.8267C195.85 63.8247 196.47 63.9464 197.049 64.1848C197.628 64.4231 198.154 64.7735 198.597 65.2158C199.041 65.658 199.392 66.1834 199.632 66.7619C199.871 67.3403 199.994 67.9604 199.994 68.5865Z" fill="white"/>
<path d="M203.459 81.7172V83.6783C202.065 84.5434 200.541 85.18 198.945 85.5641C196.93 86.0617 194.836 86.1508 192.786 85.826C190.736 85.5013 188.771 84.7693 187.008 83.6733V81.7172C186.981 80.6203 187.174 79.529 187.575 78.5076C187.976 77.4862 188.577 76.5555 189.344 75.77C190.11 74.9846 191.026 74.3604 192.037 73.9343C193.048 73.5081 194.134 73.2886 195.231 73.2886C196.329 73.2886 197.415 73.5081 198.426 73.9343C199.437 74.3604 200.353 74.9846 201.119 75.77C201.885 76.5555 202.487 77.4862 202.888 78.5076C203.289 79.529 203.482 80.6203 203.454 81.7172H203.459Z" fill="white"/>
<path d="M239.552 53.5197C239.552 53.5197 243.063 77.9405 242.827 80.2627C242.591 82.5849 239.727 105.095 239.727 105.095C239.727 105.095 233.297 103.711 231.442 102.587C230.107 101.79 225.383 97.7169 225.383 97.7169C225.383 97.7169 233.408 82.0182 234.07 78.8333C234.732 75.6484 235.168 60.2055 235.936 57.0958C236.191 56.1644 236.657 55.304 237.297 54.5806C237.937 53.8572 238.734 53.2901 239.627 52.9229" fill="#9EEACC"/>
<path d="M231.998 87.3996C232.442 88.2877 233.127 89.0333 233.974 89.5513C234.411 89.8472 235.253 90.4792 235.519 89.6616C235.589 89.3422 235.55 89.0086 235.409 88.7137C235.196 88.1484 234.887 87.6241 234.496 87.1639C234.024 86.5871 233.242 85.8297 232.419 85.9702C231.597 86.1106 231.752 86.8278 231.998 87.3996Z" fill="#39434F"/>
<path d="M237.14 91.322C237.214 92.3916 237.628 93.4094 238.323 94.226C238.669 94.5871 239.071 94.7025 239.382 94.4517C239.693 94.2009 239.858 93.6592 239.883 93.2279C239.993 92.1926 239.801 91.1476 239.331 90.2186C239.035 89.6418 238.514 88.8393 237.746 89.0148C236.784 89.2656 237.044 90.6148 237.14 91.322Z" fill="#39434F"/>
<path d="M233.217 90.9106C232.781 91.2516 233.217 92.5657 233.623 93.1877C234.125 93.9801 234.993 94.8829 235.71 94.5419C236.071 94.3663 236.121 93.3883 235.329 92.1595C234.586 91.031 233.578 90.6397 233.217 90.9106Z" fill="#39434F"/>
<path d="M231.02 98.153C231.19 98.4891 231.562 99.0809 231.998 99.101C232.434 99.121 232.5 98.6797 232.5 98.3587C232.483 97.8576 232.39 97.3619 232.224 96.8891C232.018 96.2471 231.637 95.6904 231.02 95.6553C229.801 95.5901 230.799 97.7217 231.02 98.153Z" fill="#39434F"/>
<path d="M269.605 167.348C269.605 167.348 280.539 186.708 280.544 186.708C282.299 190.605 283.769 194.056 284.366 195.911C284.368 195.921 284.368 195.932 284.366 195.941C284.552 196.361 284.639 196.817 284.622 197.276C284.622 197.276 284.622 197.301 284.622 197.311C283.814 198.62 253.064 213.566 251.815 213.727C250.566 213.887 250.014 210.341 250.746 208.806C251.479 207.272 260.697 196.267 260.697 196.267L249.959 176.857L269.605 167.348Z" fill="#FFC4C0"/>
<path d="M252.306 213.602C253.55 213.441 283.814 198.61 284.617 197.301V197.266C284.634 196.808 284.547 196.351 284.361 195.932C284.363 195.928 284.364 195.924 284.364 195.919C284.364 195.915 284.363 195.911 284.361 195.907C283.764 194.051 282.294 190.595 280.544 186.698C280.544 186.698 278.698 183.318 277.966 182.144L258.405 192.255L260.682 196.268C260.682 196.268 251.96 207.142 251.228 208.676C250.496 210.211 251.052 213.792 252.306 213.602Z" fill="#ECEFF2"/>
<path d="M251.74 213.185C252.998 212.994 283.639 197.21 284.421 195.866C284.727 195.365 282.686 190.765 280.063 185.278C280.063 185.223 280.007 185.163 279.977 185.108L260.101 195.069L260.281 195.4C260.281 195.4 251.253 206.69 250.546 208.255C249.839 209.82 250.486 213.381 251.74 213.185Z" fill="#9EEACC"/>
<path d="M251.479 211.821C256.575 209.032 277.409 198.279 282.661 195.901C282.701 195.901 282.716 195.901 282.661 195.931C277.645 198.805 256.75 209.398 251.504 211.901C251.399 211.956 251.368 211.876 251.479 211.821Z" fill="white"/>
<path d="M258.651 196.318C260.487 194.894 263.135 193.921 265.432 194.573C265.522 194.598 265.482 194.723 265.407 194.733C263.143 195.108 260.925 195.723 258.791 196.569C258.759 196.581 258.723 196.581 258.69 196.569C258.658 196.557 258.631 196.534 258.614 196.504C258.597 196.473 258.591 196.438 258.598 196.404C258.605 196.37 258.624 196.339 258.651 196.318Z" fill="#39434F"/>
<path d="M257.638 197.958C259.473 196.528 262.122 195.56 264.419 196.212C264.509 196.237 264.474 196.363 264.419 196.373C262.155 196.749 259.937 197.364 257.803 198.209C257.77 198.23 257.729 198.238 257.69 198.23C257.651 198.222 257.617 198.199 257.595 198.166C257.573 198.133 257.565 198.092 257.573 198.053C257.581 198.014 257.605 197.98 257.638 197.958Z" fill="#39434F"/>
<path d="M256.625 199.598C258.465 198.168 261.108 197.2 263.411 197.852C263.496 197.852 263.461 198.003 263.385 198.013C261.12 198.388 258.9 199.003 256.765 199.849C256.732 199.861 256.697 199.861 256.664 199.849C256.632 199.837 256.604 199.814 256.587 199.783C256.57 199.753 256.565 199.718 256.572 199.684C256.578 199.65 256.597 199.619 256.625 199.598Z" fill="#39434F"/>
<path d="M276.687 191.147C278.337 188.89 281.843 191.448 280.198 193.71C278.553 195.972 275.037 193.404 276.687 191.147Z" fill="white"/>
<path opacity="0.1" d="M258.922 197.095L256.72 210.853C255.098 211.714 253.434 212.492 251.734 213.185C250.48 213.381 249.838 209.815 250.536 208.255C251.082 207.071 256.414 200.305 258.922 197.095Z" fill="#39434F"/>
<path d="M250.707 212.327C250.27 212.829 251.339 214.605 251.81 214.544C252.281 214.484 285.61 197.13 286.111 196.714C286.613 196.298 285.359 194.362 284.642 194.597C283.925 194.833 250.707 212.327 250.707 212.327Z" fill="#39434F"/>
<path d="M278.016 180.338L255.978 192.105C255.978 192.105 228.161 152.482 227.61 142.05C226.837 127.665 239.12 81.9981 239.12 81.9981L258.711 81.8677C258.711 81.8677 250.746 128.828 251.399 136.838C251.735 141.031 278.016 180.338 278.016 180.338Z" fill="#606873"/>
<path d="M254.057 187.551C255.19 186.733 265.638 180.68 273.593 176.812C273.643 176.812 273.678 176.863 273.633 176.893C271.22 178.488 255.627 187.029 254.117 187.636C254.067 187.656 254.007 187.586 254.057 187.551Z" fill="#39434F"/>
<path d="M248.675 126.807C249.583 119.936 250.586 113.069 251.73 106.243C252.873 99.417 254.082 92.5106 255.522 85.6794C255.695 84.8468 255.874 84.0109 256.058 83.1716C256.064 83.145 256.079 83.1216 256.102 83.1065C256.124 83.0915 256.152 83.086 256.179 83.0913C256.205 83.0967 256.229 83.1123 256.244 83.1349C256.259 83.1575 256.264 83.1851 256.259 83.2117C255.055 89.9727 253.811 96.7287 252.703 103.505C251.594 110.281 250.556 117.047 249.623 123.878C249.393 125.563 249.172 127.248 248.951 128.934C248.682 130.671 248.514 132.423 248.45 134.18C248.418 135.858 248.702 137.527 249.287 139.1C249.909 140.638 250.665 142.118 251.544 143.524C255.09 149.518 270.96 175.719 271.371 176.481C271.401 176.531 271.331 176.582 271.301 176.531C267.489 170.623 255.672 151.744 252.081 145.651C250.456 142.902 248.6 140.133 248.068 136.913C247.527 133.598 248.234 130.112 248.675 126.807Z" fill="#39434F"/>
<path d="M254.318 180.338C254.318 180.338 254.538 202.688 254.538 202.703C254.423 206.976 254.242 210.728 253.967 212.654C253.969 212.664 253.969 212.674 253.967 212.684C253.952 213.143 253.832 213.593 253.616 213.998H253.59C252.296 214.825 218.105 214.876 216.912 214.499C215.718 214.123 216.761 210.668 218.09 209.609C219.419 208.551 232.5 202.673 232.5 202.673V180.338H254.318Z" fill="#FFC4C0"/>
<path d="M254.493 198.113C254.493 198.113 254.538 202.688 254.538 202.703C254.423 206.976 254.242 210.728 253.967 212.654C253.969 212.664 253.969 212.674 253.967 212.684C253.904 213.135 253.786 213.576 253.616 213.998H253.59C252.296 214.825 218.105 214.876 216.912 214.499C215.718 214.123 216.761 210.667 218.09 209.609C219.419 208.551 232.5 202.673 232.5 202.673V198.013L254.493 198.113Z" fill="#ECEFF2"/>
<path d="M216.891 214.459C218.1 214.841 252.562 214.239 253.856 213.381C254.358 213.06 254.558 208.034 254.633 201.956V201.755L232.394 201.895V202.277C232.394 202.277 219.309 208.406 217.98 209.499C216.651 210.592 215.678 214.078 216.891 214.459Z" fill="#9EEACC"/>
<path d="M217.258 213.115C223.061 212.869 246.503 212.428 252.261 212.613C252.311 212.613 252.311 212.648 252.261 212.653C246.513 213.019 223.071 213.27 217.258 213.195C217.132 213.21 217.132 213.12 217.258 213.115Z" fill="white"/>
<path d="M230.544 202.387C232.821 201.915 235.625 202.221 237.4 203.816C237.47 203.881 237.4 203.976 237.305 203.951C235.108 203.288 232.846 202.859 230.559 202.672C230.525 202.668 230.494 202.652 230.471 202.627C230.447 202.602 230.434 202.57 230.432 202.536C230.43 202.502 230.44 202.468 230.461 202.441C230.481 202.414 230.511 202.394 230.544 202.387Z" fill="#39434F"/>
<path d="M228.914 203.41C231.191 202.939 233.995 203.244 235.765 204.839C235.835 204.905 235.765 205 235.675 204.975C233.476 204.311 231.213 203.882 228.924 203.696C228.89 203.691 228.859 203.674 228.837 203.649C228.814 203.624 228.801 203.591 228.8 203.557C228.799 203.523 228.809 203.49 228.83 203.463C228.851 203.436 228.881 203.417 228.914 203.41Z" fill="#39434F"/>
<path d="M227.279 204.433C229.556 203.967 232.359 204.268 234.135 205.863C234.205 205.928 234.135 206.023 234.04 206.003C231.843 205.335 229.582 204.905 227.294 204.719C227.26 204.715 227.229 204.699 227.205 204.674C227.182 204.649 227.168 204.616 227.167 204.582C227.165 204.548 227.175 204.515 227.196 204.487C227.216 204.46 227.245 204.441 227.279 204.433Z" fill="#39434F"/>
<path d="M216.34 213.23C215.728 213.481 215.899 215.547 216.34 215.708C216.781 215.868 254.358 215.041 254.995 214.885C255.632 214.73 255.356 212.443 254.614 212.337C253.871 212.232 216.34 213.23 216.34 213.23Z" fill="#39434F"/>
<path d="M249.011 205.722C251.489 204.433 253.5 208.275 251.018 209.574C248.535 210.873 246.529 207.021 249.011 205.722Z" fill="white"/>
<path d="M239.361 81.9529C239.492 82.3592 246.529 101.649 247.196 101.96C247.943 102.306 231.647 129.691 230.674 142.411C230.057 150.551 231.271 196.579 231.271 196.579H255.105C255.105 196.579 253.957 155.18 253.415 142.06C253.204 136.974 269.781 111.65 269.966 95.8761C270.032 90.9057 266.455 81.8325 266.455 81.8325L239.361 81.9529Z" fill="#606873"/>
<path d="M253.294 141.749C253.294 141.538 253.46 141.468 253.475 141.683C254.012 148.786 254.137 155.842 254.478 162.955C254.819 170.067 254.624 171.757 254.94 178.844C255.12 182.856 254.94 186.869 255.04 190.881C255.037 190.891 255.03 190.9 255.022 190.906C255.013 190.912 255.003 190.916 254.992 190.916C254.982 190.916 254.971 190.912 254.963 190.906C254.954 190.9 254.948 190.891 254.945 190.881C254.202 183.829 253.299 145.766 253.294 141.749Z" fill="#39434F"/>
<path d="M230.689 142.712C230.728 140.96 230.896 139.213 231.191 137.485C231.521 135.806 232.015 134.163 232.665 132.58C233.979 129.26 235.539 126.02 237.029 122.775C238.519 119.53 240.073 116.209 241.663 112.959C242.556 111.134 243.454 109.31 244.357 107.487C245.274 105.647 246.263 103.836 247.221 102.015C247.256 101.945 247.371 102.015 247.336 102.07C245.806 105.351 244.301 108.641 242.772 111.921C241.242 115.201 239.762 118.496 238.258 121.787C236.753 125.077 235.304 128.267 233.909 131.542C233.216 133.101 232.648 134.713 232.209 136.362C231.804 138.071 231.558 139.814 231.477 141.568C231.246 145.636 231.136 149.723 230.734 153.781C230.734 153.831 230.644 153.826 230.644 153.781C230.524 150.095 230.579 146.388 230.689 142.712Z" fill="#39434F"/>
<path d="M233.012 191.909C234.396 191.729 244.959 191.363 253.791 191.739C253.803 191.739 253.814 191.743 253.823 191.752C253.831 191.76 253.836 191.772 253.836 191.784C253.836 191.796 253.831 191.807 253.823 191.816C253.814 191.824 253.803 191.829 253.791 191.829C250.912 192.085 234.642 192.195 233.022 192.01C232.966 192.005 232.946 191.914 233.012 191.909Z" fill="#39434F"/>
<path d="M243.915 100.907C246.47 101.551 248.963 102.415 251.369 103.49C251.389 103.497 251.406 103.512 251.415 103.532C251.425 103.552 251.426 103.574 251.419 103.595C251.411 103.616 251.396 103.632 251.376 103.642C251.357 103.651 251.334 103.652 251.313 103.645C248.806 102.863 246.268 102.14 243.815 101.207C243.781 101.19 243.754 101.161 243.74 101.125C243.725 101.09 243.724 101.05 243.736 101.014C243.748 100.978 243.773 100.947 243.806 100.927C243.839 100.907 243.878 100.9 243.915 100.907Z" fill="#39434F"/>
<path d="M241.508 84.5657C241.508 84.4855 241.653 84.4504 241.658 84.5657C241.934 87.4146 242.37 89.8973 242.882 92.5304C243.123 93.7542 244.813 100.475 246.895 99.7579C247.246 99.6375 247.396 99.2563 247.396 98.7197C247.315 98.0143 247.147 97.3218 246.895 96.6583C246.513 95.2539 246.172 93.8395 245.891 92.4101C245.37 89.7489 245.123 87.0415 245.154 84.33C245.154 84.3114 245.162 84.2935 245.175 84.2803C245.188 84.2672 245.206 84.2598 245.224 84.2598C245.243 84.2598 245.261 84.2672 245.274 84.2803C245.287 84.2935 245.295 84.3114 245.295 84.33C245.612 88.0612 246.211 91.7632 247.085 95.4044C247.537 97.1498 248.705 99.7278 246.874 100.194C245.044 100.661 243.333 96.3172 242.977 95.1135C242.032 91.6761 241.538 88.1305 241.508 84.5657Z" fill="#39434F"/>
<path d="M246.885 99.9384C247.124 100.379 247.333 100.834 247.512 101.303C247.687 101.659 247.794 102.045 247.828 102.441C247.828 102.516 247.732 102.536 247.682 102.491C247.426 102.162 247.22 101.797 247.07 101.408C246.865 100.987 246.649 100.57 246.453 100.144C246.435 100.088 246.437 100.028 246.46 99.9737C246.483 99.9196 246.525 99.8759 246.578 99.8506C246.631 99.8253 246.691 99.8203 246.748 99.8365C246.804 99.8526 246.853 99.8889 246.885 99.9384Z" fill="#39434F"/>
<path d="M250.852 148.75C250.732 145.365 250.35 141.809 251.464 138.538C252.072 136.939 252.799 135.389 253.641 133.899C254.463 132.311 255.274 130.709 256.073 129.094C259.258 122.664 262.257 116.129 264.936 109.468C266.23 106.263 267.383 102.973 267.845 99.5324C268.268 95.9169 268.043 92.2548 267.178 88.7188C266.977 87.8361 266.761 86.9584 266.521 86.0856C266.521 86.0255 266.601 85.9853 266.621 86.0505C267.749 89.3871 268.376 92.8723 268.482 96.3926C268.456 99.765 267.848 103.108 266.686 106.273C265.543 109.604 264.113 112.834 262.704 116.059C261.249 119.376 259.745 122.669 258.19 125.939C256.63 129.189 254.965 132.384 253.32 135.594C252.472 137.118 251.855 138.76 251.489 140.464C251.236 142.23 251.17 144.017 251.293 145.796C251.574 153.294 252.221 178.242 252.296 185.72C252.296 186.668 252.321 187.616 252.331 188.569C252.331 188.649 252.206 188.664 252.201 188.569C251.73 181.116 251.123 156.223 250.852 148.75Z" fill="#39434F"/>
<path d="M256.199 86.8079C256.199 86.7577 256.284 86.7678 256.289 86.8079C256.57 88.8743 256.73 91.0109 257.728 92.8817C258.641 94.6021 260.236 95.7105 261.972 96.4829C262.983 96.9167 264.016 97.2984 265.066 97.6265C265.141 97.6265 265.126 97.7669 265.041 97.7468C263.07 97.3406 261.069 96.8792 259.353 95.7707C257.518 94.587 256.575 92.6912 256.274 90.5696C256.116 89.3218 256.091 88.0609 256.199 86.8079Z" fill="#39434F"/>
<path d="M267.699 83.4623C267.654 83.5576 236.302 92.0991 235.951 91.8734C235.915 91.8734 234.621 91.1512 234.341 88.7286C234.26 88.0616 235.153 85.2178 235.178 83.0761C235.248 75.648 234.957 61.8552 236.979 54.4472C237.52 52.441 241.809 50.174 244.161 51.6235C254.759 58.1387 267.759 83.3369 267.699 83.4623Z" fill="#ECEFF2"/>
<path d="M242.586 51.0417C242.586 51.0417 243.75 66.8558 244.171 68.6915C244.462 69.9754 248.013 82.8855 249.838 92.2145C250.621 96.227 250.255 102.501 250.255 102.501C250.255 102.501 261.174 98.9554 264.519 96.6783C266.455 95.3593 270.773 89.6565 270.773 89.6565C270.773 89.6565 263.862 74.3239 259.925 68.5661C255.988 62.8082 248.504 52.8423 244.998 51.3877C243.419 50.7257 242.586 51.0417 242.586 51.0417Z" fill="#9EEACC"/>
<path d="M262.132 77.6545C261.874 77.7893 261.653 77.9866 261.49 78.2283C261.327 78.4701 261.227 78.7487 261.199 79.0388C260.932 79.8376 260.851 80.6868 260.963 81.5215C261.029 81.9729 261.229 82.64 261.816 82.5247C262.403 82.4093 262.729 81.4062 262.884 80.8946C263.04 80.383 263.501 77.0727 262.132 77.6545ZM257.483 81.4965C256.841 82.0281 256.911 83.1215 257.046 83.8488C257.139 84.4452 257.336 85.0208 257.628 85.549C257.763 85.8479 257.992 86.0945 258.28 86.2512C259.078 86.5772 259.138 85.529 259.198 85.0023C259.353 84.0217 259.23 83.0172 258.842 82.1033C258.581 81.5566 258.074 81.0049 257.483 81.4965ZM259.735 75.3875C259.233 75.3273 258.967 75.7035 258.827 76.2C258.644 76.7764 258.578 77.3833 258.631 77.9856C258.671 78.3517 258.752 78.9887 259.158 79.1391C259.564 79.2896 259.89 78.8733 260.036 78.5473C260.296 77.9505 260.818 75.5279 259.735 75.3875ZM252.131 100.942C251.745 101.729 250.957 101.077 250.325 100.31C250.325 99.4021 250.35 98.3036 250.325 97.12L250.496 97.2604C251.123 97.8125 251.618 98.498 251.945 99.2666C252.114 99.5083 252.219 99.7881 252.251 100.081C252.283 100.373 252.242 100.669 252.131 100.942ZM255.737 100.591L254.589 101.007C253.926 100.443 253.422 99.715 253.129 98.8955C253.029 98.5544 252.984 98.0177 253.405 97.8924C253.826 97.767 254.288 98.1732 254.559 98.419C254.987 98.8415 255.328 99.3443 255.562 99.8986C255.68 100.11 255.741 100.349 255.737 100.591ZM252.783 73.5067C253.259 73.4816 253.706 74.1587 253.917 74.5098C254.253 75.0955 254.465 75.7443 254.538 76.4157C254.589 76.8019 254.729 77.6194 254.368 77.9204C253.932 78.2765 253.51 77.8702 253.199 77.3135C252.582 76.5186 252.254 75.5364 252.271 74.5298C252.276 74.1787 252.317 73.5368 252.783 73.5067ZM256.354 87.5503C255.722 88.0167 255.993 88.9346 256.239 89.5314C256.641 90.486 257.307 91.3057 258.16 91.8937C258.516 92.1345 259.052 92.4254 259.434 92.285C259.815 92.1445 259.995 91.8335 259.935 91.332C259.761 90.2747 259.253 89.301 258.486 88.5534C258.024 88.0418 257.172 86.9634 256.354 87.5703V87.5503ZM260.326 87.7208C260.748 89.1302 261.525 89.727 261.891 89.5615C262.614 89.2355 262.488 88.0017 262.217 87.0938C262.007 86.3816 261.289 85.198 260.743 85.3083C260.296 85.4186 259.925 86.4418 260.326 87.7408V87.7208ZM245.821 63.1445C245.641 63.7206 245.361 64.2605 244.994 64.7394C244.688 65.1953 244.288 65.5802 243.82 65.8679C243.735 65.0404 243.645 64.0824 243.559 63.0693C243.806 62.8291 244.067 62.6047 244.342 62.3972C244.763 62.0712 245.566 61.3941 245.882 62.1965C245.969 62.517 245.948 62.8574 245.821 63.1645V63.1445ZM248.164 62.673C248.936 62.8084 249.413 61.9809 249.668 61.389C250.082 60.4434 250.214 59.3986 250.05 58.3797C249.979 57.9584 249.819 57.3766 249.458 57.186C249.097 56.9954 248.74 57.0957 248.414 57.4719C247.773 58.3299 247.422 59.3699 247.411 60.4411C247.351 61.1583 247.161 62.5226 248.164 62.6931V62.673ZM245.546 59.6637C244.873 60.8423 243.885 61.2887 243.509 61.0279C243.441 60.9781 243.39 60.9078 243.364 60.8273C243.364 60.6317 243.329 60.4311 243.309 60.2304C243.373 59.7037 243.534 59.1934 243.785 58.7258C244.257 57.9032 245.064 56.9603 245.791 57.2612C246.167 57.4518 246.273 58.4248 245.546 59.6988V59.6637ZM266.701 87.3045C266.325 87.806 266.501 88.443 266.862 89.0148C267.109 89.4524 267.426 89.847 267.8 90.1834C268.04 90.3941 268.432 90.6098 268.687 90.2837C268.943 89.9577 268.748 89.2806 268.602 88.9245C268.417 88.5082 267.449 86.3666 266.701 87.3396V87.3045ZM256.871 70.4622C256.681 70.6276 256.548 70.8472 256.487 71.0913C256.427 71.3354 256.444 71.5921 256.535 71.8264C256.608 72.2308 256.747 72.6204 256.946 72.98C257.076 73.2107 257.322 73.4816 257.608 73.301C257.894 73.1205 257.924 72.5336 257.904 72.2227C257.884 71.8515 257.708 69.9456 256.871 70.4973V70.4622Z" fill="#39434F"/>
<path d="M239.236 59.157C241.006 58.7357 242.496 54.0813 242.586 51.5835C242.586 51.413 241.924 50.5804 240.886 48.9403C240.254 47.9372 239.582 46.8087 239.04 45.7354L233.112 50.7509C234.176 51.9029 235.094 53.1815 235.845 54.5577C235.918 54.7057 235.977 54.8602 236.021 55.0192C236.029 55.0464 236.04 55.0732 236.051 55.0994C236.352 56.0273 237.526 59.5633 239.236 59.157Z" fill="#FFC4C0"/>
<path d="M236.808 56.0975C236.688 56.1627 236.568 56.2179 236.452 56.273C236.262 55.7715 236.121 55.3602 236.046 55.1194C236.039 55.0923 236.031 55.0655 236.021 55.0392C235.976 54.8788 235.917 54.7228 235.845 54.5727C235.093 53.1986 234.175 51.9218 233.112 50.7709L239.04 45.7554C239.156 45.9811 239.271 46.2068 239.396 46.4375C240.083 48.8851 240.866 53.9408 236.808 56.0975Z" fill="#39434F"/>
<path d="M236.181 38.4679C238.127 40.4741 240.389 47.9975 239.476 50.425C238.152 53.9109 234.23 56.1829 230.825 54.1917C227.529 52.2607 224.756 42.3801 225.939 40.0177C227.685 36.5319 233.307 35.4937 236.181 38.4679Z" fill="#FFC4C0"/>
<path d="M231.617 46.3271C231.617 46.3271 231.662 46.3271 231.672 46.3572C231.838 46.8588 232.114 47.4105 232.625 47.4105C232.625 47.4105 232.65 47.4105 232.625 47.4406C232.054 47.566 231.697 46.8337 231.617 46.3271Z" fill="#39434F"/>
<path d="M231.868 45.6451C232.645 45.289 233.303 46.8739 232.58 47.1999C231.858 47.5259 231.216 45.946 231.868 45.6451Z" fill="#39434F"/>
<path d="M228.829 47.5161C228.829 47.5161 228.803 47.5562 228.829 47.5763C229.044 48.0779 229.215 48.6496 228.829 48.9957C228.829 48.9957 228.829 49.0308 228.829 48.9957C229.33 48.7198 229.089 47.9424 228.829 47.5161Z" fill="#39434F"/>
<path d="M228.156 47.185C227.344 47.4508 227.936 49.0608 228.688 48.81C229.44 48.5592 228.828 46.9643 228.156 47.185Z" fill="#39434F"/>
<path d="M232.094 44.3659C231.861 44.3969 231.626 44.4153 231.392 44.421C231.149 44.4774 230.895 44.4509 230.669 44.3458C230.603 44.2996 230.554 44.2325 230.53 44.1552C230.507 44.0779 230.51 43.9949 230.539 43.9195C230.619 43.7814 230.733 43.6669 230.872 43.5876C231.01 43.5083 231.167 43.4671 231.326 43.4681C231.651 43.4204 231.982 43.4955 232.254 43.6787C232.314 43.7238 232.359 43.7852 232.384 43.8554C232.41 43.9256 232.414 44.0017 232.397 44.0744C232.38 44.1471 232.342 44.2134 232.289 44.2651C232.235 44.3168 232.167 44.3518 232.094 44.3659Z" fill="#39434F"/>
<path d="M226.998 46.1066C227.193 45.9775 227.381 45.8368 227.559 45.6853C227.775 45.5197 227.961 45.4144 228.061 45.1436C228.077 45.0658 228.067 44.9848 228.033 44.9131C227.998 44.8415 227.941 44.7832 227.87 44.7473C227.719 44.6951 227.557 44.6847 227.401 44.7174C227.244 44.7501 227.1 44.8246 226.983 44.9329C226.709 45.1127 226.512 45.3881 226.431 45.7053C226.419 45.7768 226.428 45.8501 226.456 45.9169C226.484 45.9837 226.53 46.0413 226.589 46.0831C226.648 46.125 226.718 46.1494 226.79 46.1535C226.862 46.1576 226.934 46.1414 226.998 46.1066Z" fill="#39434F"/>
<path d="M232.941 49.1713C232.896 49.4165 232.801 49.6499 232.663 49.857C232.524 50.064 232.344 50.2403 232.134 50.375C231.953 50.4948 231.755 50.5878 231.547 50.6509L231.427 50.6809L231.311 50.711C231.283 50.7165 231.253 50.7126 231.227 50.7C231.201 50.6873 231.179 50.6666 231.166 50.6408V50.5856V50.5455C231 50.1744 230.8 49.5825 230.8 49.5825C230.689 49.7079 230.118 50.3148 230.047 50.1142C229.388 48.3955 228.906 46.6141 228.608 44.7977C228.611 44.7876 228.618 44.7789 228.626 44.7727C228.635 44.7665 228.645 44.7632 228.656 44.7632C228.666 44.7632 228.676 44.7665 228.685 44.7727C228.694 44.7789 228.7 44.7876 228.703 44.7977C229.32 46.3826 229.656 48.0678 230.253 49.6678C230.456 49.4489 230.687 49.2582 230.94 49.101C231 49.101 231.306 50.2496 231.397 50.4101C231.718 50.3133 232.017 50.1529 232.276 49.9384C232.534 49.7238 232.747 49.4596 232.901 49.1612C232.901 49.101 232.956 49.1211 232.941 49.1713Z" fill="#39434F"/>
<path d="M238.95 45.7303C237.505 45.9961 236.317 42.4953 236.317 42.4953C236.317 42.4953 234.376 42.415 232.781 39.4057C232.781 39.4057 232.635 42.9166 226.647 44.1353C226.134 43.174 225.935 42.0757 226.08 40.9956C225.837 42.1753 225.693 43.3731 225.649 44.5767C225.649 44.5767 222.694 40.2433 226.225 37.2088C227.63 36.0051 230.148 35.328 234.516 35.9499C234.516 35.9499 234.516 33.4421 235.018 33.6177C235.519 33.7932 235.404 36.1255 235.404 36.1255C235.404 36.1255 236.883 35.0722 237.275 35.328C237.666 35.5838 236.161 36.4816 236.161 36.4816C236.984 36.5027 237.772 36.8179 238.382 37.37C238.992 37.9221 239.384 38.6746 239.487 39.4909C239.988 42.3247 239.667 45.5999 238.95 45.7303Z" fill="#39434F"/>
<path d="M235.7 36.612C236.418 36.3479 237.209 36.355 237.922 36.632C238.636 36.909 239.224 37.4369 239.577 38.1167C239.931 38.937 240.092 39.8275 240.048 40.7198C240.015 41.6511 239.865 42.5746 239.602 43.4683C239.602 43.5185 239.511 43.4683 239.526 43.4382C239.738 42.62 239.822 41.7743 239.777 40.9304C239.775 40.1111 239.645 39.2971 239.391 38.5179C239.12 37.8098 238.592 37.23 237.913 36.8943C237.233 36.5586 236.451 36.4918 235.725 36.7073C235.68 36.7123 235.654 36.6321 235.7 36.612Z" fill="#39434F"/>
<path d="M229.255 35.333C230.308 35.2317 231.371 35.2688 232.415 35.4434C233.415 35.563 234.387 35.8531 235.289 36.301C235.334 36.301 235.289 36.3963 235.259 36.3762C233.413 35.8237 231.483 35.6079 229.561 35.7393C227.785 35.8095 225.869 36.4415 225.047 38.1668C225.047 38.1969 224.992 38.1668 225.002 38.1668C225.669 36.3863 227.509 35.5286 229.255 35.333Z" fill="#39434F"/>
<path d="M237.591 45.0882C237.591 45.0882 238.092 42.0789 239.366 42.1341C240.64 42.1892 241.062 46.0412 240.079 47.0694C239.961 47.2097 239.817 47.3249 239.654 47.4082C239.491 47.4915 239.313 47.5412 239.13 47.5543C238.948 47.5674 238.765 47.5436 238.591 47.4844C238.418 47.4253 238.259 47.3319 238.122 47.2098L237.591 45.0882Z" fill="#FFC4C0"/>
<path d="M239.451 43.2627C239.451 43.2627 239.487 43.2627 239.476 43.2928C238.799 44.0451 238.734 45.0382 238.819 45.9962C238.827 45.8883 238.859 45.7835 238.911 45.6889C238.964 45.5943 239.036 45.5122 239.123 45.4483C239.21 45.3844 239.311 45.3402 239.417 45.3187C239.523 45.2973 239.632 45.2991 239.737 45.3241C239.767 45.3241 239.762 45.3743 239.737 45.3793C239.567 45.4044 239.408 45.4814 239.282 45.5998C239.156 45.7182 239.07 45.8723 239.035 46.0413C238.981 46.3256 238.958 46.6148 238.965 46.904C238.965 46.9993 238.804 47.0244 238.794 46.904C238.248 45.8106 238.358 43.9047 239.451 43.2627Z" fill="#39434F"/>
<path d="M248.961 58.7106C251.504 67.6182 253.119 84.3953 251.83 87.4448C250.686 90.1432 242.094 96.4126 237.154 99.763C235.544 100.856 227.75 88.5382 229.53 87.4648C231.958 86.0103 240.66 80.2575 240.871 79.6355C241.081 79.0136 241.874 66.4045 243.213 59.177C244.417 52.6267 248.003 55.3401 248.961 58.7106Z" fill="#FFC4C0"/>
<path d="M213.09 101.99C214.308 103.234 217.102 99.9836 217.102 99.9836C216.946 100.717 217.051 101.481 217.398 102.145C218.07 103.284 220.147 102.732 220.147 102.732C220.147 103.526 220.384 104.301 220.829 104.959C221.581 105.962 223.758 105.726 223.758 105.726C224.158 106.456 224.808 107.017 225.588 107.306C227.705 107.999 230.168 105.621 231.983 104.448C234.108 102.977 236.003 101.199 237.606 99.1711L230.333 87.2642C230.333 87.2642 219.981 89.8422 218.241 91.733C216.751 93.323 211.234 100.094 213.09 101.99Z" fill="#FFC4C0"/>
<path d="M217.107 99.9385C218.256 97.8771 219.901 96.0866 221.501 94.3813C221.536 94.3462 221.596 94.3813 221.561 94.4364C219.946 96.1167 218.742 98.2683 217.197 100.009C217.187 100.016 217.174 100.019 217.162 100.019C217.149 100.019 217.137 100.014 217.127 100.006C217.117 99.9985 217.109 99.9878 217.106 99.9756C217.102 99.9634 217.103 99.9505 217.107 99.9385Z" fill="#39434F"/>
<path d="M220.086 102.551C220.39 102.107 220.753 101.705 221.165 101.358C221.576 100.962 221.997 100.57 222.418 100.189C223.271 99.4201 224.14 98.6761 225.027 97.9572C225.067 97.9271 225.122 97.9572 225.082 98.0124C224.239 98.7798 223.406 99.5572 222.574 100.355C222.168 100.756 221.761 101.157 221.36 101.563C221.007 101.971 220.61 102.34 220.176 102.662C220.162 102.665 220.147 102.664 220.133 102.659C220.119 102.654 220.107 102.646 220.098 102.634C220.088 102.623 220.082 102.609 220.08 102.594C220.078 102.58 220.08 102.565 220.086 102.551Z" fill="#39434F"/>
<path d="M223.813 105.681C224.097 105.292 224.445 104.953 224.841 104.678L226.02 103.675C226.802 102.983 227.58 102.291 228.337 101.579C228.344 101.571 228.355 101.566 228.365 101.565C228.376 101.565 228.387 101.569 228.395 101.576C228.403 101.583 228.407 101.594 228.408 101.604C228.408 101.615 228.405 101.626 228.397 101.634C227.63 102.366 226.893 103.108 226.105 103.836C225.729 104.192 225.348 104.543 224.962 104.894C224.644 105.249 224.265 105.545 223.843 105.767C223.843 105.767 223.813 105.701 223.813 105.681Z" fill="#39434F"/>
<path d="M253.495 79.2745L239.667 79.445C239.667 79.445 241.443 64.2027 243.353 57.5671C244.958 51.9898 248.299 52.5014 250.135 59.7037C251.87 66.5149 253.495 79.2745 253.495 79.2745Z" fill="#9EEACC"/>
<path d="M253.244 77.3686L253.199 77.2933C252.582 76.4984 252.254 75.5162 252.271 74.5097C252.271 74.1937 252.312 73.6219 252.688 73.5066C252.903 75.0413 253.104 76.3654 253.244 77.3686ZM242.486 64.6541C242.882 63.7446 243.525 62.9644 244.342 62.4021C244.763 62.0761 245.566 61.399 245.882 62.2015C245.966 62.5172 245.944 62.8517 245.821 63.1544C245.641 63.7305 245.361 64.2704 244.994 64.7494C244.557 65.3512 243.82 66.1537 242.988 66.0584C242.155 65.9632 242.275 65.2359 242.486 64.6641V64.6541ZM247.406 60.441C247.417 59.3698 247.768 58.3298 248.409 57.4718C248.735 57.0956 249.132 56.9702 249.453 57.1859C249.774 57.4016 249.954 57.9583 250.045 58.3796C250.209 59.3985 250.077 60.4433 249.663 61.389C249.398 61.9808 248.921 62.8084 248.159 62.6729C247.161 62.5225 247.351 61.1582 247.386 60.451L247.406 60.441ZM243.509 61.0529C243.053 60.7319 243.419 59.3978 243.785 58.7558C244.257 57.9332 245.064 56.9903 245.791 57.2912C246.162 57.4417 246.268 58.4147 245.541 59.6887C244.878 60.8774 243.875 61.3187 243.509 61.0629V61.0529ZM242.692 75.2069C242.616 75.573 242.411 76.2401 241.99 76.3755C241.568 76.5109 241.393 76.0996 241.317 75.7836C241.198 75.2915 241.161 74.7832 241.207 74.279C241.237 73.6019 241.463 72.9699 242.05 72.7743C243.213 72.4232 242.797 74.7404 242.692 75.2169V75.2069Z" fill="#39434F"/>
<path d="M241.513 76.5658C242.391 76.4442 243.275 76.3772 244.161 76.3652C245.074 76.315 245.987 76.3 246.9 76.2799C247.812 76.2599 251.444 76.3201 252.352 76.3351C252.392 76.3351 252.387 76.4053 252.352 76.4103C251.439 76.4605 247.812 76.6661 246.92 76.6812C246.027 76.6962 245.134 76.7213 244.241 76.7062C243.334 76.7275 242.426 76.6957 241.523 76.611C241.523 76.611 241.488 76.5708 241.513 76.5658Z" fill="#39434F"/>
<path d="M250.711 62.1963C251.042 63.6006 251.338 65.015 251.619 66.4294C251.9 67.8438 252.156 69.2682 252.412 70.6876C252.667 72.1071 252.883 73.5315 253.094 74.9609C253.204 75.6731 253.289 76.3904 253.37 77.1076C253.45 77.8248 253.53 78.5471 253.55 79.2743V79.3345H253.49L252.096 79.2944L253.485 79.2191L253.43 79.2793C253.264 77.8499 253.014 76.4305 252.773 75.0111L252.051 70.7478C251.825 69.3234 251.549 67.904 251.348 66.4796C251.148 65.0552 250.897 63.6307 250.711 62.1963Z" fill="#39434F"/>
<path d="M251.333 62.959C251.453 63.3868 251.514 63.8289 251.514 64.2731C251.521 64.7178 251.461 65.161 251.333 65.5871C251.285 65.1508 251.262 64.7121 251.263 64.2731C251.254 63.8339 251.278 63.3947 251.333 62.959Z" fill="#39434F"/>
<path d="M94.2407 186.576C94.2407 186.576 102.009 184.814 106.266 180.893C110.523 176.972 112.903 169.94 112.903 169.94C109.951 170.501 107.04 171.26 104.19 172.211C103.124 173.309 102.235 174.566 101.555 175.937C101.489 175.051 101.489 174.161 101.555 173.274C100.559 173.703 99.6277 174.269 98.7883 174.955C95.2356 178.086 94.2407 186.576 94.2407 186.576Z" fill="#9EEACC"/>
<path d="M108.051 173.356C109.11 172.624 110.186 171.916 111.231 171.18C111.245 171.171 111.255 171.158 111.259 171.142C111.263 171.126 111.26 171.11 111.252 171.096C111.243 171.082 111.23 171.072 111.214 171.068C111.198 171.064 111.181 171.067 111.168 171.075C109.169 172.27 107.193 173.547 105.262 174.887C104.594 175.341 103.944 175.836 103.295 176.332L103.431 176.104C103.663 175.714 103.912 175.332 104.158 174.946C104.644 174.167 105.196 173.432 105.807 172.747C105.83 172.72 105.807 172.684 105.766 172.711C105.162 173.406 104.558 174.096 104.008 174.837C103.744 175.191 103.499 175.555 103.267 175.927C103.149 176.118 103.031 176.313 102.918 176.513L102.804 176.713C101.8 177.504 100.819 178.326 99.8874 179.194C99.3104 179.73 98.7562 180.288 98.2201 180.861C98.5199 179.921 98.7789 178.971 99.1287 178.044C99.1287 178.012 99.0878 177.999 99.0787 178.044C98.738 179.016 98.37 179.993 98.1065 180.988C97.5008 181.633 96.9344 182.301 96.4075 182.992L96.4347 182.864C96.5256 182.501 96.6164 182.133 96.7118 181.77C96.9026 181.07 97.1071 180.37 97.3478 179.68C97.7936 178.249 98.5006 176.914 99.4331 175.741C99.4558 175.714 99.4331 175.677 99.3922 175.705C97.9376 177.519 96.9209 179.644 96.4211 181.915C96.3348 182.247 96.2575 182.578 96.1803 182.91C96.144 183.087 96.094 183.269 96.0667 183.45C95.8305 183.764 95.6124 184.086 95.3807 184.414C94.0559 186.438 92.9531 188.599 92.0916 190.86C91.1235 193.402 90.2925 195.993 89.6021 198.624C89.6021 198.674 89.6657 198.692 89.6838 198.624C91.2012 194.081 92.7549 189.47 95.3535 185.404C95.9031 184.547 96.496 183.72 97.1298 182.923C98.4341 182.845 99.7221 182.593 100.96 182.174C102.294 181.73 103.567 181.119 104.748 180.357C105.419 179.9 106.067 179.411 106.688 178.889C106.694 178.884 106.697 178.878 106.697 178.87C106.698 178.863 106.695 178.856 106.691 178.851C106.686 178.845 106.679 178.842 106.672 178.842C106.664 178.841 106.657 178.844 106.652 178.848C105.569 179.724 104.373 180.449 103.095 181.002C101.838 181.578 100.524 182.02 99.1741 182.319C98.6017 182.442 98.0202 182.537 97.4387 182.615C98.1512 181.729 98.9094 180.881 99.7102 180.075C99.9737 179.816 100.242 179.566 100.514 179.312C101.419 178.676 102.38 178.126 103.385 177.667C104.658 177.049 105.911 176.4 107.17 175.759C107.883 175.396 108.587 175.028 109.305 174.678C109.332 174.678 109.305 174.619 109.278 174.632C108.001 175.25 106.702 175.823 105.412 176.413C104.203 176.972 102.972 177.531 101.809 178.181L101.664 178.271C102.713 177.363 103.803 176.481 104.921 175.641C105.945 174.848 106.988 174.086 108.051 173.356Z" fill="#39434F"/>
<path d="M107.61 177.363C106.979 177.64 106.334 177.886 105.707 178.176C105.08 178.467 104.458 178.831 103.844 179.189C103.817 179.189 103.844 179.244 103.872 179.23C104.489 178.935 105.116 178.658 105.73 178.349C106.343 178.04 106.979 177.695 107.624 177.413C107.656 177.4 107.642 177.35 107.61 177.363Z" fill="#39434F"/>
<path d="M69.0039 147.429C70.4389 149.281 71.2515 151.539 71.3254 153.88C71.3254 154.575 71.2391 155.548 71.1573 156.688C73.0966 157.812 74.8147 159.281 76.2273 161.022C74.6777 160.12 72.8973 159.693 71.1073 159.795C71.1455 160.576 71.2443 161.352 71.4026 162.117C72.5322 162.118 73.6509 162.338 74.6963 162.766C73.6758 162.756 72.6643 162.958 71.7252 163.357C73.1108 167.764 77.2267 172.288 88.5933 174.21C89.7999 168.808 89.0884 163.154 86.5807 158.219C83.1735 151.518 69.0039 147.429 69.0039 147.429Z" fill="#9EEACC"/>
<path d="M92.5277 193.077C92.3323 191.196 92.0734 189.315 91.7917 187.448C91.2239 183.703 90.4657 179.99 89.5202 176.322C89.0765 174.601 88.5288 172.908 87.8802 171.252C87.9133 170.951 87.9284 170.647 87.9256 170.344C87.9256 169.98 87.9256 169.617 87.9256 169.254C87.9256 168.527 87.8802 167.8 87.8211 167.073C87.7062 165.636 87.4722 164.21 87.1215 162.812C86.9125 162.003 86.6672 161.203 86.4355 160.404C86.4334 160.399 86.4299 160.395 86.4255 160.392C86.421 160.389 86.4158 160.387 86.4105 160.387C86.4052 160.387 86.4 160.389 86.3956 160.392C86.3912 160.395 86.3877 160.399 86.3855 160.404C86.7618 161.802 87.0411 163.224 87.2215 164.661C87.425 166.075 87.5539 167.499 87.6076 168.926C87.6076 169.317 87.6076 169.708 87.6076 170.099C87.6076 170.262 87.6076 170.43 87.6076 170.598C87.0503 169.241 86.4116 167.918 85.695 166.637C84.5372 164.606 83.2329 162.663 81.7926 160.822C81.786 160.608 81.7539 160.396 81.6972 160.19L81.5336 159.427C81.4155 158.909 81.2838 158.391 81.1429 157.878C80.8613 156.847 80.4887 155.852 80.1662 154.834C80.1662 154.802 80.1071 154.834 80.1162 154.834C80.4161 155.838 80.6159 156.883 80.8476 157.91C80.9612 158.414 81.0702 158.923 81.1838 159.432C81.2383 159.681 81.2929 159.936 81.3428 160.19V160.249C80.8885 159.668 80.4342 159.095 79.9345 158.532C77.7629 155.988 75.3915 153.639 72.9883 151.309C72.693 151.023 72.3931 150.745 72.0797 150.459C72.057 150.436 72.0206 150.459 72.0433 150.5C74.3148 152.89 76.5863 155.302 78.7215 157.832C79.2303 158.432 79.7255 159.041 80.2162 159.65L79.4439 159.136C78.7806 158.705 78.1128 158.282 77.4222 157.896C76.7317 157.51 76.0593 157.133 75.3279 156.783C74.5965 156.433 73.8196 156.129 73.1155 155.715C73.0882 155.715 73.061 155.752 73.0928 155.765C73.8104 156.097 74.5028 156.482 75.1644 156.915C75.8594 157.324 76.5273 157.737 77.2269 158.169C77.9265 158.6 78.5671 159.009 79.2303 159.441C79.7846 159.8 80.3297 160.19 80.9022 160.522C82.219 162.215 83.4326 163.985 84.5365 165.824C85.2256 166.981 85.8548 168.173 86.4219 169.394L86.013 169.217L84.9727 168.763L82.9601 167.886C81.6881 167.332 80.3933 166.823 79.1395 166.214C78.4342 165.883 77.7526 165.504 77.0997 165.079C77.0724 165.079 77.0497 165.106 77.0997 165.129C79.4302 166.732 82.0424 167.854 84.6229 169.008L85.7404 169.499C86.0448 169.635 86.3537 169.79 86.649 169.908C87.4112 171.616 88.0533 173.375 88.5707 175.173C89.587 178.793 90.4119 182.465 91.0421 186.172C91.6963 189.883 92.137 193.622 92.4777 197.375C92.5186 197.829 92.5595 198.31 92.614 198.778C92.6201 198.813 92.6383 198.845 92.6653 198.867C92.6923 198.89 92.7264 198.902 92.7616 198.902C92.7969 198.902 92.831 198.89 92.858 198.867C92.885 198.845 92.9032 198.813 92.9093 198.778C92.9229 196.866 92.7276 194.958 92.5277 193.077Z" fill="#39434F"/>
<path d="M85.6131 161.676C85.4041 160.518 85.0952 159.405 84.7863 158.255C84.7863 158.224 84.7272 158.255 84.7363 158.255C85.0225 159.364 85.2269 160.495 85.4359 161.626C85.6449 162.757 85.8357 163.925 85.9993 165.083H86.0311C85.9549 163.941 85.8154 162.803 85.6131 161.676Z" fill="#39434F"/>
<path d="M80.716 164.806C79.9251 164.287 79.0994 163.822 78.2446 163.416C77.8267 163.202 77.4087 162.998 76.9908 162.794C76.5728 162.589 76.0822 162.412 75.6778 162.194C75.6712 162.19 75.6634 162.189 75.6562 162.192C75.6489 162.194 75.6428 162.199 75.6392 162.205C75.6356 162.212 75.6348 162.22 75.6369 162.227C75.639 162.234 75.6439 162.24 75.6506 162.244C76.0685 162.448 76.4638 162.698 76.8726 162.925C77.2815 163.152 77.7085 163.38 78.131 163.616C78.9624 164.07 79.7802 164.556 80.6524 164.92C80.6599 164.924 80.6681 164.927 80.6766 164.928C80.685 164.929 80.6936 164.928 80.7019 164.926C80.7101 164.923 80.7178 164.919 80.7245 164.914C80.7312 164.909 80.7368 164.902 80.741 164.895C80.7452 164.887 80.7478 164.879 80.7488 164.871C80.7498 164.862 80.7492 164.853 80.7469 164.845C80.7445 164.837 80.7406 164.829 80.7353 164.823C80.73 164.816 80.7235 164.81 80.716 164.806Z" fill="#39434F"/>
<path opacity="0.1" d="M94.3813 173.12C94.3813 173.12 101.568 171.403 104.871 166.582C108.019 161.976 109.042 154.126 109.119 153.435C108.992 154.067 107.506 160.931 102.613 164.125C98.8653 166.573 95.2445 168.586 94.3813 173.12Z" fill="#39434F"/>
<path d="M101.014 160.699C99.7367 161.875 98.8184 163.389 98.3652 165.065C98.3652 165.088 98.3652 165.065 98.3652 165.065C98.8918 163.427 99.805 161.941 101.027 160.731C101.073 160.717 101.037 160.676 101.014 160.699Z" fill="#39434F"/>
<path d="M94.3813 173.12C94.3813 173.12 101.568 171.403 104.871 166.583C108.019 161.976 109.041 154.126 109.119 153.435C109.121 153.419 109.121 153.402 109.119 153.385C109.119 153.385 105.675 158.287 102.05 159.536C98.4245 160.786 93.3409 165.111 94.3813 173.12Z" fill="#9EEACC"/>
<path d="M107.856 156.088C107.21 157.409 106.468 158.68 105.634 159.89C104.795 161.036 103.799 162.059 102.677 162.93C101.7 163.707 100.669 164.411 99.6781 165.169C99.679 165.157 99.679 165.145 99.6781 165.133C99.8629 164.86 100.058 164.592 100.264 164.329C100.678 163.802 101.127 163.307 101.582 162.816C102.49 161.848 103.399 160.899 104.185 159.85C104.632 159.271 105.018 158.648 105.339 157.991C105.339 157.96 105.302 157.946 105.289 157.991C104.121 160.422 101.795 161.976 100.132 164.029C99.8947 164.319 99.6732 164.623 99.4692 164.938C99.3024 165.164 99.1636 165.41 99.0558 165.669C98.1449 166.397 97.3217 167.228 96.6025 168.145C96.6655 167.674 96.7612 167.208 96.8887 166.75C97.0579 166.112 97.3147 165.501 97.652 164.933C97.652 164.906 97.6247 164.879 97.6065 164.906C97.2581 165.477 96.9776 166.087 96.7706 166.723C96.6202 167.228 96.5317 167.75 96.5071 168.277C96.1531 168.759 95.8299 169.262 95.5395 169.785C95.5667 169.631 95.5985 169.481 95.6258 169.331C95.7712 168.613 95.9302 167.9 96.1119 167.191C96.4497 165.752 97.0354 164.382 97.8428 163.143C97.8457 163.14 97.8479 163.137 97.8492 163.133C97.8505 163.129 97.8509 163.125 97.8504 163.121C97.8499 163.117 97.8484 163.113 97.8462 163.109C97.8439 163.106 97.8409 163.103 97.8374 163.101C97.8339 163.099 97.8299 163.097 97.8258 163.097C97.8217 163.097 97.8175 163.097 97.8137 163.099C97.8098 163.1 97.8063 163.102 97.8035 163.105C97.8007 163.108 97.7986 163.112 97.7973 163.116C96.9711 164.337 96.3268 165.671 95.8847 167.077C95.6531 167.782 95.4713 168.499 95.3078 169.222C95.2306 169.576 95.1579 169.93 95.0897 170.289C95.0579 170.471 95.017 170.657 94.9852 170.848C94.2741 172.415 93.7187 174.047 93.327 175.723C92.6221 178.715 92.1107 181.75 91.7961 184.809C91.4315 188.006 91.2721 191.223 91.319 194.44C91.319 194.844 91.3508 195.249 91.369 195.648C91.369 195.753 91.5326 195.771 91.5371 195.648C91.6098 194.054 91.6507 192.468 91.7461 190.86C91.8415 189.252 91.9778 187.68 92.1459 186.085C92.4749 182.962 92.9754 179.859 93.6451 176.79C94.2266 174.165 94.9852 171.52 96.4208 169.217C97.1342 168.071 98.0077 167.032 99.0149 166.133C100.023 165.224 101.123 164.433 102.195 163.598C103.27 162.78 104.248 161.841 105.107 160.799C105.981 159.637 106.742 158.395 107.379 157.087C107.547 156.76 107.724 156.438 107.896 156.115C107.915 156.088 107.869 156.061 107.856 156.088Z" fill="#39434F"/>
<path d="M106.615 157.142C106.142 158.11 105.607 159.047 105.012 159.945C105.012 159.945 105.012 159.986 105.044 159.968C105.66 159.078 106.202 158.139 106.665 157.16C106.679 157.128 106.629 157.115 106.615 157.142Z" fill="#39434F"/>
<path d="M68.0001 169.94C68.0001 169.94 67.8866 180.157 73.9969 183.115C80.1072 186.072 83.3782 183.605 87.5305 184.596C87.3669 184.35 84.4049 180.094 79.6938 178.921C74.8419 177.699 69.4721 174.197 68.0001 169.94Z" fill="#9EEACC"/>
<path opacity="0.1" d="M68.0001 169.94C68.0001 169.94 67.8866 180.157 73.9969 183.115C80.1072 186.072 83.3782 183.605 87.5305 184.596C85.3374 183.551 82.9931 182.86 80.5842 182.547C76.7272 182.07 69.3676 179.557 68.0001 169.94Z" fill="#39434F"/>
<path d="M87.9303 184.768C87.2084 184.106 86.3943 183.552 85.5134 183.124C85.3817 183.06 85.2499 183.01 85.1136 182.951C85.0504 182.869 84.9821 182.792 84.9092 182.719C84.7275 182.528 84.5367 182.342 84.3368 182.169C83.9482 181.833 83.5317 181.531 83.092 181.265C82.0835 180.67 80.975 180.257 79.9392 179.703C79.9074 179.703 79.8801 179.734 79.9119 179.748C80.4253 180.016 80.9205 180.307 81.4156 180.598C81.9108 180.888 82.3969 181.152 82.8649 181.456C83.2896 181.729 83.6935 182.033 84.0733 182.365C84.1823 182.46 84.2868 182.56 84.3913 182.665C83.7177 182.441 83.0303 182.262 82.3333 182.129C81.2157 181.906 80.0618 181.742 78.967 181.506C78.4206 181.382 77.8808 181.23 77.3497 181.052C76.8408 180.643 76.3366 180.239 75.855 179.794C75.2724 179.277 74.7414 178.705 74.2695 178.085C74.2695 178.058 74.2014 178.085 74.2241 178.113C74.9646 179.114 75.8031 180.04 76.7273 180.875C76.4638 180.775 76.2048 180.67 75.9459 180.552C73.849 179.609 72.0489 178.113 70.7396 176.223C70.7396 176.195 70.676 176.223 70.6942 176.25C71.8073 177.871 73.2405 179.247 74.9055 180.293C75.7418 180.813 76.635 181.236 77.5677 181.552C78.651 181.887 79.756 182.148 80.875 182.333C81.9694 182.507 83.0502 182.758 84.1096 183.083C85.088 183.413 86.008 183.896 86.8354 184.514C88.3816 185.727 89.6256 187.282 90.4698 189.057C91.5635 191.413 92.2457 193.939 92.4869 196.525C92.4869 196.634 92.6686 196.634 92.6595 196.525C92.387 192.219 91.2421 187.748 87.9303 184.768Z" fill="#39434F"/>
<path d="M80.8433 181.438C80.5306 180.963 80.1063 180.571 79.6076 180.298C79.0273 179.999 78.5189 179.577 78.1175 179.062C78.0948 179.035 78.0494 179.062 78.0721 179.089C78.4368 179.559 78.8831 179.959 79.3896 180.271C79.9442 180.565 80.4328 180.97 80.8252 181.461C80.8206 181.483 80.857 181.461 80.8433 181.438Z" fill="#39434F"/>
<path d="M84.082 192.31L84.3592 197.925L85.2132 215.088H98.0245L98.8785 197.925L99.1557 192.31H84.082Z" fill="#39434F"/>
<path d="M84.082 192.31L84.3592 197.925H98.8785L99.1557 192.31H84.082Z" fill="#39434F"/>
<path d="M83.1875 195.321H100.056V189.961H83.1875V195.321Z" fill="#39434F"/>
</g>
<defs>
<clipPath id="clip0_7_41525">
<rect width="317" height="227" fill="white" transform="translate(27)"/>
</clipPath>
</defs>
</svg>
