<svg width="351" height="230" viewBox="0 0 351 230" fill="none" xmlns="http://www.w3.org/2000/svg">
<g clip-path="url(#clip0_7_41051)">
<rect width="351" height="230" rx="12.5" fill="#F7FAFC"/>
<g clip-path="url(#clip1_7_41051)">
<path opacity="0.8" d="M287.674 130.518C287.807 130.296 287.998 130.116 288.226 129.996C288.455 129.875 288.712 129.82 288.97 129.836H289.399H289.835C290.088 129.825 290.339 129.882 290.562 130.002C290.784 130.122 290.97 130.3 291.099 130.518L291.997 132.077L297.052 129.148L296.154 127.589C296.026 127.366 295.963 127.111 295.971 126.853C295.98 126.595 296.061 126.345 296.205 126.131C296.364 125.889 296.509 125.638 296.641 125.38C296.758 125.146 296.938 124.95 297.162 124.813C297.385 124.677 297.643 124.607 297.905 124.61H299.699V118.753H297.905C297.643 118.756 297.386 118.686 297.162 118.549C296.939 118.413 296.758 118.217 296.641 117.983C296.509 117.725 296.364 117.475 296.205 117.232C296.061 117.017 295.981 116.766 295.972 116.507C295.963 116.249 296.026 115.993 296.154 115.768L297.052 114.216L291.997 111.287L291.093 112.852C290.965 113.07 290.779 113.248 290.556 113.367C290.333 113.486 290.082 113.542 289.829 113.528H289.393H288.963C288.706 113.544 288.448 113.489 288.22 113.369C287.991 113.249 287.8 113.068 287.668 112.846L286.771 111.287L281.716 114.216L282.613 115.768C282.741 115.992 282.805 116.247 282.796 116.504C282.787 116.762 282.706 117.012 282.562 117.226C282.403 117.471 282.258 117.723 282.126 117.983C282.009 118.217 281.828 118.413 281.605 118.549C281.381 118.686 281.124 118.756 280.862 118.753H279.068V124.61H280.862C281.124 124.607 281.381 124.678 281.605 124.814C281.828 124.95 282.009 125.147 282.126 125.38C282.261 125.641 282.406 125.894 282.562 126.138C282.706 126.352 282.787 126.602 282.796 126.859C282.805 127.117 282.741 127.372 282.613 127.596L281.716 129.148L286.771 132.077L287.674 130.518ZM284.597 121.682C284.597 120.733 284.879 119.806 285.406 119.017C285.934 118.228 286.684 117.613 287.562 117.25C288.439 116.887 289.405 116.792 290.336 116.977C291.268 117.162 292.124 117.619 292.795 118.29C293.467 118.961 293.924 119.816 294.11 120.746C294.295 121.677 294.2 122.641 293.836 123.517C293.473 124.394 292.857 125.143 292.068 125.67C291.278 126.197 290.349 126.478 289.399 126.478C288.126 126.477 286.906 125.971 286.005 125.072C285.105 124.173 284.599 122.953 284.597 121.682Z" fill="#D9DFE6"/>
<path opacity="0.8" d="M98.6065 64.2306C98.7391 64.0093 98.9301 63.8287 99.1586 63.7085C99.387 63.5883 99.6441 63.5331 99.9018 63.5489H100.332H100.768C101.02 63.5376 101.271 63.595 101.494 63.715C101.717 63.8351 101.902 64.0133 102.031 64.2306L102.929 65.7894L107.984 62.861L107.087 61.3021C106.958 61.0786 106.895 60.8236 106.904 60.5659C106.913 60.3083 106.993 60.0583 107.137 59.8442C107.296 59.6019 107.441 59.3512 107.573 59.0931C107.69 58.8589 107.87 58.6624 108.094 58.5262C108.317 58.3899 108.575 58.3196 108.837 58.3232H110.632V52.4663H108.837C108.575 52.4691 108.318 52.3984 108.094 52.2623C107.871 52.1262 107.69 51.93 107.573 51.6963C107.441 51.4383 107.296 51.1875 107.137 50.9452C106.994 50.7299 106.913 50.4789 106.904 50.2203C106.895 49.9617 106.958 49.7058 107.087 49.481L107.984 47.9284L102.929 45L102.025 46.5652C101.897 46.7827 101.711 46.9608 101.488 47.08C101.265 47.1991 101.014 47.2546 100.761 47.2405H100.325H99.8955C99.6377 47.2571 99.3803 47.2022 99.1517 47.0819C98.9232 46.9616 98.7323 46.7806 98.6001 46.5589L97.7029 45L92.6477 47.9284L93.5449 49.481C93.6735 49.7046 93.7369 49.9596 93.7279 50.2172C93.719 50.4748 93.6381 50.7248 93.4944 50.9389C93.3356 51.1834 93.19 51.4362 93.0584 51.6963C92.9412 51.93 92.7605 52.1262 92.537 52.2623C92.3136 52.3984 92.0563 52.4691 91.7946 52.4663H90V58.3232H91.7946C92.0563 58.3203 92.3136 58.391 92.537 58.5271C92.7605 58.6633 92.9412 58.8594 93.0584 59.0931C93.1932 59.354 93.3385 59.6065 93.4944 59.8505C93.6381 60.0646 93.719 60.3146 93.7279 60.5723C93.7369 60.8299 93.6735 61.0849 93.5449 61.3084L92.6477 62.861L97.7029 65.7894L98.6065 64.2306ZM95.5291 55.3947C95.5291 54.446 95.8108 53.5187 96.3385 52.7299C96.8662 51.9411 97.6162 51.3263 98.4937 50.9632C99.3713 50.6002 100.337 50.5052 101.268 50.6903C102.2 50.8754 103.056 51.3322 103.727 52.003C104.399 52.6738 104.856 53.5285 105.042 54.4589C105.227 55.3894 105.132 56.3538 104.768 57.2303C104.405 58.1068 103.789 58.8559 103 59.3829C102.21 59.91 101.281 60.1913 100.332 60.1913C99.0584 60.1897 97.8378 59.6838 96.9376 58.7846C96.0373 57.8854 95.5308 56.6663 95.5291 55.3947Z" fill="#D9DFE6"/>
<path d="M62.3389 110.164V201.337H117.497V110.164H62.3389ZM67.3498 143.954H112.512V167.691H67.3498V143.954ZM67.3498 114.569H112.512V138.306H67.3498V114.569Z" fill="#D9DFE6"/>
<path d="M40.2729 201.337H62.3389L62.3389 110.17H40.2729L40.2729 201.337Z" fill="#D9DFE6"/>
<path d="M101.776 138.299H112.505V114.569H101.776V138.299Z" fill="#D9DFE6"/>
<path d="M112.442 195.846H67.1162V172.747H112.442V195.846ZM67.5775 195.373H111.981V173.22H67.5775V195.373Z" fill="#D9DFE6"/>
<path d="M87.2104 183.854H96.1265V179.348H87.2104V183.854Z" fill="#D9DFE6"/>
<path d="M93.7318 183.754H84.3418V179.456H93.7318V183.754ZM84.8157 183.28H93.2579V179.929H84.8157V183.28Z" fill="#D9DFE6"/>
<path d="M101.776 167.691H112.505V143.961H101.776V167.691Z" fill="#D9DFE6"/>
<path d="M62.9517 166.107C62.9517 166.107 68.108 147.627 72.2279 141.379C76.3479 135.131 84.0065 128.176 84.0065 128.176C84.0065 128.176 83.8359 156.671 62.9517 166.107Z" fill="#FFC542"/>
<path d="M63.3248 165.791C65.0611 162.898 66.6308 159.908 68.0261 156.836C68.6154 153.532 69.4713 150.282 70.5853 147.116C70.5853 147.059 70.6864 147.116 70.6738 147.154C69.9914 150.07 69.1952 152.967 68.4748 155.876C70.5537 151.376 72.5316 146.826 75.0086 142.572C75.5808 140.518 76.382 138.534 77.3972 136.658C77.3972 136.601 77.5173 136.658 77.492 136.69C76.8643 138.128 76.3261 139.603 75.8807 141.108C77.0494 139.212 78.359 137.406 79.7984 135.705C79.8869 135.598 80.0701 135.705 79.9817 135.825C76.6642 140.054 74.3767 144.857 72.203 149.71C74.5432 147.173 76.7032 144.476 78.6673 141.638C78.6673 141.638 78.7305 141.638 78.7116 141.669C76.6559 144.852 74.3304 147.853 71.7607 150.638C70.1746 154.204 68.6012 157.782 66.7055 161.171C70.4969 157.984 73.391 153.85 76.2724 149.868C76.3356 149.779 76.4746 149.868 76.4114 149.963C73.5363 154.336 70.5537 158.451 66.4085 161.689C65.5687 163.181 64.6446 164.625 63.6408 166.012C63.6054 166.029 63.5661 166.036 63.527 166.033C63.4878 166.03 63.4502 166.017 63.4181 165.994C63.3859 165.972 63.3603 165.941 63.3439 165.905C63.3275 165.87 63.3209 165.83 63.3248 165.791Z" fill="#39434F"/>
<path d="M61.9722 166.132C61.9722 166.132 71.2422 149.092 68.5503 132.569C65.8584 116.046 62.9769 110.164 62.9769 110.164C62.9769 110.164 48.4053 135.863 61.9722 166.132Z" fill="#FFC542"/>
<path d="M58.1681 139.341C58.9543 144.025 60.1511 148.631 61.7447 153.106C61.7447 147.041 61.89 140.975 62.0543 134.917C61.0111 131.236 60.4232 127.442 60.304 123.619C60.304 123.512 60.4683 123.518 60.4746 123.619C60.7646 126.896 61.3075 130.146 62.0986 133.339C62.2376 128.336 62.3998 123.333 62.5851 118.33C62.5895 118.316 62.5984 118.304 62.6103 118.295C62.6222 118.286 62.6367 118.282 62.6515 118.282C62.6663 118.282 62.6807 118.286 62.6926 118.295C62.7046 118.304 62.7134 118.316 62.7178 118.33C62.7178 126.144 62.7178 133.957 62.6673 141.771C63.7955 138.75 64.6871 135.646 65.3339 132.487C65.3339 132.455 65.3907 132.487 65.3907 132.487C65.0173 136.126 64.0948 139.688 62.6546 143.052C62.6167 148.05 62.5662 153.043 62.4524 158.035C64.0195 152.74 65.6814 147.602 66.149 142.01C66.1532 141.998 66.1612 141.987 66.172 141.979C66.1828 141.971 66.1958 141.967 66.2091 141.967C66.2224 141.967 66.2353 141.971 66.2461 141.979C66.2569 141.987 66.2649 141.998 66.2691 142.01C66.1427 148.202 64.544 154.482 62.4777 160.313C62.4546 160.368 62.4202 160.418 62.3766 160.458C62.326 162.282 62.2755 164.113 62.2123 165.937C62.2123 165.99 62.191 166.042 62.1531 166.079C62.1152 166.117 62.0637 166.139 62.0101 166.139C61.9565 166.139 61.905 166.117 61.8671 166.079C61.8292 166.042 61.8079 165.99 61.8079 165.937C61.7405 162.2 61.711 158.464 61.7194 154.728C59.707 149.826 58.4849 144.637 58.0986 139.353C58.0986 139.309 58.1618 139.297 58.1681 139.341Z" fill="#39434F"/>
<path d="M58.8066 136.709C59.124 138.192 59.3352 139.696 59.4385 141.209C59.4385 141.259 59.3627 141.266 59.3501 141.209C58.9901 139.733 58.7367 138.233 58.5918 136.721C58.5918 136.614 58.7814 136.595 58.8066 136.709Z" fill="#39434F"/>
<path d="M64.2217 124.25C64.2217 124.2 64.3102 124.219 64.3102 124.25C64.2964 125.301 64.1412 126.346 63.8489 127.356C63.8464 127.364 63.8423 127.372 63.8368 127.378C63.8313 127.385 63.8246 127.391 63.817 127.395C63.8093 127.399 63.801 127.401 63.7924 127.402C63.7837 127.403 63.775 127.402 63.7667 127.4C63.7584 127.397 63.7507 127.393 63.744 127.388C63.7373 127.382 63.7317 127.376 63.7276 127.368C63.7235 127.36 63.7209 127.352 63.7201 127.343C63.7192 127.335 63.72 127.326 63.7225 127.318C63.9247 126.308 64.0511 125.279 64.2217 124.25Z" fill="#39434F"/>
<path d="M58.5917 166.132C58.5917 166.132 58.9645 148.322 53.8588 139.486C48.753 130.65 40.2729 126.138 40.2729 126.138C40.2729 126.138 43.6915 157.511 58.5917 166.132Z" fill="#FFC542"/>
<path d="M49.252 150.922C51.3193 154.031 53.6444 156.962 56.2029 159.682C55.1855 156.047 53.9976 152.468 52.6643 148.953C49.8018 146.429 46.9772 143.847 45.2015 140.414C45.1948 140.402 45.1931 140.388 45.1966 140.375C45.2002 140.362 45.2088 140.351 45.2205 140.344C45.2322 140.338 45.2461 140.336 45.2592 140.34C45.2722 140.343 45.2833 140.352 45.29 140.363C47.1857 143.405 49.7133 145.835 52.361 148.177C50.3129 142.879 47.9388 137.713 45.2521 132.708C45.2402 132.682 45.2383 132.653 45.2468 132.626C45.2553 132.599 45.2737 132.576 45.2982 132.562C45.3227 132.548 45.3517 132.543 45.3794 132.549C45.4071 132.555 45.4315 132.571 45.448 132.594C47.0722 135.215 48.549 137.925 49.8713 140.71C49.3973 138.817 49.0119 136.867 48.519 134.98C48.5223 134.972 48.528 134.965 48.5353 134.96C48.5426 134.955 48.5512 134.952 48.5601 134.952C48.5689 134.952 48.5776 134.955 48.5849 134.96C48.5922 134.965 48.5979 134.972 48.6012 134.98C49.6085 137.409 50.3131 139.953 50.6991 142.553C52.4875 146.497 53.9911 150.563 55.1982 154.722C55.0655 152.058 54.9012 149.401 54.6232 146.744C54.6232 146.694 54.7053 146.681 54.7116 146.744C55.2826 149.696 55.5431 152.7 55.4889 155.706C56.2219 158.357 56.839 161.035 57.3403 163.74C57.3403 163.81 57.2455 163.848 57.2266 163.772C56.9549 162.636 56.6515 161.513 56.3419 160.395C56.3419 160.395 56.304 160.395 56.285 160.395C53.4371 157.651 51.061 154.457 49.252 150.941V150.922Z" fill="#39434F"/>
<path d="M43.3568 136.45C43.9255 137.081 44.4499 137.712 44.9997 138.344C45.5327 138.878 46.0249 139.452 46.472 140.06C46.4766 140.066 46.4788 140.074 46.4783 140.081C46.4777 140.089 46.4745 140.096 46.4691 140.101C46.4637 140.107 46.4566 140.11 46.449 140.111C46.4414 140.111 46.4339 140.109 46.4278 140.104C45.7884 139.623 45.2166 139.059 44.728 138.426C44.1914 137.836 43.7052 137.203 43.2746 136.532C43.243 136.463 43.3188 136.406 43.3568 136.45Z" fill="#39434F"/>
<path d="M73.1568 167.438L72.5249 175.864L70.5723 201.337H53.6753L51.7354 175.864L51.1035 167.438H73.22H73.1568Z" fill="#808B9A"/>
<path d="M73.1571 167.438L72.7653 172.557L51.5145 173.409L51.0596 167.438H73.176H73.1571Z" fill="#39434F"/>
<path d="M49.5553 169.761H74.6606V163.298H49.5553V169.761Z" fill="#808B9A"/>
<path d="M9.23779 201.277L49.703 201.138L90.1758 201.093L171.106 200.999L252.044 201.088L292.51 201.138L332.975 201.277L292.51 201.41L252.044 201.46L171.106 201.555L90.1758 201.46L49.703 201.41L9.23779 201.277Z" fill="#39434F"/>
<path d="M85.9969 200.429C87.9801 201.139 146.652 202.303 148.855 200.954C149.118 200.819 150.071 181.43 150.071 181.43C150 181.153 150.981 179.3 152.481 176.695C156.66 169.404 164.842 156.34 164.842 156.34L130.011 145.826L115.709 174.444L112.063 181.743C112.063 181.743 104.066 184.867 97.0858 187.983C92.8208 189.893 89.0463 191.64 88.172 192.293C85.9258 194.039 84.0208 199.733 85.9969 200.429Z" fill="#FFC4C0"/>
<path d="M85.9972 200.429C87.9804 201.139 146.652 202.303 148.856 200.954C149.119 200.819 150.071 181.43 150.071 181.43C150 181.153 150.981 179.3 152.481 176.695L115.717 174.444L112.07 181.743C112.07 181.743 104.074 184.867 97.0932 187.983C92.8282 189.893 89.0537 191.64 88.1794 192.293C85.9261 194.039 84.0211 199.733 85.9972 200.429Z" fill="white"/>
<path d="M85.7553 200.649C87.7954 201.359 146.538 202.374 148.806 200.997C149.666 200.478 150.704 191.448 150.071 181.43L112.198 180.827C112.198 180.827 90.262 190.511 87.9376 192.285C85.6132 194.06 83.7153 199.925 85.7553 200.649Z" fill="#FFC542"/>
<path opacity="0.1" d="M148.806 201.004C147.974 201.501 139.629 201.714 129.258 201.714L149.161 181.444H150.085C150.703 191.448 149.666 200.486 148.806 201.004Z" fill="#202326"/>
<path d="M86.6367 198.313C96.4888 198.242 136.231 198.874 145.977 199.556C146.055 199.556 146.055 199.612 145.977 199.612C136.21 199.896 96.4746 198.945 86.6296 198.476C86.4235 198.469 86.4306 198.313 86.6367 198.313Z" fill="#39434F"/>
<path d="M91.7546 190.241C92.8505 190.231 93.9365 190.448 94.9437 190.879C95.9508 191.311 96.8571 191.947 97.6047 192.747C98.9743 194.168 99.7387 196.064 99.7372 198.036C99.7372 198.093 99.6235 198.093 99.6164 198.036C99.3153 196.087 98.3913 194.287 96.9821 192.905C95.573 191.523 93.7542 190.634 91.7973 190.369C91.7803 190.375 91.7618 190.373 91.7458 190.365C91.7298 190.357 91.7176 190.343 91.712 190.326C91.7063 190.309 91.7076 190.291 91.7156 190.275C91.7236 190.259 91.7376 190.247 91.7546 190.241Z" fill="#39434F"/>
<path d="M109.064 181.764C113.002 181.764 117.551 183.241 119.946 186.507C120.039 186.627 119.854 186.762 119.74 186.698C116.325 184.834 112.72 183.342 108.985 182.247C108.93 182.228 108.884 182.19 108.854 182.139C108.824 182.089 108.813 182.03 108.823 181.973C108.832 181.915 108.861 181.863 108.905 181.825C108.949 181.787 109.005 181.765 109.064 181.764Z" fill="#39434F"/>
<path d="M106.028 182.893C109.966 182.893 114.515 184.377 116.911 187.636C117.003 187.763 116.818 187.891 116.705 187.827C113.287 185.969 109.682 184.477 105.95 183.376C105.895 183.356 105.848 183.318 105.819 183.268C105.789 183.218 105.778 183.159 105.787 183.102C105.796 183.044 105.825 182.992 105.869 182.954C105.914 182.916 105.97 182.894 106.028 182.893Z" fill="#39434F"/>
<path d="M102.964 184.029C106.902 184.029 111.452 185.506 113.847 188.771C113.94 188.899 113.755 189.027 113.641 188.963C110.226 187.099 106.621 185.606 102.886 184.512C102.831 184.492 102.785 184.454 102.755 184.404C102.725 184.354 102.714 184.295 102.723 184.238C102.733 184.18 102.762 184.128 102.806 184.09C102.85 184.051 102.906 184.03 102.964 184.029Z" fill="#39434F"/>
<path d="M99.9009 185.158C103.839 185.158 108.388 186.642 110.784 189.9C110.876 190.028 110.691 190.156 110.578 190.099C107.162 188.235 103.556 186.74 99.8228 185.64C99.7678 185.621 99.7213 185.583 99.6916 185.533C99.6618 185.483 99.6506 185.424 99.6599 185.366C99.6692 185.309 99.6985 185.257 99.7425 185.218C99.7866 185.18 99.8427 185.159 99.9009 185.158Z" fill="#39434F"/>
<path d="M143.624 190.17C148.045 190.255 147.889 197.12 143.489 197.028C139.089 196.936 139.195 190.078 143.624 190.17Z" fill="#39434F"/>
<path d="M105.225 176.958C107.308 179.741 110.513 181.516 113.293 183.504C113.358 183.543 113.431 183.566 113.506 183.571C113.582 183.576 113.657 183.563 113.727 183.533C113.796 183.503 113.857 183.457 113.906 183.399C113.954 183.341 113.987 183.272 114.004 183.198C114.019 183.201 114.035 183.201 114.051 183.197C114.066 183.193 114.081 183.186 114.093 183.176C114.105 183.166 114.115 183.153 114.122 183.138C114.129 183.124 114.132 183.108 114.132 183.092C113.904 179.474 112.728 175.98 110.72 172.961C109.518 171.221 107.03 169.567 105.033 171.186C103.036 172.804 104.009 175.339 105.225 176.958ZM105.097 173.699C105.566 169.439 109.362 172.776 110.208 174.089C110.742 174.951 111.217 175.847 111.629 176.773C112.439 178.693 113.151 180.653 113.762 182.645C112.461 181.58 111.075 180.642 109.739 179.634C108.104 178.427 104.841 176.056 105.097 173.699Z" fill="#39434F"/>
<path d="M128.17 180.82C127.907 178.243 124.979 177.639 122.896 177.98C119.335 178.669 116.017 180.283 113.279 182.659C113.265 182.668 113.255 182.68 113.247 182.694C113.24 182.708 113.236 182.724 113.236 182.74C113.236 182.756 113.24 182.772 113.247 182.786C113.255 182.801 113.265 182.813 113.279 182.822C113.241 182.886 113.218 182.957 113.213 183.031C113.207 183.104 113.219 183.178 113.246 183.247C113.273 183.315 113.316 183.377 113.371 183.426C113.426 183.476 113.492 183.512 113.563 183.532C116.925 184.114 120.451 185.151 123.891 184.682C125.903 184.441 128.419 183.255 128.17 180.82ZM118.851 183.404C117.188 183.163 115.546 182.836 113.876 182.652C115.759 181.743 117.586 180.763 119.562 180.039C120.506 179.679 121.472 179.383 122.455 179.151C123.977 178.825 129.045 179.151 126.322 182.517C124.815 184.355 120.828 183.695 118.851 183.404Z" fill="#39434F"/>
<path d="M155.125 176.312L113.819 170.064C113.819 170.064 133.672 130.533 145.962 109.085C152.801 97.1579 171.495 96.5757 180.587 110.86C192.735 129.951 202.161 147.842 207.563 157.753L216.939 158.556L214.913 173.848L183.771 180.813C171.844 182.233 163.47 161.026 163.278 161.388C161.764 164.171 155.125 176.312 155.125 176.312Z" fill="#39434F"/>
<path d="M163.086 161.481C164.259 159.081 165.176 156.511 166.221 154.069C167.266 151.626 168.247 149.305 169.249 146.919C171.275 142.099 173.372 137.299 175.341 132.457C176.442 129.738 177.473 126.983 178.49 124.236C178.496 124.224 178.506 124.214 178.519 124.209C178.531 124.204 178.545 124.204 178.558 124.208C178.571 124.212 178.582 124.221 178.589 124.233C178.596 124.244 178.599 124.258 178.596 124.271C177.793 126.863 176.968 129.454 176.094 132.024C176.329 131.584 176.556 131.137 176.805 130.704C177.466 129.518 178.156 128.347 178.838 127.154C178.84 127.148 178.843 127.142 178.848 127.137C178.852 127.133 178.857 127.129 178.864 127.127C178.87 127.124 178.876 127.124 178.882 127.124C178.889 127.125 178.895 127.127 178.901 127.13C178.906 127.133 178.911 127.138 178.914 127.143C178.918 127.149 178.92 127.155 178.921 127.161C178.922 127.168 178.921 127.174 178.919 127.18C178.917 127.186 178.914 127.192 178.909 127.196C178.276 128.368 177.644 129.539 176.983 130.704C176.656 131.279 176.272 131.854 175.952 132.429C173.534 139.66 170.661 146.731 167.351 153.6C166.036 156.291 164.508 158.868 163.186 161.559C163.143 161.644 163.015 161.566 163.086 161.481Z" fill="#808B9A"/>
<path d="M154.201 168.978C156.191 165.911 160.939 156.617 162.638 153.408C166.072 146.912 169.213 140.281 172.192 133.565C173.869 129.766 175.44 125.932 176.997 122.084C176.997 122.084 177.047 122.084 177.04 122.084C174.669 129.012 171.947 135.815 168.886 142.468C165.858 149.134 156.092 167.096 154.329 169.041C154.265 169.127 154.151 169.056 154.201 168.978Z" fill="#808B9A"/>
<path d="M179.848 127.218C183.402 133.565 187.041 139.869 190.617 146.209C192.422 149.418 194.223 152.627 196.019 155.836C196.858 157.349 197.675 158.875 198.55 160.373C199.299 161.782 200.429 162.953 201.812 163.752C203.469 164.541 205.207 165.148 206.994 165.563C208.999 166.145 210.996 166.777 213.015 167.331C213.034 167.336 213.05 167.349 213.059 167.366C213.068 167.384 213.07 167.404 213.065 167.423C213.059 167.442 213.046 167.458 213.029 167.467C213.011 167.476 212.991 167.478 212.972 167.473C211.174 166.99 209.354 166.578 207.549 166.131C205.885 165.777 204.24 165.336 202.623 164.81C201.194 164.33 199.929 163.457 198.976 162.29C198.007 160.943 197.151 159.518 196.417 158.03C192.849 151.503 189.311 144.964 185.804 138.414C183.807 134.686 181.831 130.952 179.812 127.239C179.805 127.218 179.833 127.168 179.848 127.218Z" fill="#808B9A"/>
<path d="M156.063 170.525C153.589 170.071 151.052 169.858 148.557 169.539L141.05 168.566C136.075 167.92 119.065 165.215 117.785 164.789C117.767 164.784 117.752 164.773 117.741 164.758C117.73 164.743 117.724 164.726 117.724 164.707C117.724 164.689 117.73 164.671 117.741 164.656C117.752 164.642 117.767 164.631 117.785 164.626C119.001 164.59 130.125 166.046 132.627 166.436C137.603 167.146 142.579 168.055 147.555 168.893C148.976 169.134 150.398 169.404 151.819 169.652C153.241 169.901 154.663 170.206 156.084 170.362C156.106 170.365 156.126 170.376 156.139 170.394C156.152 170.411 156.158 170.433 156.156 170.454C156.153 170.476 156.141 170.496 156.124 170.509C156.107 170.522 156.085 170.528 156.063 170.525Z" fill="#808B9A"/>
<path d="M129.919 209.261C130.63 207.294 168.076 162.141 170.536 161.345C170.813 161.239 186.138 173.166 186.138 173.166C186.757 174.061 217.109 169.056 217.109 169.056L215.83 205.264L161.096 201.714C161.096 201.714 153.511 205.739 146.595 208.984C142.33 211 138.577 212.683 137.511 212.91C134.717 213.492 129.158 211.213 129.919 209.261Z" fill="#FFC4C0"/>
<path d="M137.497 212.91C138.563 212.69 142.323 211 146.581 208.984C153.497 205.74 161.082 201.714 161.082 201.714L173.258 202.502L193.695 172.606C189.479 173.167 186.338 173.472 186.139 173.188C186.139 173.188 170.82 161.26 170.536 161.367C168.076 162.162 130.673 207.309 129.919 209.275C129.166 211.242 134.717 213.5 137.497 212.91Z" fill="white"/>
<path d="M129.592 209.304C130.381 207.295 167.977 162.176 170.472 161.36C171.424 161.04 178.952 166.152 186.11 173.167L161.856 202.225C161.856 202.225 140.198 212.506 137.333 213.109C134.468 213.713 128.81 211.32 129.592 209.304Z" fill="#FFC542"/>
<path d="M131.938 210.162C138.42 202.75 163.875 172.257 169.718 164.441C169.768 164.377 169.718 164.341 169.675 164.405C163.086 171.604 137.88 202.303 131.817 210.056C131.689 210.233 131.81 210.319 131.938 210.162Z" fill="#39434F"/>
<path d="M141.406 211.554C142.128 210.731 142.672 209.767 143.002 208.724C143.332 207.68 143.442 206.579 143.325 205.491C143.125 203.534 142.181 201.727 140.688 200.443C140.638 200.443 140.574 200.493 140.61 200.536C141.899 202.036 142.666 203.914 142.794 205.887C142.922 207.861 142.405 209.822 141.321 211.476C141.317 211.488 141.317 211.5 141.32 211.512C141.323 211.524 141.33 211.534 141.339 211.542C141.348 211.55 141.359 211.556 141.371 211.558C141.382 211.56 141.395 211.559 141.406 211.554Z" fill="#39434F"/>
<path d="M159.148 203.965C161.715 200.976 163.563 196.574 162.653 192.605C162.617 192.456 162.404 192.506 162.376 192.605C161.56 196.407 160.34 200.11 158.736 203.652C158.695 203.707 158.677 203.776 158.686 203.844C158.695 203.912 158.731 203.973 158.786 204.014C158.841 204.056 158.91 204.074 158.978 204.065C159.045 204.055 159.107 204.019 159.148 203.965Z" fill="#39434F"/>
<path d="M156.291 205.548C158.857 202.552 160.705 198.157 159.795 194.188C159.76 194.032 159.539 194.089 159.511 194.188C158.702 198.001 157.482 201.714 155.871 205.264C155.834 205.319 155.82 205.388 155.832 205.453C155.845 205.519 155.883 205.578 155.939 205.615C155.994 205.653 156.063 205.667 156.129 205.654C156.195 205.642 156.253 205.603 156.291 205.548Z" fill="#39434F"/>
<path d="M153.433 207.124C155.992 204.135 157.847 199.733 156.938 195.765C156.902 195.615 156.682 195.665 156.653 195.765C155.841 199.567 154.621 203.27 153.014 206.812C152.993 206.839 152.978 206.87 152.97 206.904C152.961 206.937 152.96 206.971 152.965 207.005C152.97 207.039 152.981 207.072 152.999 207.101C153.016 207.131 153.04 207.157 153.067 207.177C153.095 207.198 153.126 207.213 153.159 207.221C153.193 207.229 153.227 207.231 153.261 207.226C153.295 207.221 153.328 207.21 153.357 207.192C153.387 207.175 153.413 207.151 153.433 207.124Z" fill="#39434F"/>
<path d="M150.575 208.707C153.134 205.711 154.99 201.317 154.08 197.348C154.044 197.192 153.824 197.249 153.796 197.348C152.982 201.148 151.762 204.849 150.156 208.388C150.114 208.443 150.095 208.514 150.104 208.583C150.114 208.652 150.15 208.715 150.206 208.757C150.261 208.799 150.332 208.818 150.401 208.809C150.47 208.799 150.533 208.763 150.575 208.707Z" fill="#39434F"/>
<path d="M175.306 172.343C178.149 168.942 172.832 164.533 170.01 167.969C167.188 171.405 172.484 175.75 175.306 172.343Z" fill="#39434F"/>
<path d="M164.508 213.954C167.053 213.485 167.415 210.518 166.882 208.473C165.901 204.985 164.018 201.817 161.423 199.286C161.413 199.274 161.4 199.265 161.386 199.258C161.372 199.251 161.357 199.248 161.341 199.248C161.326 199.248 161.31 199.251 161.296 199.258C161.282 199.265 161.269 199.274 161.259 199.286C161.192 199.249 161.116 199.228 161.039 199.226C160.962 199.224 160.885 199.24 160.816 199.273C160.746 199.307 160.686 199.356 160.639 199.418C160.593 199.479 160.562 199.551 160.549 199.627C160.243 203.028 159.497 206.62 160.25 210.007C160.712 212.002 162.105 214.408 164.508 213.954ZM161.16 204.895C161.267 203.219 161.451 201.558 161.501 199.883C162.56 201.679 163.69 203.432 164.572 205.321C165.01 206.229 165.385 207.166 165.695 208.125C166.15 209.616 166.207 214.692 162.66 212.25C160.712 210.944 161.032 206.89 161.167 204.895H161.16Z" fill="#39434F"/>
<path d="M166.569 190.83C163.968 193.13 162.461 196.474 160.705 199.399C160.667 199.468 160.647 199.545 160.646 199.624C160.645 199.702 160.663 199.78 160.699 199.85C160.734 199.92 160.787 199.98 160.851 200.025C160.915 200.07 160.99 200.099 161.068 200.109C161.066 200.125 161.069 200.141 161.074 200.156C161.08 200.171 161.089 200.184 161.101 200.195C161.112 200.206 161.126 200.214 161.141 200.219C161.157 200.224 161.173 200.225 161.188 200.223C164.781 199.692 168.17 198.223 171.012 195.963C172.647 194.628 174.097 192.016 172.313 190.134C170.628 188.367 168.062 189.488 166.569 190.83ZM169.818 190.44C174.125 190.553 171.09 194.621 169.818 195.558C169 196.15 168.146 196.688 167.259 197.17C165.425 198.192 163.484 198.931 161.572 199.761C162.525 198.377 163.342 196.922 164.245 195.502C165.34 193.819 167.444 190.354 169.818 190.44Z" fill="#39434F"/>
<path d="M199.459 159.876C199.459 159.876 246.374 153.586 261.735 157.711C283.152 163.476 285.604 189.169 269.113 198.952C248.215 211.341 175.725 204.433 175.725 204.433L195.955 170.355C195.955 170.355 226.328 164.675 253.532 166.898L198.627 173.699L199.459 159.876Z" fill="#39434F"/>
<path d="M194.554 172.662C194.575 172.602 194.592 172.54 194.604 172.477C194.604 172.428 194.604 172.378 194.64 172.328L194.746 171.981C194.816 171.739 194.902 171.502 195.002 171.271C195.095 171.036 195.201 170.809 195.308 170.561C195.423 170.341 195.554 170.13 195.699 169.929C195.699 169.929 195.734 169.929 195.756 169.929H195.791H195.841C195.857 169.925 195.874 169.925 195.891 169.929C199.225 169.396 221.843 166.833 225.205 166.563C228.568 166.294 231.987 166.088 235.377 165.925C242.143 165.571 248.923 165.597 255.686 166.003C256.318 166.038 256.951 166.095 257.584 166.145C257.719 166.102 257.868 166.081 258.003 166.052C258.337 165.981 258.657 165.903 258.991 165.854C259.609 165.747 260.228 165.676 260.846 165.598C262.133 165.442 263.427 165.349 264.706 165.144C264.784 165.144 264.813 165.257 264.706 165.271C263.412 165.527 262.133 165.882 260.839 166.138L259.716 166.343C262.19 166.592 264.656 166.911 267.123 167.266C267.201 167.266 267.201 167.408 267.123 167.401C263.768 167.039 260.377 166.862 257.001 166.776C253.624 166.691 250.298 166.634 246.942 166.698C240.161 166.833 233.373 167.202 226.599 167.685C222.803 167.955 199.729 170.639 195.926 170.646H195.884C195.849 170.743 195.809 170.838 195.763 170.93C195.649 171.15 195.535 171.37 195.415 171.583C195.294 171.796 195.18 172.002 195.045 172.201C194.91 172.399 194.917 172.399 194.846 172.492L194.746 172.641C194.704 172.688 194.669 172.741 194.64 172.797C194.633 172.811 194.505 172.747 194.554 172.662Z" fill="#808B9A"/>
<path d="M186.117 202.31C187.311 200.351 188.349 198.249 189.458 196.226L192.784 190.134C195.002 186.095 202.892 172.485 203.681 171.54C203.731 171.484 203.816 171.54 203.795 171.626C203.404 172.691 198.436 181.707 197.298 183.695C195.016 187.713 192.635 191.64 190.282 195.608C189.614 196.737 188.918 197.852 188.242 198.981C187.567 200.109 186.821 201.203 186.209 202.36C186.174 202.424 186.074 202.381 186.117 202.31Z" fill="#808B9A"/>
<path d="M204.911 175.275C206.93 174.835 208.992 174.565 211.025 174.253C213.058 173.94 215.098 173.585 217.138 173.266C221.218 172.613 225.303 171.997 229.392 171.42C237.553 170.277 245.741 169.382 253.93 168.878C258.565 168.594 263.171 168.474 267.834 168.303C267.933 168.303 267.926 168.467 267.834 168.474C259.588 168.516 251.321 169.389 243.118 170.32C234.915 171.25 226.883 172.293 218.787 173.436L211.927 174.423C209.603 174.764 207.279 175.204 204.947 175.424C204.855 175.445 204.819 175.296 204.911 175.275Z" fill="#808B9A"/>
<path d="M204.904 116.625C200.412 124.435 182.52 148.609 176.89 149.411C171.033 150.249 149.438 148.403 145.5 143.767C143.574 141.502 146.687 122.056 149.68 123.143C152.672 124.229 171.147 128.687 173.521 128.339C175.895 127.992 195.038 109.476 202.096 105.486C214.266 98.5991 207.328 112.408 204.904 116.625Z" fill="#FFC4C0"/>
<path d="M154.428 123.76L149.872 147.856C149.872 147.856 171.503 152.279 177.879 150.419C184.255 148.559 202.082 123.242 207.286 113.231C212.489 103.221 207.94 100.587 198.606 106.842C189.273 113.096 174.317 127.061 172.86 127.125C171.403 127.189 154.428 123.76 154.428 123.76Z" fill="#FFC542"/>
<path d="M200.874 108.709C200.337 109.235 199.903 109.856 199.594 110.54C200.281 110.234 200.903 109.8 201.428 109.262C201.967 108.737 202.403 108.116 202.715 107.431C202.027 107.739 201.403 108.173 200.874 108.709ZM154.208 145.428C153.456 145.416 152.708 145.546 152.004 145.811C152.707 146.082 153.455 146.215 154.208 146.202C154.963 146.213 155.713 146.08 156.419 145.811C155.714 145.538 154.964 145.399 154.208 145.399V145.428ZM189.557 138.229C188.803 138.218 188.053 138.348 187.347 138.612C188.052 138.882 188.802 139.015 189.557 139.003H189.849C190.027 138.768 190.226 138.527 190.41 138.293C190.098 138.222 189.842 138.208 189.557 138.2V138.229ZM174.161 144.001C173.649 145.424 173.649 146.98 174.161 148.403C174.428 147.7 174.561 146.953 174.552 146.202C174.568 145.44 174.435 144.683 174.161 143.972V144.001ZM192.28 120.451C192.011 121.153 191.881 121.901 191.896 122.652C191.885 123.403 192.015 124.15 192.28 124.853C192.55 124.151 192.683 123.404 192.671 122.652C192.692 121.891 192.559 121.132 192.28 120.423V120.451ZM200.874 108.709C200.337 109.235 199.903 109.856 199.594 110.54C200.281 110.234 200.903 109.8 201.428 109.262C201.967 108.737 202.403 108.116 202.715 107.431C202.027 107.739 201.403 108.173 200.874 108.709ZM177.608 128.588C177.064 129.109 176.627 129.731 176.322 130.419C177.01 130.11 177.633 129.671 178.156 129.127C178.7 128.606 179.137 127.984 179.442 127.295C178.759 127.593 178.137 128.014 177.608 128.538V128.588ZM155.772 124.079L155.573 124.264C155.031 124.785 154.596 125.408 154.293 126.096C154.981 125.785 155.603 125.346 156.127 124.803C156.298 124.626 156.468 124.441 156.625 124.25L155.772 124.079ZM164.508 135.957C163.984 135.418 163.361 134.984 162.674 134.679C162.983 135.365 163.42 135.987 163.961 136.511C164.487 137.049 165.109 137.485 165.794 137.796C165.485 137.108 165.048 136.484 164.508 135.957ZM189.586 138.2C188.831 138.189 188.082 138.319 187.375 138.584C188.08 138.854 188.831 138.987 189.586 138.974H189.877C190.055 138.74 190.254 138.499 190.439 138.264C190.098 138.222 189.842 138.208 189.557 138.2H189.586ZM192.308 120.451C192.039 121.153 191.909 121.901 191.924 122.652C191.913 123.403 192.044 124.15 192.308 124.853C192.579 124.151 192.711 123.404 192.699 122.652C192.711 121.889 192.568 121.13 192.28 120.423L192.308 120.451Z" fill="white"/>
<path d="M158.338 136.902C158.707 134.992 160.122 127.353 160.328 125.429C160.328 125.429 160.285 125.386 160.271 125.429C159.717 127.225 158.096 134.722 157.726 136.632C156.89 140.426 156.261 144.263 155.843 148.126C155.843 148.19 155.942 148.233 155.964 148.126C157.009 144.456 157.613 140.657 158.338 136.902Z" fill="#39434F"/>
<path opacity="0.1" d="M207.285 113.224C202.082 123.242 184.269 148.552 177.879 150.412C173.045 151.832 159.482 149.631 153.177 148.481L206.973 103.483C210.001 103.739 210.477 107.069 207.285 113.224Z" fill="#202326"/>
<path d="M188.427 160.998L241.618 164.086C241.547 163.007 233.23 132.535 227.245 120.934C219.575 106.061 216.171 103.789 213.896 103.029C210.982 102.057 205.004 102.064 203.234 104.875C193.737 120.068 187.702 160.323 188.427 160.998Z" fill="#FFC542"/>
<path d="M201.393 108.219C201.108 108.787 200.831 109.362 200.561 109.972C200.864 109.753 201.153 109.516 201.428 109.262C201.967 108.737 202.403 108.116 202.715 107.431C202.236 107.623 201.79 107.889 201.393 108.219ZM217.401 157.433C216.862 157.958 216.428 158.58 216.121 159.265C216.809 158.961 217.432 158.527 217.955 157.987C218.492 157.46 218.928 156.839 219.242 156.155C218.554 156.464 217.93 156.897 217.401 157.433ZM201.393 108.219C201.108 108.787 200.831 109.362 200.561 109.972C200.864 109.753 201.153 109.516 201.428 109.262C201.967 108.737 202.403 108.116 202.715 107.431C202.236 107.623 201.79 107.889 201.393 108.219ZM232.634 134.168C232.5 134.093 232.363 134.027 232.221 133.969C232.42 134.435 232.689 134.868 233.017 135.254C232.889 134.892 232.747 134.523 232.634 134.168ZM220.94 109.568C220.735 109.363 220.519 109.168 220.294 108.985C219.936 108.698 219.542 108.459 219.121 108.276C219.428 108.963 219.865 109.585 220.407 110.107C220.804 110.506 221.251 110.852 221.737 111.137C221.897 111.236 222.066 111.321 222.241 111.392C221.928 110.707 221.487 110.087 220.94 109.568ZM206.532 134.416C206.008 133.875 205.386 133.439 204.698 133.131C205.342 134.505 206.449 135.608 207.826 136.248C207.513 135.558 207.074 134.932 206.532 134.402V134.416ZM219.881 141.772C219.129 141.759 218.38 141.892 217.678 142.162C219.105 142.673 220.665 142.673 222.092 142.162C221.388 141.886 220.637 141.749 219.881 141.757V141.772ZM206.909 118.478C206.156 118.465 205.408 118.597 204.705 118.868C205.41 119.13 206.157 119.26 206.909 119.252C207.661 119.266 208.409 119.135 209.112 118.868C208.41 118.594 207.662 118.456 206.909 118.463V118.478ZM201.151 150.206C200.88 150.908 200.747 151.655 200.76 152.407C200.752 153.158 200.885 153.905 201.151 154.608C201.663 153.185 201.663 151.629 201.151 150.206ZM231.582 147.998C231.058 149.421 231.058 150.984 231.582 152.407C232.093 150.982 232.093 149.423 231.582 147.998ZM220.663 124.228C220.141 125.649 220.141 127.209 220.663 128.63C220.924 127.926 221.054 127.18 221.047 126.429C221.059 125.678 220.929 124.931 220.663 124.228Z" fill="white"/>
<path d="M222.796 109.795C236.237 126.295 250.923 153.706 243.73 159.01C237.161 163.852 214.458 157.703 200.312 151.292C197.625 150.078 210.065 126.38 212.794 127.977C215.668 129.694 218.648 131.228 221.715 132.571C222.49 132.826 218.431 127.303 214.28 114.31C210.001 101.112 215.09 100.36 222.796 109.795Z" fill="#FFC4C0"/>
<path d="M177.765 124.328C177.602 127.168 184.603 126.962 184.603 126.962C183.55 127.578 182.745 128.542 182.329 129.688C181.689 131.74 184.632 133.643 184.632 133.643C183.671 134.506 182.994 135.639 182.691 136.894C182.279 138.925 184.98 141.26 184.98 141.26C184.543 142.542 184.578 143.936 185.079 145.194C186.565 148.502 192.131 148.864 195.536 149.766C199.34 150.864 203.051 152.265 206.632 153.955L214.38 128.936C214.38 128.936 199.922 119.294 195.742 119.266C192.23 119.223 178.014 119.983 177.765 124.328Z" fill="#FFC4C0"/>
<path d="M184.66 126.863C188.413 125.982 192.365 126.004 196.182 126.067C196.268 126.067 196.261 126.202 196.182 126.202C192.394 126.096 188.477 126.997 184.688 127.04C184.668 127.039 184.648 127.03 184.633 127.016C184.617 127.002 184.607 126.983 184.604 126.963C184.6 126.942 184.604 126.921 184.614 126.903C184.625 126.885 184.641 126.87 184.66 126.863Z" fill="#39434F"/>
<path d="M184.752 133.33C185.623 133.217 186.505 133.217 187.375 133.33C188.306 133.394 189.23 133.472 190.154 133.565C192.012 133.749 193.86 133.986 195.699 134.275C195.784 134.275 195.784 134.417 195.699 134.409C193.851 134.232 192.003 134.076 190.147 133.969C189.216 133.92 188.292 133.877 187.361 133.842C186.483 133.862 185.606 133.786 184.745 133.614C184.707 133.613 184.672 133.598 184.646 133.57C184.62 133.543 184.606 133.506 184.606 133.469C184.607 133.431 184.623 133.395 184.651 133.369C184.678 133.343 184.715 133.329 184.752 133.33Z" fill="#39434F"/>
<path d="M185.058 141.24C185.845 141.143 186.643 141.181 187.418 141.353C188.264 141.46 189.109 141.552 189.948 141.644C191.64 141.829 193.325 142.013 195.016 142.141C195.031 142.146 195.043 142.155 195.052 142.167C195.061 142.179 195.065 142.194 195.065 142.209C195.065 142.224 195.061 142.238 195.052 142.25C195.043 142.262 195.031 142.271 195.016 142.276C193.296 142.155 191.569 142.056 189.856 141.921L187.318 141.715C186.542 141.72 185.772 141.585 185.044 141.318C185.008 141.303 185.022 141.247 185.058 141.24Z" fill="#39434F"/>
<path d="M215.062 128.659L208.103 155.638C208.103 155.638 241.825 166.372 245.827 157.916C249.829 149.461 231.44 116.313 220.343 106.536C209.247 96.7602 212.816 111.421 213.107 112.592C214.401 117.796 220.976 131.548 220.976 131.548L215.062 128.659Z" fill="#FFC542"/>
<path d="M220.663 124.228C220.141 125.649 220.141 127.209 220.663 128.63C220.924 127.926 221.054 127.18 221.047 126.429C221.059 125.678 220.929 124.931 220.663 124.228ZM231.568 147.984C231.044 149.407 231.044 150.97 231.568 152.393C232.079 150.968 232.079 149.409 231.568 147.984ZM219.867 141.757C219.115 141.745 218.366 141.878 217.664 142.148C219.091 142.659 220.651 142.659 222.078 142.148C221.378 141.879 220.632 141.746 219.882 141.757H219.867ZM220.926 109.568C220.406 109.026 219.786 108.59 219.1 108.283C219.743 109.654 220.847 110.757 222.22 111.399C221.914 110.713 221.48 110.091 220.941 109.568H220.926ZM244.284 155.879C243.762 155.339 243.142 154.903 242.457 154.594C242.769 155.281 243.205 155.904 243.744 156.432C244.269 156.97 244.892 157.403 245.578 157.71C245.272 157.024 244.838 156.402 244.298 155.879H244.284ZM234.034 135.247C233.507 134.711 232.886 134.278 232.2 133.969C232.836 135.344 233.939 136.448 235.314 137.086C235.013 136.398 234.584 135.774 234.048 135.247H234.034ZM217.387 157.433C217.195 157.646 216.996 157.852 216.818 158.08L217.621 158.278C217.728 158.179 217.841 158.087 217.941 157.987C218.478 157.46 218.914 156.839 219.228 156.156C218.545 156.466 217.926 156.899 217.401 157.433H217.387Z" fill="white"/>
<path d="M215.688 128.708C219.54 130.299 229.556 135.971 231.703 138.2C231.71 138.206 231.716 138.213 231.721 138.221C231.726 138.229 231.729 138.238 231.73 138.247C231.732 138.256 231.731 138.266 231.729 138.275C231.727 138.284 231.723 138.292 231.717 138.3C231.711 138.307 231.704 138.314 231.696 138.318C231.688 138.323 231.679 138.326 231.67 138.328C231.661 138.329 231.651 138.328 231.642 138.326C231.633 138.324 231.625 138.32 231.617 138.314C229.485 136.631 217.088 129.731 215.14 128.864C215.14 128.864 215.034 129.106 214.991 129.17C214.948 129.234 214.87 129.17 214.877 129.113C214.92 128.889 214.979 128.668 215.055 128.453L215.688 128.708Z" fill="#39434F"/>
<path d="M217.763 144.129C218.232 142.247 220.066 134.693 220.379 132.769C220.379 132.769 220.337 132.727 220.322 132.769C219.668 134.537 217.642 141.928 217.166 143.816C216.12 147.554 215.28 151.346 214.65 155.176C214.65 155.24 214.749 155.282 214.771 155.176C216.015 151.605 216.832 147.842 217.763 144.129Z" fill="#39434F"/>
<path d="M221.239 131.733C220.294 129.355 219.107 127.076 218.048 124.74C216.988 122.404 215.915 120.104 214.92 117.747C214.92 117.711 214.856 117.747 214.87 117.747C215.453 119.358 216.029 120.949 216.662 122.532C216.455 122.276 216.271 122.014 216.086 121.744C215.745 121.261 215.439 120.757 215.14 120.253C215.14 120.253 215.076 120.253 215.083 120.253C215.313 120.813 215.604 121.347 215.951 121.843C216.216 122.21 216.503 122.561 216.811 122.894C217.074 123.54 217.337 124.179 217.621 124.818C218.666 127.175 219.448 129.497 220.841 131.676C220.891 131.79 221.275 131.811 221.239 131.733Z" fill="#39434F"/>
<path d="M240.815 160.749C233.849 161.722 211.963 156.66 208.238 155.687C208.302 155.289 208.302 155.147 208.395 154.587C208.395 154.516 208.295 154.473 208.274 154.551C208.139 155.076 207.719 156.127 207.869 156.191C209.646 157 234.027 162.581 240.808 160.912C240.915 160.891 240.922 160.735 240.815 160.749Z" fill="#39434F"/>
<path d="M186.778 150.454L158.295 153.671L148.358 114.012L176.848 110.796L186.778 150.454Z" fill="#808B9A"/>
<path d="M185.378 150.611L156.895 153.827L146.965 114.169L175.448 110.959L185.378 150.611Z" fill="#202326"/>
<path d="M162.233 131.051C162.393 131.792 162.82 132.448 163.432 132.895C164.043 133.342 164.798 133.55 165.553 133.479C165.909 133.446 166.253 133.337 166.563 133.16C166.873 132.983 167.142 132.742 167.352 132.453C167.562 132.165 167.708 131.834 167.78 131.485C167.852 131.136 167.849 130.775 167.771 130.427C167.609 129.686 167.181 129.03 166.568 128.582C165.956 128.135 165.2 127.927 164.444 127.999C164.089 128.032 163.744 128.141 163.434 128.318C163.124 128.495 162.856 128.736 162.646 129.025C162.437 129.314 162.292 129.644 162.221 129.994C162.15 130.343 162.154 130.704 162.233 131.051Z" fill="white"/>
<path d="M147.071 122.305C145.82 125.599 142.337 129.837 142.237 132.457C142.187 133.101 142.345 133.744 142.69 134.29C143.034 134.836 143.546 135.257 144.15 135.489C144.15 135.489 141.669 136.98 141.967 139.372C142.117 140.6 144.221 141.438 144.221 141.438C144.221 141.438 142.28 142.723 142.678 144.832C142.991 146.514 145.052 147.097 145.052 147.097C145.052 147.097 143.766 149.226 144.64 150.81C146.403 154.068 161.053 152.897 162.88 147.331C163.733 144.732 160.172 145.201 160.172 145.201C160.172 145.201 165.147 143.27 164.963 140.231C164.778 137.193 160.207 138.101 160.207 138.101C160.207 138.101 164.991 136.192 164.508 133.082C163.996 129.837 159.532 131.52 159.532 131.52C159.532 131.52 162.617 129.056 161.664 126.756C160.143 122.958 154.371 128.354 151.094 127.842L148.891 122.688L147.071 122.305Z" fill="#FFC4C0"/>
<path d="M144.505 127.168C145.422 123.944 141.228 120.395 141.662 117.186C142.245 112.848 147.384 116.646 148.948 122.752L149.332 127.721L144.505 127.168Z" fill="#FFC4C0"/>
<path d="M145.365 147.239C145.358 147.242 145.351 147.247 145.347 147.254C145.342 147.261 145.34 147.269 145.34 147.278C145.34 147.286 145.342 147.294 145.347 147.301C145.351 147.308 145.358 147.313 145.365 147.317C150.47 148.148 155.707 147.405 160.378 145.187C160.527 145.116 160.471 144.846 160.293 144.896C155.457 146.394 150.429 147.183 145.365 147.239Z" fill="#39434F"/>
<path d="M144.15 141.474C144.093 141.474 144.093 141.566 144.15 141.58C149.211 142.361 155.523 141.467 160.385 138.265C160.548 138.151 160.591 137.888 160.385 138.002C157.016 139.891 148.869 141.502 144.15 141.474Z" fill="#39434F"/>
<path d="M159.845 131.222C155.082 134.111 149.893 135.19 144.356 135.531C144.285 135.531 144.299 135.63 144.356 135.645C147.092 136.213 150.583 135.645 153.262 134.935C155.761 134.357 158.063 133.133 159.937 131.385C160.015 131.321 159.944 131.158 159.845 131.222Z" fill="#39434F"/>
<path d="M206.24 113.678C209.354 113.799 213.562 108.254 214.849 104.179C214.934 103.902 214.024 101.339 213.064 98.1372C212.489 96.199 211.899 94.0265 211.501 92.0102C211.415 91.5914 199.417 97.5834 199.417 97.5834C200.642 99.9627 201.57 102.483 202.182 105.088C202.231 105.367 202.257 105.649 202.26 105.933C202.257 105.98 202.257 106.027 202.26 106.075C202.317 107.7 203.234 113.558 206.24 113.678Z" fill="#FFC4C0"/>
<path d="M210.712 92.2095C210.797 95.7593 210.299 104.407 203.603 105.89C203.171 105.989 202.731 106.051 202.288 106.075C202.282 106.028 202.282 105.98 202.288 105.933C202.288 105.65 202.264 105.367 202.217 105.088C201.604 102.48 200.675 99.9549 199.452 97.5697C199.452 97.5697 208.074 93.2531 210.712 92.2095Z" fill="#39434F"/>
<path d="M213.655 78.7202C214.955 83.3207 212.233 96.4692 208.935 99.3659C204.122 103.54 196.382 103.789 192.863 98.0383C189.458 92.465 193.282 75.3691 196.979 72.7636C202.424 68.951 211.735 71.9116 213.655 78.7202Z" fill="#FFC4C0"/>
<path d="M200.526 86.5151C200.526 86.5151 200.583 86.579 200.576 86.6145C200.334 87.4878 200.213 88.5243 200.938 89.0071C200.938 89.0071 200.938 89.071 200.938 89.0568C199.978 88.6876 200.156 87.3103 200.526 86.5151Z" fill="#39434F"/>
<path d="M201.535 85.7841C202.956 86.0184 202.409 88.8866 201.073 88.6736C199.736 88.4607 200.326 85.5924 201.535 85.7841Z" fill="#39434F"/>
<path d="M195.543 85.557C195.543 85.5215 195.464 85.557 195.457 85.6209C195.308 86.5155 194.988 87.5165 194.128 87.6514C194.128 87.6514 194.093 87.7011 194.128 87.7011C195.137 87.7579 195.55 86.4303 195.543 85.557Z" fill="#39434F"/>
<path d="M194.931 84.4708C193.51 84.0803 192.842 86.9272 194.149 87.3106C195.457 87.694 196.111 84.8044 194.931 84.4708Z" fill="#39434F"/>
<path d="M202.892 84.1868C202.536 84.0048 202.189 83.8033 201.855 83.5833C201.461 83.4205 201.132 83.1339 200.916 82.7669C200.876 82.6383 200.877 82.5 200.92 82.3722C200.964 82.2445 201.047 82.134 201.158 82.0569C201.405 81.9403 201.679 81.8913 201.951 81.915C202.223 81.9387 202.485 82.0342 202.708 82.1918C203.208 82.4455 203.595 82.8757 203.795 83.3988C203.83 83.5196 203.83 83.6479 203.795 83.7687C203.76 83.8894 203.69 83.9976 203.596 84.0804C203.501 84.1632 203.384 84.2172 203.26 84.2361C203.135 84.2549 203.008 84.2378 202.892 84.1868Z" fill="#39434F"/>
<path d="M193.879 82.7738C194.277 82.7986 194.676 82.7986 195.073 82.7738C195.495 82.8432 195.927 82.7708 196.303 82.5679C196.404 82.4837 196.476 82.3691 196.506 82.2412C196.537 82.1132 196.526 81.9788 196.474 81.8579C196.325 81.6207 196.113 81.429 195.863 81.3038C195.612 81.1786 195.331 81.1247 195.052 81.1479C194.494 81.1046 193.939 81.2689 193.495 81.6094C193.394 81.6943 193.321 81.8075 193.285 81.9344C193.249 82.0613 193.252 82.196 193.293 82.3213C193.334 82.4466 193.412 82.5566 193.517 82.6373C193.621 82.7179 193.747 82.7655 193.879 82.7738Z" fill="#39434F"/>
<path d="M199.964 92.2237C199.668 92.5294 199.311 92.771 198.918 92.9335C198.524 93.0959 198.101 93.1757 197.675 93.1679C197.304 93.1639 196.935 93.1065 196.58 92.9975C196.509 92.9838 196.44 92.9623 196.374 92.9336L196.182 92.8626C196.137 92.8442 196.099 92.8111 196.074 92.7687C196.05 92.7262 196.04 92.6769 196.047 92.6284C196.043 92.5977 196.043 92.5667 196.047 92.5361V92.458C196.168 91.748 196.438 90.747 196.438 90.747C196.168 90.818 194.775 91.1374 194.867 90.7896C195.577 87.719 196.599 84.7288 197.917 81.8653C197.927 81.8499 197.942 81.8382 197.959 81.832C197.977 81.8258 197.996 81.8255 198.014 81.8312C198.031 81.8368 198.047 81.848 198.057 81.8631C198.068 81.8783 198.074 81.8965 198.073 81.915C197.455 84.7549 196.331 87.4598 195.663 90.3068C196.158 90.1816 196.668 90.1289 197.177 90.1506C197.27 90.2003 196.616 92.1314 196.587 92.4438C197.137 92.6127 197.715 92.6689 198.286 92.6091C198.858 92.5494 199.412 92.3748 199.914 92.0959C199.971 92.0888 200.049 92.1598 199.964 92.2237Z" fill="#39434F"/>
<path d="M197.32 93.0898C197.65 93.5731 198.101 93.9621 198.628 94.2187C198.919 94.3507 199.245 94.3879 199.559 94.3252C200.27 94.1832 200.27 93.5655 200.199 93.033C200.145 92.7489 200.056 92.4724 199.936 92.2095C199.18 92.7742 198.263 93.0827 197.32 93.0898Z" fill="#39434F"/>
<path d="M198.627 94.204C198.919 94.336 199.245 94.3733 199.559 94.3105C200.269 94.1685 200.269 93.5508 200.198 93.0184C199.841 93.0114 199.492 93.1246 199.207 93.3396C198.923 93.5546 198.718 93.8591 198.627 94.204Z" fill="#FFC2E6"/>
<path d="M214.174 89.0215C210.676 89.1919 208.942 84.996 209.83 81.6592C209.83 81.6592 200.511 82.6957 200.227 75.2695C199.552 76.2663 198.64 77.0813 197.574 77.6423C196.508 78.2033 195.319 78.4929 194.114 78.4856L193.019 81.2048C192.074 80.9137 191.114 78.1875 193.488 76.1144C193.488 76.1144 193.73 72.4012 196.517 70.2288C197.271 69.6061 198.19 69.214 199.162 69.0994C200.134 68.9849 201.118 69.1527 201.997 69.5827C203.639 68.4491 205.657 67.996 207.627 68.319C208.656 68.5063 209.624 68.9366 210.453 69.5738C211.281 70.2111 211.945 71.0369 212.389 71.9824C212.389 71.9824 216.967 72.955 217.685 76.2421C217.906 77.1696 217.93 78.1332 217.753 79.0702C217.577 80.0073 217.205 80.8966 216.661 81.6805C216.661 81.6805 217.792 82.9868 217.145 85.7628C216.733 87.5093 215.226 88.9718 214.174 89.0215Z" fill="#39434F"/>
<path d="M200.447 74.5811C200.362 75.183 200.341 75.7922 200.383 76.3986C200.409 76.9984 200.512 77.5925 200.689 78.1664C201.016 79.3042 201.763 80.2758 202.779 80.8855C203.824 81.4599 204.991 81.7787 206.184 81.8156C206.788 81.8156 207.399 81.8511 208.003 81.8156C208.608 81.7801 209.219 81.7091 209.83 81.6665C209.233 81.8014 208.629 81.9079 208.025 82.0286C207.421 82.1493 206.795 82.1138 206.177 82.1564C204.915 82.1665 203.67 81.8588 202.559 81.2618C201.464 80.5884 200.678 79.5125 200.369 78.2658C200.081 77.0509 200.107 75.7826 200.447 74.5811Z" fill="#39434F"/>
<path d="M195.564 78.7837C196.586 78.4598 197.547 77.9679 198.407 77.3282C198.825 77.0104 199.198 76.6379 199.516 76.2207C199.839 75.7793 200.111 75.303 200.327 74.8008C200.265 75.3584 200.083 75.8962 199.793 76.3769C199.507 76.8688 199.125 77.2985 198.67 77.6406C198.221 77.9817 197.723 78.2523 197.192 78.4429C196.672 78.6469 196.122 78.7621 195.564 78.7837Z" fill="#39434F"/>
<path d="M210.598 89.4335C210.598 89.4335 213.768 85.2802 215.659 86.4303C217.55 87.5805 215.055 93.672 212.737 94.4245C212.448 94.5412 212.137 94.5981 211.825 94.5919C211.513 94.5858 211.205 94.5166 210.92 94.3886C210.635 94.2606 210.379 94.0765 210.168 93.8472C209.956 93.6179 209.793 93.3482 209.688 93.0543L210.598 89.4335Z" fill="#FFC4C0"/>
<path d="M214.898 88.1553V88.2192C213.271 88.8014 212.368 90.2426 211.714 91.769C211.814 91.6132 211.947 91.4808 212.103 91.381C212.259 91.2811 212.435 91.2162 212.619 91.1905C212.802 91.1649 212.989 91.1792 213.167 91.2325C213.344 91.2858 213.508 91.3768 213.647 91.4992C213.683 91.4992 213.647 91.5915 213.598 91.5844C213.322 91.483 213.021 91.4695 212.737 91.5458C212.453 91.6221 212.2 91.7844 212.012 92.0104C211.7 92.3939 211.431 92.8106 211.209 93.2528C211.124 93.3877 210.868 93.3025 210.932 93.1392V93.1037C211.003 91.0519 212.702 88.2689 214.898 88.1553Z" fill="#39434F"/>
<g opacity="0.2">
<path d="M205.566 90.6611C205.56 90.6918 205.561 90.7234 205.569 90.7537C205.577 90.7839 205.591 90.812 205.611 90.836C205.631 90.8601 205.656 90.8794 205.685 90.8926C205.713 90.9059 205.744 90.9128 205.775 90.9128C205.807 90.9128 205.837 90.9059 205.866 90.8926C205.894 90.8794 205.919 90.8601 205.939 90.836C205.959 90.812 205.974 90.7839 205.982 90.7537C205.989 90.7234 205.991 90.6918 205.985 90.6611C205.984 90.6331 205.978 90.6056 205.966 90.5801C205.954 90.5546 205.938 90.5317 205.917 90.5125C205.897 90.4934 205.873 90.4785 205.847 90.4687C205.821 90.4588 205.793 90.4543 205.765 90.4552C205.712 90.4587 205.662 90.4817 205.625 90.5198C205.588 90.5578 205.567 90.6082 205.566 90.6611Z" fill="#202326"/>
<path d="M201.13 90.6473C201.134 90.7032 201.158 90.7556 201.199 90.7939C201.24 90.8321 201.294 90.8534 201.35 90.8532C201.378 90.8514 201.406 90.8441 201.431 90.8317C201.456 90.8193 201.479 90.802 201.497 90.7809C201.516 90.7598 201.53 90.7353 201.539 90.7087C201.548 90.6821 201.551 90.654 201.549 90.626C201.549 90.5984 201.542 90.5712 201.53 90.5461C201.519 90.5209 201.502 90.4984 201.482 90.4799C201.461 90.4613 201.437 90.4471 201.411 90.438C201.384 90.429 201.357 90.4253 201.329 90.4273C201.274 90.4309 201.222 90.4559 201.185 90.497C201.148 90.5381 201.128 90.592 201.13 90.6473Z" fill="#202326"/>
<path d="M202.757 92.1312C202.752 92.1619 202.753 92.1935 202.761 92.2238C202.769 92.254 202.783 92.2821 202.803 92.3061C202.823 92.3302 202.848 92.3495 202.877 92.3628C202.905 92.376 202.936 92.3829 202.967 92.3829C202.998 92.3829 203.029 92.376 203.058 92.3628C203.086 92.3495 203.111 92.3302 203.131 92.3061C203.151 92.2821 203.166 92.254 203.173 92.2238C203.181 92.1935 203.183 92.1619 203.177 92.1312C203.177 92.1029 203.171 92.0749 203.16 92.049C203.149 92.023 203.132 91.9997 203.112 91.9803C203.091 91.961 203.066 91.9462 203.04 91.9367C203.013 91.9272 202.985 91.9233 202.956 91.9253C202.904 91.9288 202.854 91.9518 202.817 91.9899C202.78 92.0279 202.759 92.0783 202.757 92.1312Z" fill="#202326"/>
<path d="M205.374 88.9221C205.375 88.9501 205.381 88.9776 205.393 89.0031C205.404 89.0286 205.421 89.0516 205.441 89.0707C205.462 89.0898 205.486 89.1047 205.512 89.1145C205.538 89.1244 205.566 89.129 205.594 89.128C205.636 89.1266 205.677 89.1127 205.711 89.0881C205.745 89.0636 205.772 89.0294 205.786 88.99C205.801 88.9506 205.804 88.9076 205.794 88.8666C205.785 88.8256 205.763 88.7884 205.732 88.7596C205.702 88.7308 205.663 88.7118 205.621 88.705C205.58 88.6981 205.537 88.7038 205.499 88.7212C205.46 88.7386 205.428 88.7669 205.406 88.8027C205.383 88.8385 205.372 88.88 205.374 88.9221Z" fill="#202326"/>
<path d="M203.333 90.207C203.343 90.2559 203.368 90.3002 203.407 90.332C203.445 90.3638 203.493 90.3813 203.543 90.3813C203.593 90.3813 203.641 90.3638 203.68 90.332C203.718 90.3002 203.744 90.2559 203.753 90.207C203.752 90.179 203.746 90.1515 203.734 90.126C203.722 90.1005 203.706 90.0775 203.685 90.0584C203.665 90.0393 203.641 90.0244 203.615 90.0146C203.588 90.0047 203.561 90.0002 203.533 90.0011C203.48 90.0046 203.43 90.0276 203.393 90.0657C203.356 90.1037 203.335 90.1541 203.333 90.207Z" fill="#202326"/>
<path d="M192.316 87.6156C192.316 87.6436 192.323 87.6711 192.334 87.6966C192.346 87.7221 192.363 87.745 192.383 87.7642C192.403 87.7833 192.428 87.7982 192.454 87.808C192.48 87.8179 192.508 87.8224 192.536 87.8215C192.591 87.8178 192.643 87.7928 192.68 87.7517C192.717 87.7106 192.737 87.6567 192.735 87.6014C192.731 87.5455 192.707 87.4931 192.666 87.4549C192.625 87.4166 192.571 87.3954 192.515 87.3955C192.459 87.3992 192.408 87.4242 192.37 87.4653C192.333 87.5063 192.314 87.5603 192.316 87.6156Z" fill="#202326"/>
<path d="M194.014 88.7446C194.018 88.8005 194.043 88.8529 194.084 88.8912C194.125 88.9294 194.179 88.9506 194.235 88.9505C194.29 88.9469 194.342 88.9218 194.379 88.8808C194.416 88.8397 194.436 88.7857 194.434 88.7304C194.433 88.7024 194.426 88.6749 194.415 88.6494C194.403 88.624 194.387 88.601 194.366 88.5819C194.346 88.5627 194.322 88.5478 194.295 88.538C194.269 88.5282 194.241 88.5236 194.213 88.5245C194.158 88.5282 194.106 88.5532 194.069 88.5943C194.032 88.6354 194.012 88.6893 194.014 88.7446Z" fill="#202326"/>
<path d="M193.652 90.1572C193.656 90.2125 193.681 90.2641 193.722 90.3012C193.763 90.3383 193.817 90.358 193.872 90.356C193.9 90.3551 193.928 90.3487 193.953 90.3371C193.979 90.3256 194.002 90.3091 194.021 90.2887C194.04 90.2682 194.055 90.2442 194.065 90.218C194.075 90.1918 194.079 90.1639 194.078 90.1359C194.075 90.0807 194.05 90.029 194.009 89.9919C193.967 89.9548 193.913 89.9352 193.858 89.9371C193.83 89.9371 193.802 89.9428 193.776 89.9541C193.75 89.9653 193.726 89.9817 193.707 90.0024C193.688 90.023 193.673 90.0474 193.663 90.0741C193.654 90.1007 193.65 90.129 193.652 90.1572Z" fill="#202326"/>
<path d="M192.173 89.2485C192.177 89.3044 192.202 89.3568 192.243 89.3951C192.284 89.4333 192.338 89.4545 192.394 89.4544C192.449 89.4508 192.501 89.4257 192.538 89.3847C192.575 89.3436 192.595 89.2897 192.593 89.2343C192.592 89.2064 192.585 89.1788 192.574 89.1533C192.562 89.1279 192.546 89.1049 192.525 89.0858C192.505 89.0667 192.481 89.0517 192.455 89.0419C192.428 89.0321 192.401 89.0275 192.373 89.0284C192.317 89.0321 192.265 89.0571 192.228 89.0982C192.191 89.1393 192.172 89.1932 192.173 89.2485Z" fill="#202326"/>
</g>
<path d="M274.012 43.3296C274.013 47.8492 272.757 52.2801 270.383 56.1279C268.009 59.9756 264.611 63.0887 260.569 65.1198C256.527 67.1508 251.999 68.0199 247.49 67.63C242.982 67.2401 238.671 65.6065 235.038 62.9116L223.083 65.966L228.031 54.8356C226.294 51.5668 225.324 47.9459 225.196 44.2473C225.067 40.5487 225.783 36.8694 227.29 33.4881C228.796 30.1069 231.053 27.1124 233.89 24.7316C236.727 22.3508 240.069 20.6461 243.663 19.7467C247.258 18.8473 251.01 18.7768 254.635 19.5405C258.261 20.3042 261.665 21.882 264.589 24.1545C267.514 26.427 269.882 29.3345 271.515 32.6568C273.147 35.979 274.002 39.6288 274.012 43.3296Z" fill="white"/>
<path d="M274.012 43.3298C274.022 47.8646 272.772 52.3133 270.4 56.1801C269.8 57.1406 269.139 58.0617 268.421 58.938C267.694 59.7994 266.913 60.6149 266.085 61.3796C264.438 62.9197 262.582 64.2207 260.572 65.2445C258.561 66.2808 256.416 67.0358 254.199 67.4884C253.085 67.7057 251.957 67.8445 250.824 67.9036C249.694 67.9925 248.559 67.9925 247.429 67.9036C242.861 67.543 238.484 65.917 234.791 63.2083L235.088 63.2676L223.152 66.3912L222.281 66.6186L222.647 65.7981L227.596 54.6579V55.073C225.816 51.7466 224.821 48.0574 224.689 44.2879C224.557 40.5185 225.291 36.7688 226.834 33.3263C228.385 29.889 230.696 26.8474 233.593 24.4299C236.49 22.0498 239.889 20.3548 243.534 19.4715C247.179 18.5882 250.977 18.5396 254.644 19.3293C258.28 20.1503 261.686 21.7751 264.61 24.0839C267.529 26.3758 269.892 29.2977 271.52 32.6306C273.148 35.9636 274 39.6213 274.012 43.3298ZM274.012 43.3298C274.019 39.6357 273.176 35.9894 271.548 32.6723C269.92 29.3551 267.552 26.4557 264.624 24.1978C261.697 21.9398 258.29 20.3836 254.665 19.6491C251.04 18.9147 247.295 19.0218 243.718 19.9619C240.174 20.874 236.887 22.585 234.108 24.9637C231.36 27.3573 229.165 30.3185 227.675 33.6426C226.222 36.9731 225.545 40.5896 225.696 44.2194C225.842 47.8465 226.795 51.3955 228.487 54.6084L228.595 54.816L228.506 55.0335L223.439 66.1737L222.934 65.5708L234.92 62.6053L235.078 62.5559L235.216 62.6646C238.781 65.3545 243.022 67.0039 247.469 67.4291C248.577 67.5377 249.693 67.5576 250.804 67.4884C251.92 67.4486 253.031 67.3297 254.129 67.1326C256.329 66.7308 258.461 66.022 260.464 65.0271C262.486 64.0436 264.351 62.7642 265.996 61.2313C266.821 60.4775 267.601 59.6755 268.332 58.8293C269.047 57.9579 269.708 57.0434 270.311 56.0911C272.702 52.2609 273.983 47.8435 274.012 43.3298Z" fill="#39434F"/>
<path d="M248.844 29.9358C247.536 31.242 246.645 32.9064 246.283 34.7186C245.922 36.5308 246.107 38.4093 246.814 40.1165C247.522 41.8237 248.721 43.283 250.259 44.3097C251.797 45.3364 253.606 45.8844 255.456 45.8844C257.306 45.8844 259.114 45.3364 260.652 44.3097C262.19 43.283 263.389 41.8237 264.097 40.1165C264.805 38.4093 264.989 36.5308 264.628 34.7186C264.267 32.9064 263.375 31.242 262.067 29.9358C260.312 28.1877 257.934 27.2061 255.456 27.2061C252.977 27.2061 250.6 28.1877 248.844 29.9358ZM260.157 34.3049C259.828 34.6321 259.383 34.8158 258.92 34.8158C258.456 34.8158 258.011 34.6321 257.682 34.3049C257.36 33.9744 257.179 33.531 257.179 33.0693C257.179 32.6076 257.36 32.1642 257.682 31.8337C258.011 31.5065 258.456 31.3228 258.92 31.3228C259.383 31.3228 259.828 31.5065 260.157 31.8337C260.321 31.9948 260.452 32.187 260.541 32.3992C260.631 32.6114 260.676 32.8392 260.676 33.0693C260.676 33.2995 260.631 33.5273 260.541 33.7395C260.452 33.9516 260.321 34.1439 260.157 34.3049Z" fill="#FFC542"/>
<path d="M247.569 38.3659L245.574 40.3579L251.642 46.4179L253.636 44.4259L247.569 38.3659Z" fill="#FFC542"/>
<path d="M246.538 41.3135L250.655 45.4256L249.646 46.4338L247.944 45.9099L248.468 47.6101L246.796 49.2807L244.539 48.8062L245.004 51.0599L244.628 51.4455L242.926 50.9216L243.45 52.6218L241.748 52.0979L242.273 53.7981L240.947 55.1128L238.69 54.6482L239.155 56.9019L237.997 58.0585L233.415 58.523L233.88 53.9562L246.538 41.3135Z" fill="#ECEFF2"/>
<path d="M247.773 43.6638L235.981 55.4414L236.268 55.728L248.06 43.9504L247.773 43.6638Z" fill="#D9DFE6"/>
<path opacity="0.1" d="M263.581 36.519C263.591 38.6738 262.748 40.7453 261.235 42.2818C259.702 43.8419 257.612 44.7314 255.423 44.7555C253.234 44.7795 251.125 43.9363 249.557 42.4104C248.772 41.6427 248.148 40.7261 247.722 39.7145C247.296 38.7028 247.077 37.6164 247.077 36.519C247.077 35.4215 247.296 34.3351 247.722 33.3234C248.148 32.3118 248.772 31.3953 249.557 30.6276C251.12 29.0985 253.228 28.2521 255.416 28.2744C257.604 28.2966 259.693 29.1857 261.225 30.7462C262.746 32.2824 263.593 34.3589 263.581 36.519ZM263.581 36.519C263.584 34.9301 263.112 33.3766 262.226 32.057C261.34 30.7374 260.08 29.7117 258.607 29.111C257.135 28.5103 255.516 28.362 253.959 28.685C252.401 29.0079 250.975 29.7876 249.864 30.9241C248.466 32.4397 247.708 34.4355 247.748 36.4954C247.788 38.5554 248.622 40.5206 250.077 41.9813C251.532 43.442 253.495 44.2855 255.557 44.336C257.619 44.3864 259.622 43.64 261.146 42.2522C261.911 41.5044 262.52 40.6128 262.938 39.6288C263.355 38.6447 263.574 37.5878 263.581 36.519Z" fill="#202326"/>
</g>
</g>
<defs>
<clipPath id="clip0_7_41051">
<rect width="351" height="230" rx="12.5" fill="white"/>
</clipPath>
<clipPath id="clip1_7_41051">
<rect width="316" height="215" fill="white" transform="translate(17 16)"/>
</clipPath>
</defs>
</svg>
